<svg width="32" height="32" viewBox="0 0 32 32" fill="none" xmlns="http://www.w3.org/2000/svg">
<path d="M27 22.14V9.85999C27.6851 9.68638 28.312 9.33435 28.8168 8.83972C29.3217 8.34509 29.6864 7.72553 29.874 7.04411C30.0616 6.36269 30.0652 5.64373 29.8846 4.96043C29.704 4.27713 29.3456 3.65388 28.8459 3.15412C28.3461 2.65436 27.7229 2.29594 27.0395 2.11534C26.3562 1.93474 25.6373 1.93841 24.9559 2.12598C24.2744 2.31355 23.6549 2.67832 23.1603 3.18316C22.6656 3.688 22.3136 4.31488 22.14 4.99999H9.85999C9.68638 4.31488 9.33435 3.688 8.83972 3.18316C8.34509 2.67832 7.72553 2.31355 7.04411 2.12598C6.36269 1.93841 5.64373 1.93474 4.96043 2.11534C4.27713 2.29594 3.65388 2.65436 3.15412 3.15412C2.65436 3.65388 2.29594 4.27713 2.11534 4.96043C1.93474 5.64373 1.93841 6.36269 2.12598 7.04411C2.31355 7.72553 2.67832 8.34509 3.18316 8.83972C3.688 9.33435 4.31488 9.68638 4.99999 9.85999V22.14C4.31488 22.3136 3.688 22.6656 3.18316 23.1603C2.67832 23.6549 2.31355 24.2744 2.12598 24.9559C1.93841 25.6373 1.93474 26.3562 2.11534 27.0395C2.29594 27.7229 2.65436 28.3461 3.15412 28.8459C3.65388 29.3456 4.27713 29.704 4.96043 29.8846C5.64373 30.0652 6.36269 30.0616 7.04411 29.874C7.72553 29.6864 8.34509 29.3217 8.83972 28.8168C9.33435 28.312 9.68638 27.6851 9.85999 27H22.14C22.3136 27.6851 22.6656 28.312 23.1603 28.8168C23.6549 29.3217 24.2744 29.6864 24.9559 29.874C25.6373 30.0616 26.3562 30.0652 27.0395 29.8846C27.7229 29.704 28.3461 29.3456 28.8459 28.8459C29.3456 28.3461 29.704 27.7229 29.8846 27.0395C30.0652 26.3562 30.0616 25.6373 29.874 24.9559C29.6864 24.2744 29.3217 23.6549 28.8168 23.1603C28.312 22.6656 27.6851 22.3136 27 22.14ZM26 3.99999C26.3956 3.99999 26.7822 4.11729 27.1111 4.33705C27.44 4.55681 27.6964 4.86917 27.8477 5.23462C27.9991 5.60008 28.0387 6.00221 27.9616 6.39017C27.8844 6.77813 27.6939 7.1345 27.4142 7.4142C27.1345 7.69391 26.7781 7.88439 26.3902 7.96156C26.0022 8.03873 25.6001 7.99912 25.2346 7.84775C24.8692 7.69637 24.5568 7.44003 24.3371 7.11113C24.1173 6.78223 24 6.39555 24 5.99999C24 5.46956 24.2107 4.96085 24.5858 4.58578C24.9608 4.2107 25.4696 3.99999 26 3.99999ZM3.99999 5.99999C3.99999 5.60443 4.11729 5.21775 4.33705 4.88885C4.55681 4.55995 4.86917 4.30361 5.23462 4.15223C5.60008 4.00086 6.00221 3.96125 6.39017 4.03842C6.77813 4.11559 7.1345 4.30607 7.4142 4.58578C7.69391 4.86548 7.88439 5.22185 7.96156 5.60981C8.03873 5.99777 7.99912 6.3999 7.84775 6.76536C7.69637 7.13081 7.44003 7.44317 7.11113 7.66293C6.78223 7.88269 6.39555 7.99999 5.99999 7.99999C5.46956 7.99999 4.96085 7.78928 4.58578 7.4142C4.2107 7.03913 3.99999 6.53042 3.99999 5.99999ZM5.99999 28C5.60443 28 5.21775 27.8827 4.88885 27.6629C4.55995 27.4432 4.30361 27.1308 4.15223 26.7654C4.00086 26.3999 3.96125 25.9978 4.03842 25.6098C4.11559 25.2218 4.30607 24.8655 4.58578 24.5858C4.86548 24.3061 5.22185 24.1156 5.60981 24.0384C5.99777 23.9612 6.3999 24.0009 6.76536 24.1522C7.13081 24.3036 7.44317 24.56 7.66293 24.8888C7.88269 25.2177 7.99999 25.6044 7.99999 26C7.99999 26.5304 7.78928 27.0391 7.4142 27.4142C7.03913 27.7893 6.53042 28 5.99999 28ZM22.14 25H9.85999C9.68043 24.3121 9.3208 23.6846 8.81811 23.1819C8.31542 22.6792 7.68785 22.3195 6.99999 22.14V9.85999C7.68785 9.68043 8.31542 9.3208 8.81811 8.81811C9.3208 8.31542 9.68043 7.68785 9.85999 6.99999H22.14C22.3195 7.68785 22.6792 8.31542 23.1819 8.81811C23.6846 9.3208 24.3121 9.68043 25 9.85999V22.14C24.3121 22.3195 23.6846 22.6792 23.1819 23.1819C22.6792 23.6846 22.3195 24.3121 22.14 25ZM26 28C25.6044 28 25.2177 27.8827 24.8888 27.6629C24.56 27.4432 24.3036 27.1308 24.1522 26.7654C24.0009 26.3999 23.9612 25.9978 24.0384 25.6098C24.1156 25.2218 24.3061 24.8655 24.5858 24.5858C24.8655 24.3061 25.2218 24.1156 25.6098 24.0384C25.9978 23.9612 26.3999 24.0009 26.7654 24.1522C27.1308 24.3036 27.4432 24.56 27.6629 24.8888C27.8827 25.2177 28 25.6044 28 26C28 26.5304 27.7893 27.0391 27.4142 27.4142C27.0391 27.7893 26.5304 28 26 28Z" fill="black"/>
<path d="M21 11H11V13H15V22H17V13H21V11Z" fill="black"/>
</svg>
