<?xml version="1.0" standalone="no"?>
<!DOCTYPE svg PUBLIC "-//W3C//DTD SVG 20010904//EN"
 "http://www.w3.org/TR/2001/REC-SVG-20010904/DTD/svg10.dtd">
<svg version="1.0" xmlns="http://www.w3.org/2000/svg"
 width="48.000000pt" height="48.000000pt" viewBox="0 0 48.000000 48.000000"
 preserveAspectRatio="xMidYMid meet">

<g transform="translate(0.000000,48.000000) scale(0.100000,-0.100000)"
fill="#000000" stroke="none">
<path d="M4 417 c-2 -7 -3 -87 -2 -177 l3 -165 85 -3 c47 -2 89 -7 94 -12 13
-13 99 -13 112 0 5 5 47 10 94 12 l85 3 0 175 0 175 -94 3 c-85 3 -96 1 -117
-19 l-24 -22 -23 21 c-20 19 -35 22 -115 22 -66 0 -94 -4 -98 -13z m36 -157
l0 -150 73 0 c61 0 77 -3 92 -20 10 -11 13 -20 7 -20 -6 0 -14 5 -17 10 -3 6
-44 10 -91 10 l-84 0 0 160 c0 100 4 160 10 160 6 0 10 -57 10 -150z m164 134
c13 -12 16 -41 16 -152 0 -176 -18 -165 -22 13 l-3 130 -57 3 -58 3 0 -121 0
-120 50 0 c28 0 50 -4 50 -10 0 -6 -27 -10 -60 -10 l-60 0 0 140 0 140 64 0
c45 0 69 -5 80 -16z m216 -124 l0 -140 -60 0 c-33 0 -60 4 -60 10 0 6 23 10
50 10 l50 0 0 120 0 121 -57 -3 -58 -3 -3 -130 c-4 -178 -22 -189 -22 -13 0
165 2 168 96 168 l64 0 0 -140z m40 -20 l0 -160 -84 0 c-47 0 -88 -4 -91 -10
-3 -5 -11 -10 -17 -10 -6 0 -3 9 7 20 15 17 31 20 92 20 l73 0 0 150 c0 93 4
150 10 150 6 0 10 -60 10 -160z m-320 90 c0 -23 -4 -30 -20 -30 -16 0 -20 7
-20 30 0 23 4 30 20 30 16 0 20 -7 20 -30z m40 0 c0 -16 -4 -30 -10 -30 -5 0
-10 14 -10 30 0 17 5 30 10 30 6 0 10 -13 10 -30z m200 0 c0 -28 -2 -30 -40
-30 -38 0 -40 2 -40 30 0 28 2 30 40 30 38 0 40 -2 40 -30z m-200 -70 c0 -17
-7 -20 -40 -20 -33 0 -40 3 -40 20 0 17 7 20 40 20 33 0 40 -3 40 -20z m200
-10 c0 -28 -2 -30 -40 -30 -38 0 -40 2 -40 30 0 28 2 30 40 30 38 0 40 -2 40
-30z m-200 -60 c0 -28 -2 -30 -40 -30 -38 0 -40 2 -40 30 0 28 2 30 40 30 38
0 40 -2 40 -30z m200 -10 c0 -17 -7 -20 -40 -20 -33 0 -40 3 -40 20 0 17 7 20
40 20 33 0 40 -3 40 -20z"/>
<path d="M110 340 c0 -5 5 -10 10 -10 6 0 10 5 10 10 0 6 -4 10 -10 10 -5 0
-10 -4 -10 -10z"/>
<path d="M310 340 c0 -5 5 -10 10 -10 6 0 10 5 10 10 0 6 -4 10 -10 10 -5 0
-10 -4 -10 -10z"/>
<path d="M350 340 c0 -5 5 -10 10 -10 6 0 10 5 10 10 0 6 -4 10 -10 10 -5 0
-10 -4 -10 -10z"/>
<path d="M110 270 c0 -5 5 -10 10 -10 6 0 10 5 10 10 0 6 -4 10 -10 10 -5 0
-10 -4 -10 -10z"/>
<path d="M150 270 c0 -5 5 -10 10 -10 6 0 10 5 10 10 0 6 -4 10 -10 10 -5 0
-10 -4 -10 -10z"/>
<path d="M310 260 c0 -5 5 -10 10 -10 6 0 10 5 10 10 0 6 -4 10 -10 10 -5 0
-10 -4 -10 -10z"/>
<path d="M350 260 c0 -5 5 -10 10 -10 6 0 10 5 10 10 0 6 -4 10 -10 10 -5 0
-10 -4 -10 -10z"/>
<path d="M110 200 c0 -5 5 -10 10 -10 6 0 10 5 10 10 0 6 -4 10 -10 10 -5 0
-10 -4 -10 -10z"/>
<path d="M150 200 c0 -5 5 -10 10 -10 6 0 10 5 10 10 0 6 -4 10 -10 10 -5 0
-10 -4 -10 -10z"/>
<path d="M310 190 c0 -5 5 -10 10 -10 6 0 10 5 10 10 0 6 -4 10 -10 10 -5 0
-10 -4 -10 -10z"/>
<path d="M350 190 c0 -5 5 -10 10 -10 6 0 10 5 10 10 0 6 -4 10 -10 10 -5 0
-10 -4 -10 -10z"/>
</g>
</svg>
