<svg width="50" height="50" viewBox="0 0 50 50" fill="none" xmlns="http://www.w3.org/2000/svg">
<path d="M44.3994 24.7219L38.1689 19.8049C38.1168 19.7639 38.0542 19.7384 37.9882 19.7314C37.9223 19.7243 37.8557 19.736 37.796 19.765C37.7364 19.7941 37.6862 19.8393 37.6511 19.8956C37.616 19.9519 37.5975 20.0169 37.5976 20.0832V23.2424H26.7578V12.4026H29.9219C30.2148 12.4026 30.3808 12.0608 30.2002 11.8313L25.2783 5.60081C25.2457 5.55865 25.2039 5.52451 25.1561 5.50103C25.1083 5.47754 25.0557 5.46533 25.0024 5.46533C24.9491 5.46533 24.8966 5.47754 24.8487 5.50103C24.8009 5.52451 24.7591 5.55865 24.7265 5.60081L19.8047 11.8313C19.7637 11.8834 19.7382 11.946 19.7311 12.012C19.7241 12.0779 19.7357 12.1445 19.7648 12.2042C19.7938 12.2638 19.8391 12.314 19.8954 12.3491C19.9516 12.3842 20.0167 12.4027 20.083 12.4026H23.2422V23.2424H12.4023V20.0783C12.4023 19.7854 12.0605 19.6194 11.831 19.8L5.60056 24.7219C5.5584 24.7545 5.52427 24.7963 5.50078 24.8441C5.4773 24.8919 5.46509 24.9445 5.46509 24.9978C5.46509 25.0511 5.4773 25.1036 5.50078 25.1515C5.52427 25.1993 5.5584 25.2411 5.60056 25.2737L11.8261 30.1955C12.0556 30.3762 12.3974 30.2151 12.3974 29.9172V26.758H23.2373V37.5979H20.0732C19.7803 37.5979 19.6142 37.9397 19.7949 38.1692L24.7168 44.3948C24.8584 44.5754 25.1318 44.5754 25.2685 44.3948L30.1904 38.1692C30.3711 37.9397 30.2099 37.5979 29.9121 37.5979H26.7578V26.758H37.5976V29.9221C37.5976 30.2151 37.9394 30.3811 38.1689 30.2004L44.3945 25.2785C44.4365 25.2455 44.4706 25.2035 44.4942 25.1555C44.5178 25.1075 44.5302 25.0548 44.5307 25.0014C44.5312 24.9479 44.5196 24.8951 44.4969 24.8467C44.4742 24.7983 44.4408 24.7557 44.3994 24.7219Z" fill="#CDC5F9"/>
</svg>
