<?xml version="1.0" standalone="no"?>
<!DOCTYPE svg PUBLIC "-//W3C//DTD SVG 20010904//EN"
 "http://www.w3.org/TR/2001/REC-SVG-20010904/DTD/svg10.dtd">
<svg version="1.0" xmlns="http://www.w3.org/2000/svg"
 width="67.000000pt" height="67.000000pt" viewBox="0 0 67.000000 67.000000"
 preserveAspectRatio="xMidYMid meet">

<g transform="translate(0.000000,67.000000) scale(0.100000,-0.100000)"
fill="#000000" stroke="none">
<path d="M528 491 c-29 -53 -61 -65 -175 -69 l-103 -4 0 46 c0 25 -2 46 -5 46
-15 0 -206 -153 -203 -162 2 -6 49 -43 103 -83 l100 -73 3 38 3 38 102 4 c118
4 159 22 194 85 16 29 43 129 43 160 0 2 -10 3 -22 3 -15 0 -29 -11 -40 -29z"/>
</g>
</svg>
