<svg width="51" height="49" viewBox="0 0 51 49" fill="none" xmlns="http://www.w3.org/2000/svg">
<path d="M40.3493 7.6001H10.9583C9.80367 7.6001 8.85896 8.5001 8.85896 9.6001V15.6001C8.85896 16.7001 9.80367 17.6001 10.9583 17.6001H40.3493C41.504 17.6001 42.4487 16.7001 42.4487 15.6001V9.6001C42.4487 8.5001 41.504 7.6001 40.3493 7.6001ZM40.3493 19.6001H10.9583C9.80367 19.6001 8.85896 20.5001 8.85896 21.6001V27.6001C8.85896 28.7001 9.80367 29.6001 10.9583 29.6001H40.3493C41.504 29.6001 42.4487 28.7001 42.4487 27.6001V21.6001C42.4487 20.5001 41.504 19.6001 40.3493 19.6001ZM40.3493 31.6001H10.9583C9.80367 31.6001 8.85896 32.5001 8.85896 33.6001V39.6001C8.85896 40.7001 9.80367 41.6001 10.9583 41.6001H40.3493C41.504 41.6001 42.4487 40.7001 42.4487 39.6001V33.6001C42.4487 32.5001 41.504 31.6001 40.3493 31.6001Z" fill="white"/>
<path d="M40.3493 48.6001C46.1466 48.6001 50.8461 44.1229 50.8461 38.6001C50.8461 33.0773 46.1466 28.6001 40.3493 28.6001C34.5521 28.6001 29.8526 33.0773 29.8526 38.6001C29.8526 44.1229 34.5521 48.6001 40.3493 48.6001Z" fill="#CDC5F9"/>
<path d="M38.25 32.6001H42.4487V44.6001H38.25V32.6001Z" fill="white"/>
<path d="M34.0513 36.6001H46.6474V40.6001H34.0513V36.6001Z" fill="white"/>
</svg>
