<svg width="47" height="43" viewBox="0 0 47 43" fill="none" xmlns="http://www.w3.org/2000/svg">
<path d="M24.0194 23.2377L35.6948 20.6562L22.6855 21.6094L10.998 24.3261L24.0194 23.2377Z" fill="#D1DBDF" stroke="black" stroke-width="0.276987" stroke-linecap="round" stroke-linejoin="round"/>
<path d="M26.9546 22.5889L35.6971 20.6568L25.9553 21.369C26.5213 21.5205 26.8254 22.1442 26.9546 22.5889Z" fill="black" stroke="black" stroke-width="0.138493" stroke-linecap="round" stroke-linejoin="round"/>
<path d="M23.1138 6.43069C23.1138 6.28896 23.2142 6.17407 23.3381 6.17407C23.462 6.17407 23.5625 6.28896 23.5625 6.43069V22.1449C23.5625 22.2866 23.462 22.4015 23.3381 22.4015C23.2142 22.4015 23.1138 22.2866 23.1138 22.1449V6.43069Z" fill="#D1DBDF" stroke="black" stroke-width="0.256616" stroke-linecap="round" stroke-linejoin="round"/>
<path d="M23.3366 4.9856C24.9406 4.9856 26.2435 5.1586 26.2435 5.78505C26.2435 6.36833 24.9837 6.66686 23.3797 6.66686C21.7757 6.66686 20.4336 6.36833 20.4336 5.78505C20.4336 5.20178 21.6374 4.9856 23.3366 4.9856Z" fill="#D1DBDF" stroke="black" stroke-width="0.256616" stroke-linecap="round" stroke-linejoin="round"/>
<path d="M23.3365 28.0581C10.6262 28.0581 0.866431 30.5312 0.266063 33.39C0.0933408 34.2124 0.0964936 35.0942 0.309243 36.1535C0.75107 38.3535 5.92563 40.6131 13.5169 41.7109L14.0382 42.7299H32.0895L32.6148 41.8432C40.4525 40.8502 45.7349 38.628 46.3597 36.1535C46.5956 35.2196 46.4669 34.2829 46.3597 33.3468C45.5659 30.1203 36.0468 28.0581 23.3365 28.0581Z" fill="url(#paint0_linear_655_2052)" stroke="#4B4B4B" stroke-width="0.256616" stroke-linecap="round" stroke-linejoin="round"/>
<path d="M23.3362 28.05C10.6259 28.05 0.312988 30.4216 0.312988 33.3427C0.312988 35.4419 5.63742 37.255 13.3523 38.1102C13.3523 38.1102 13.5816 39.5569 14.0379 40.4839C14.3105 41.0377 31.7913 41.124 32.0892 40.4839C32.489 39.6252 32.819 38.1623 32.819 38.1623C40.8019 37.3311 46.3635 35.4869 46.3635 33.3427C46.3635 30.4216 36.0465 28.05 23.3362 28.05Z" fill="url(#paint1_linear_655_2052)" stroke="#4B4B4B" stroke-width="0.256616" stroke-linecap="round" stroke-linejoin="round"/>
<path d="M8.62109 30.0504C10.7829 28.8697 17.2797 27.926 23.3384 27.9692C28.8912 28.0085 35.0765 28.9159 38.0259 30.0936L33.9421 32.2981C32.801 30.303 25.9181 30.1857 23.2089 30.1857C20.3866 30.1857 13.6369 30.275 12.5615 32.4276L8.62109 30.0504Z" fill="#D1DBDF" stroke="#4B4B4B" stroke-width="0.256616" stroke-linecap="round" stroke-linejoin="round"/>
<path opacity="0.35" d="M23.3377 4.80811C14.0797 4.80811 6.56543 12.3224 6.56543 21.5804C6.56543 24.7794 7.46307 27.7688 9.01932 30.3133C11.4199 31.9216 16.9258 33.0519 23.3377 33.0519C29.7437 33.0519 35.248 31.9232 37.652 30.3173C39.2101 27.7718 40.1099 24.7814 40.1099 21.5804C40.1099 12.3224 32.5956 4.80811 23.3377 4.80811Z" fill="url(#paint2_radial_655_2052)" stroke="white" stroke-opacity="0.640187" stroke-width="0.256616" stroke-linecap="round" stroke-linejoin="round"/>
<g opacity="0.5" filter="url(#filter0_f_655_2052)">
<path d="M39.5298 22.1338C39.2569 30.212 35.8441 35.0806 27.9426 35.9805C27.3337 36.0499 22.6231 35.7191 21.9955 35.7191C13.2228 35.7191 7.44195 30.8345 7.14808 22.1338C10.3457 27.6721 10.6301 32.9642 23.5157 32.9642C36.4035 32.9642 36.5224 27.3428 39.5298 22.1338Z" fill="url(#paint3_radial_655_2052)"/>
</g>
<path d="M23.1572 5.43871C28.0245 5.22886 33.5788 7.79839 35.8483 11.9049C37.7332 15.3154 33.9032 15.2846 30.5404 14.8085C27.9362 14.4398 25.8538 13.4032 21.9697 10.8149C18.9866 8.82695 18.7002 5.62823 23.1572 5.43871Z" fill="url(#paint4_linear_655_2052)"/>
<g filter="url(#filter1_f_655_2052)">
<path d="M9.06368 25.5401C9.50594 27.0852 10.3674 28.4409 11.4585 29.3089C12.5496 30.177 13.781 30.4863 14.8818 30.1688C15.9826 29.8513 16.8626 28.933 17.3283 27.616C17.7939 26.299 17.8071 24.6911 17.3648 23.146C16.9225 21.6009 16.0611 20.2453 14.97 19.3772C13.8789 18.5092 12.6475 18.1999 11.5467 18.5174C10.4459 18.8349 9.56587 19.7531 9.10022 21.0701C8.63456 22.3872 8.62142 23.9951 9.06368 25.5401V25.5401Z" fill="white" fill-opacity="0.418803"/>
</g>
<path d="M8.64986 30.0452C7.60263 30.6436 7.61867 31.3204 7.61867 32.0302C7.61867 34.5342 14.3284 36.5636 23.3382 36.5636C32.3481 36.5636 39.1442 34.5342 39.1442 32.0302C39.1442 31.3204 39.0738 30.6436 38.0266 30.0452C35.8609 31.7949 30.1016 33.0516 23.3382 33.0516C16.5749 33.0516 10.8156 31.7949 8.64986 30.0452Z" fill="url(#paint5_linear_655_2052)" stroke="#4B4B4B" stroke-width="0.256616" stroke-linecap="round" stroke-linejoin="round"/>
<path fill-rule="evenodd" clip-rule="evenodd" d="M13.2446 38.2446L13.5519 41.5597C13.5519 41.5597 13.8184 42.1928 13.9787 42.4207C14.0408 42.509 14.0258 40.6579 14.0258 40.6579C13.8646 40.5634 13.5015 39.552 13.2446 38.2446Z" fill="url(#paint6_linear_655_2052)"/>
<path fill-rule="evenodd" clip-rule="evenodd" d="M32.8965 38.2446L32.5893 41.5597C32.5893 41.5597 32.3228 42.1928 32.1625 42.4207C32.1004 42.509 32.1154 40.658 32.1154 40.658C32.2765 40.5634 32.6397 39.552 32.8965 38.2446Z" fill="url(#paint7_linear_655_2052)"/>
<defs>
<filter id="filter0_f_655_2052" x="6.4273" y="21.4131" width="33.8231" height="15.2975" filterUnits="userSpaceOnUse" color-interpolation-filters="sRGB">
<feFlood flood-opacity="0" result="BackgroundImageFix"/>
<feBlend mode="normal" in="SourceGraphic" in2="BackgroundImageFix" result="shape"/>
<feGaussianBlur stdDeviation="0.360325" result="effect1_foregroundBlur_655_2052"/>
</filter>
<filter id="filter1_f_655_2052" x="6.99901" y="16.6535" width="12.4307" height="15.3792" filterUnits="userSpaceOnUse" color-interpolation-filters="sRGB">
<feFlood flood-opacity="0" result="BackgroundImageFix"/>
<feBlend mode="normal" in="SourceGraphic" in2="BackgroundImageFix" result="shape"/>
<feGaussianBlur stdDeviation="0.871102" result="effect1_foregroundBlur_655_2052"/>
</filter>
<linearGradient id="paint0_linear_655_2052" x1="0.0142702" y1="37.1314" x2="46.1028" y2="37.3041" gradientUnits="userSpaceOnUse">
<stop offset="0.9999" stop-opacity="0.39"/>
<stop offset="1" stop-color="#ACBEC5"/>
</linearGradient>
<linearGradient id="paint1_linear_655_2052" x1="39.5115" y1="35.346" x2="2.15752" y2="30.9493" gradientUnits="userSpaceOnUse">
<stop offset="0.9999"/>
<stop offset="1"/>
</linearGradient>
<radialGradient id="paint2_radial_655_2052" cx="0" cy="0" r="1" gradientUnits="userSpaceOnUse" gradientTransform="translate(23.3391 21.5787) scale(16.7717 16.7717)">
<stop offset="0.9999" stop-color="white"/>
<stop offset="1" stop-color="#58E3FF"/>
</radialGradient>
<radialGradient id="paint3_radial_655_2052" cx="0" cy="0" r="1" gradientUnits="userSpaceOnUse" gradientTransform="translate(23.339 21.5787) rotate(117.243) scale(16.7717 16.4407)">
<stop offset="0.9999" stop-color="white"/>
<stop offset="1" stop-color="#6FE8FF"/>
</radialGradient>
<linearGradient id="paint4_linear_655_2052" x1="30.3276" y1="7.37503" x2="27.1824" y2="13.8651" gradientUnits="userSpaceOnUse">
<stop stop-color="white"/>
<stop offset="1" stop-color="white" stop-opacity="0"/>
</linearGradient>
<linearGradient id="paint5_linear_655_2052" x1="39.2725" y1="31.7166" x2="8.12855" y2="35.3806" gradientUnits="userSpaceOnUse">
<stop offset="0.9999" stop-opacity="0.62"/>
<stop offset="1" stop-color="#ACBEC5"/>
</linearGradient>
<linearGradient id="paint6_linear_655_2052" x1="13.2446" y1="40.4168" x2="13.9787" y2="40.4168" gradientUnits="userSpaceOnUse">
<stop stop-color="#6E8C99"/>
<stop offset="1" stop-color="#9BB1B9"/>
</linearGradient>
<linearGradient id="paint7_linear_655_2052" x1="32.8965" y1="40.4168" x2="32.1624" y2="40.4168" gradientUnits="userSpaceOnUse">
<stop offset="0.9999" stop-opacity="0.51"/>
<stop offset="1" stop-color="#9BB1B9"/>
</linearGradient>
</defs>
</svg>
