<?xml version="1.0" standalone="no"?>
<!DOCTYPE svg PUBLIC "-//W3C//DTD SVG 20010904//EN"
 "http://www.w3.org/TR/2001/REC-SVG-20010904/DTD/svg10.dtd">
<svg version="1.0" xmlns="http://www.w3.org/2000/svg"
 width="32.000000pt" height="32.000000pt" viewBox="0 0 32.000000 32.000000"
 preserveAspectRatio="xMidYMid meet">

<g transform="translate(0.000000,32.000000) scale(0.100000,-0.100000)"
fill="#000000" stroke="none">
<path d="M0 160 l0 -150 30 0 c17 0 30 5 30 10 0 6 40 10 100 10 60 0 100 -4
100 -10 0 -5 14 -10 30 -10 l30 0 0 150 0 150 -30 0 c-16 0 -30 -4 -30 -10 0
-6 -40 -10 -100 -10 -60 0 -100 4 -100 10 0 6 -13 10 -30 10 l-30 0 0 -150z
m260 100 c0 -6 -40 -10 -100 -10 -60 0 -100 4 -100 10 0 6 40 10 100 10 60 0
100 -4 100 -10z m-220 -100 c0 -49 -5 -92 -10 -95 -6 -4 -10 30 -10 95 0 65 4
99 10 95 6 -3 10 -46 10 -95z m260 -1 c0 -64 -4 -98 -10 -94 -11 7 -14 178 -3
188 12 13 13 7 13 -94z m-40 1 l0 -70 -100 0 -100 0 0 70 0 70 100 0 100 0 0
-70z m0 -100 c0 -6 -40 -10 -100 -10 -60 0 -100 4 -100 10 0 6 40 10 100 10
60 0 100 -4 100 -10z"/>
<path d="M114 211 c-2 -2 -4 -11 -4 -18 0 -10 6 -12 20 -8 11 4 20 2 20 -4 0
-6 -7 -11 -15 -11 -16 0 -36 -39 -28 -52 6 -12 101 -10 108 2 4 6 -5 10 -19
10 -14 0 -26 5 -26 10 0 6 7 10 15 10 8 0 15 5 15 10 0 6 -7 10 -15 10 -8 0
-15 5 -15 10 0 6 9 10 21 10 11 0 18 4 15 9 -6 9 -84 20 -92 12z m36 -71 c0
-5 -4 -10 -10 -10 -5 0 -10 5 -10 10 0 6 5 10 10 10 6 0 10 -4 10 -10z"/>
</g>
</svg>
