<svg width="214" height="67" viewBox="0 0 214 67" fill="none" xmlns="http://www.w3.org/2000/svg">
<path d="M0 3.56604C0 12.6447 13.0506 26.4045 25.6756 30.5183C29.9312 31.795 31.066 33.0717 31.7753 36.7599C32.4846 40.3062 32.059 41.8666 29.6475 43.7107C27.9453 45.1293 25.8174 46.2641 24.6826 46.2641C23.5478 46.2641 22.6967 46.8315 22.6967 47.6827C22.6967 49.5268 23.2641 49.5268 29.3638 46.9734C34.3287 44.8456 34.6124 44.8456 38.5843 48.6756C43.6911 53.4987 45.3933 51.9383 40.7121 46.8315C37.1658 43.0015 34.6124 36.7599 36.0309 35.1995C37.3076 34.0647 45.5352 38.0366 52.2023 43.1433C59.1531 48.3919 61.8484 48.1082 56.5998 42.5759C51.3512 37.0436 41.8469 31.0857 31.2079 27.1138C25.8174 25.1279 20.7107 22.4326 19.7177 21.1559C18.0155 19.3118 18.5829 19.0281 24.8245 19.5956C28.7964 20.0211 34.8961 21.1559 38.4425 22.1489C42.5562 23.2838 46.3863 23.5675 49.0815 22.8582C52.9116 21.7234 52.7697 21.5815 46.1026 20.7304C42.2725 20.3048 37.7332 19.17 36.1728 18.3189C33.6194 16.7585 33.7613 16.4748 39.7191 13.7795L46.1026 10.8006H41.4214C38.868 10.8006 35.3217 11.6517 33.6194 12.7866C31.9172 13.7795 26.5267 15.0562 21.5618 15.4818L12.4832 16.1911L8.08568 9.80762C-0.283708 -2.10812 0.141854 -1.82441 0 3.56604Z" fill="black" fill-opacity="0.39"/>
<path d="M46.8117 2.99856C46.8117 3.99154 47.9466 5.69378 49.3651 6.54491C51.6348 7.96345 51.6348 7.96345 49.3651 9.38199C46.6699 11.0842 45.8188 15.0562 48.2303 15.0562C49.0814 15.0562 50.0744 14.205 50.5 13.0702C50.9255 11.9354 52.3441 11.3679 54.0463 11.7935C56.8834 12.6446 57.7345 10.2331 55.1811 8.53087C54.0463 7.8216 54.0463 7.25418 55.323 6.54491C56.316 5.97749 56.5997 4.70081 56.0323 3.84968C55.323 2.57299 54.6137 2.57299 53.0533 3.84968C51.4929 5.12637 51.0674 4.98451 51.0674 3.14041C51.0674 1.86372 50.0744 0.870746 48.9396 0.870746C47.8047 0.870746 46.8117 1.86372 46.8117 2.99856Z" fill="#FFB7C5"/>
<path d="M43.407 7.39588C42.8396 8.67257 43.5489 9.38184 45.393 9.38184C48.6556 9.38184 49.2231 7.25402 46.2441 6.11919C45.1093 5.69363 43.8326 6.26105 43.407 7.39588Z" fill="#FFB7C5"/>
<path d="M58.586 13.3539C57.1675 14.205 57.1675 15.0561 58.8697 17.3258C60.572 19.5954 61.1394 19.7373 62.2742 18.035C63.5509 16.0491 62.8417 12.219 61.1394 12.219C60.7138 12.219 59.4372 12.7864 58.586 13.3539Z" fill="#FFB7C5"/>
<path d="M64.9689 17.3256C63.1248 21.4394 64.6852 25.4113 68.6571 26.1205C71.636 26.688 71.7779 22.4323 68.799 21.2975C66.813 20.4464 66.9549 20.1627 68.9408 18.6023C70.2175 17.7512 70.9268 16.1908 70.3593 15.3396C68.6571 12.6444 66.6711 13.3537 64.9689 17.3256Z" fill="#FFB7C5"/>
<path d="M53.9048 21.1558C53.9048 22.2906 54.3303 23.5673 54.7559 23.9929C56.1744 25.2696 61.2812 22.2906 60.2882 20.5884C59.0115 18.6024 53.9048 19.028 53.9048 21.1558Z" fill="#FFB7C5"/>
<path d="M60.5716 24.5604C58.7275 26.2627 59.5786 30.6602 61.7065 30.6602C62.9831 30.6602 63.8343 29.3835 63.8343 27.1138C63.8343 23.7093 62.4157 22.5745 60.5716 24.5604Z" fill="#FFB7C5"/>
<path d="M60.9976 44.1364C60.9976 45.8386 62.2742 48.392 63.8346 49.8106C66.2462 52.0802 66.6717 52.0802 67.5228 50.0943C69.0832 45.6968 67.5228 41.2993 64.2602 41.1575C61.8487 41.0156 60.9976 41.7249 60.9976 44.1364Z" fill="#FFB7C5"/>
<path d="M71.7777 45.6967C68.657 48.6756 68.9407 51.9382 72.2033 51.9382C75.6078 51.9382 80.5727 47.3989 78.1612 46.5478C77.31 46.2641 76.8845 45.4129 77.4519 44.7037C78.7286 42.5759 74.0474 43.2851 71.7777 45.6967Z" fill="#FFB7C5"/>
<path d="M16.0296 47.5408C15.4622 49.9523 14.8948 50.236 13.1926 48.9593C11.9159 47.8245 10.781 47.6826 9.78807 48.6756C8.79509 49.6686 9.22066 50.6616 10.781 51.9383C12.6252 53.6405 13.6181 53.6405 16.7389 51.7964C20.8527 49.5267 21.8457 46.2641 18.7249 45.1293C17.7319 44.8456 16.4552 45.8385 16.0296 47.5408Z" fill="#FFB7C5"/>
<path d="M56.0329 50.236C55.1818 50.8034 54.4725 52.2219 54.6144 53.3568C54.6144 55.9101 60.8559 56.9031 63.8349 54.7753C65.679 53.4986 65.5371 53.0731 63.2675 51.229C60.1467 48.8174 58.1607 48.6756 56.0329 50.236Z" fill="#FFB7C5"/>
<path d="M19.4338 51.5127C17.4478 53.3568 18.5827 54.7754 21.7035 54.7754C23.6894 54.7754 25.108 53.9243 25.108 52.6476C25.108 50.5198 21.136 49.6686 19.4338 51.5127Z" fill="#FFB7C5"/>
<path d="M39.0099 53.3567C38.0169 55.0589 39.2936 57.6123 41.2795 57.6123C42.9818 57.6123 42.9818 53.7822 41.2795 52.6474C40.5703 52.2219 39.5773 52.5056 39.0099 53.3567Z" fill="#FFB7C5"/>
<path d="M44.8257 53.0731C44.542 53.6405 43.8327 57.045 43.2653 60.8751C42.4142 66.833 42.556 67.5422 44.542 66.6911C45.9605 66.1237 46.6698 64.847 46.1024 63.7122C45.6768 62.1518 45.9605 61.8681 47.5209 62.2936C50.2162 63.4285 51.7765 60.8751 49.6487 58.3217C48.7976 57.1869 48.3721 55.7683 48.7976 54.9172C49.2232 54.2079 48.6558 53.3568 47.5209 52.7894C46.3861 52.3638 45.2513 52.5057 44.8257 53.0731Z" fill="#FFB7C5"/>
<path d="M69.5083 55.2008C69.5083 57.4704 73.9058 61.8679 76.1754 61.8679C79.0125 61.8679 79.7218 57.0449 77.1684 55.2008C73.9058 52.7893 69.5083 52.7893 69.5083 55.2008Z" fill="#FFB7C5"/>
<path d="M9.22028 56.1938C8.79472 57.0449 9.36214 58.0379 10.6388 58.6053C12.0574 59.0308 13.6178 58.6053 14.1852 57.6123C15.0363 56.3356 15.6037 56.6193 16.313 58.889C16.7385 60.4494 17.7315 61.8679 18.4408 61.8679C20.7105 61.8679 21.5616 58.889 19.8593 56.903C17.8734 54.4915 10.497 54.0659 9.22028 56.1938Z" fill="#FFB7C5"/>
<path d="M64.1179 56.4777C61.7063 58.8893 61.99 64.2797 64.4016 65.1308C67.3805 66.2657 69.9339 62.4356 68.9409 58.3218C67.9479 54.3499 66.6712 53.9244 64.1179 56.4777Z" fill="#FFB7C5"/>
<path d="M36.1733 60.3078C34.7547 62.8611 38.5848 63.5704 40.8544 61.3007C42.9823 59.1729 42.9823 59.0311 40.1452 59.0311C38.4429 59.0311 36.7407 59.5985 36.1733 60.3078Z" fill="#FFB7C5"/>
<path d="M119.8 18.0169C119.464 18.7853 119.164 19.4576 118.899 20.0339C118.635 20.6102 118.407 21.1024 118.215 21.5106C117.999 21.9669 117.819 22.3751 117.675 22.7352C117.555 22.9994 117.399 23.3595 117.207 23.8158C117.015 24.224 116.774 24.7642 116.486 25.4366C116.222 26.0849 115.874 26.9253 115.442 27.9578C115.226 27.0694 114.962 26.289 114.649 25.6166C114.337 24.9443 114.001 24.356 113.641 23.8518C113.281 23.3475 112.896 22.9393 112.488 22.6272C112.104 22.291 111.72 22.0149 111.336 21.7988C110.447 21.3185 109.511 21.0544 108.526 21.0064C107.23 21.0784 106.209 21.2945 105.465 21.6547C104.745 21.9909 104.216 22.3871 103.88 22.8433C103.544 23.2755 103.364 23.7317 103.34 24.212C103.316 24.6682 103.376 25.0524 103.52 25.3645C103.64 25.6527 104.06 25.9888 104.781 26.373C105.525 26.7572 106.413 27.2014 107.446 27.7057C108.502 28.1859 109.631 28.7382 110.831 29.3625C112.032 29.9628 113.137 30.6351 114.145 31.3795C115.178 32.0998 116.042 32.8922 116.738 33.7566C117.459 34.597 117.855 35.4975 117.927 36.458C117.999 37.6826 117.987 38.7871 117.891 39.7716C117.795 40.7561 117.459 41.5965 116.882 42.2928C116.306 42.9892 115.406 43.5414 114.181 43.9496C112.981 44.3578 111.312 44.6099 109.175 44.706C106.966 44.802 105.153 44.682 103.736 44.3458C102.319 44.0097 101.167 43.5534 100.278 42.9771C99.4139 42.4009 98.7656 41.7646 98.3334 41.0682C97.9252 40.3719 97.625 39.7115 97.4329 39.0872C97.2408 38.4389 97.1088 37.8867 97.0367 37.4304C96.9647 36.9502 96.8446 36.6621 96.6766 36.566C96.4845 36.446 96.2924 36.3379 96.1003 36.2419C95.9322 36.1458 95.7521 36.0618 95.56 35.9897C95.3679 35.8937 95.1758 35.8096 94.9837 35.7376L105.465 34.0448C104.865 34.525 104.396 34.9692 104.06 35.3774C103.748 35.7856 103.508 36.1458 103.34 36.458C103.148 36.8181 103.016 37.1543 102.944 37.4665C102.896 37.8026 103.004 38.2228 103.268 38.7271C103.532 39.2313 103.892 39.7236 104.348 40.2038C104.829 40.66 105.381 41.0442 106.005 41.3564C106.629 41.6685 107.278 41.8006 107.95 41.7525C108.79 41.6805 109.475 41.4764 110.003 41.1402C110.531 40.7801 110.928 40.3359 111.192 39.8076C111.48 39.2793 111.648 38.7031 111.696 38.0787C111.744 37.4544 111.684 36.8421 111.516 36.2419C111.372 35.6175 111.132 35.0413 110.795 34.513C110.459 33.9607 110.063 33.5045 109.607 33.1443C109.199 32.8562 108.562 32.5801 107.698 32.3159C106.858 32.0518 105.909 31.7637 104.853 31.4515C103.82 31.1394 102.752 30.7792 101.647 30.371C100.566 29.9628 99.582 29.4585 98.6935 28.8582C97.8291 28.2579 97.1328 27.5496 96.6045 26.7332C96.1003 25.9168 95.9082 24.9323 96.0282 23.7797C96.1243 22.7953 96.4364 21.9789 96.9647 21.3306C97.517 20.6582 98.2013 20.13 99.0177 19.7458C99.8581 19.3376 100.783 19.0374 101.791 18.8453C102.824 18.6532 103.868 18.5452 104.925 18.5212C106.005 18.4732 107.062 18.4852 108.094 18.5572C109.151 18.6292 110.099 18.7133 110.94 18.8093C111.78 18.9054 112.488 19.0014 113.065 19.0975C113.665 19.1695 114.037 19.2175 114.181 19.2415C114.805 19.2896 115.43 19.2775 116.054 19.2055C116.606 19.1575 117.207 19.0494 117.855 18.8814C118.527 18.6893 119.176 18.4011 119.8 18.0169ZM122.501 29.7947C122.621 29.6506 122.693 29.3865 122.717 29.0023C122.765 28.5941 122.861 28.1379 123.005 27.6336C123.174 27.1294 123.45 26.6011 123.834 26.0489C124.218 25.4966 124.842 24.9803 125.707 24.5001C126.547 24.0199 127.364 23.7317 128.156 23.6357C128.948 23.5396 129.705 23.5756 130.425 23.7437C131.145 23.9118 131.818 24.1759 132.442 24.5361C133.09 24.8963 133.679 25.2925 134.207 25.7247C134.567 26.0128 134.855 26.433 135.071 26.9853C135.287 27.5136 135.456 28.1139 135.576 28.7862C135.696 29.4585 135.78 30.1669 135.828 30.9112C135.9 31.6316 135.948 32.3399 135.972 33.0363C135.996 33.7086 136.008 34.3329 136.008 34.9092C136.032 35.4615 136.08 35.9177 136.152 36.2779C136.248 36.8061 136.416 37.2624 136.656 37.6465C136.896 38.0067 137.16 38.3189 137.449 38.583C137.737 38.8231 138.025 39.0152 138.313 39.1593C138.601 39.3033 138.853 39.4114 139.069 39.4834C139.213 39.5555 139.345 39.6035 139.466 39.6275C139.706 39.7236 139.874 39.7236 139.97 39.6275C139.826 39.9637 139.694 40.2518 139.574 40.4919C139.453 40.732 139.357 40.9361 139.285 41.1042C139.189 41.2963 139.105 41.4524 139.033 41.5725C138.961 41.7165 138.877 41.8486 138.781 41.9687C138.709 42.0887 138.613 42.2208 138.493 42.3648C138.373 42.5089 138.253 42.665 138.133 42.8331C137.821 42.713 137.521 42.5689 137.232 42.4009C136.968 42.2328 136.728 42.0767 136.512 41.9326C136.248 41.7646 136.008 41.5965 135.792 41.4284C135.576 41.2603 135.371 41.0682 135.179 40.8521C135.011 40.66 134.831 40.4559 134.639 40.2398C134.471 40.0237 134.327 39.7836 134.207 39.5195C134.063 39.8316 133.715 40.2758 133.162 40.8521C132.634 41.4284 131.938 41.9566 131.073 42.4369C130.209 42.8931 129.2 43.2173 128.048 43.4094C126.919 43.6015 125.671 43.4694 124.302 43.0132C123.702 42.8211 123.138 42.5449 122.609 42.1848C122.081 41.8006 121.625 41.3443 121.241 40.8161C120.88 40.2878 120.616 39.6875 120.448 39.0152C120.304 38.3189 120.316 37.5505 120.484 36.7101C120.652 35.8697 120.952 35.1613 121.385 34.585C121.817 34.0088 122.333 33.5405 122.933 33.1804C123.534 32.8202 124.206 32.544 124.95 32.3519C125.695 32.1599 126.463 32.0278 127.256 31.9558C127.88 31.9317 128.504 31.9678 129.128 32.0638C129.657 32.1599 130.209 32.3399 130.785 32.6041C131.362 32.8442 131.854 33.2164 132.262 33.7206C132.238 32.448 132.19 31.4395 132.118 30.6951C132.07 29.9268 132.022 29.3385 131.974 28.9303C131.878 28.45 131.794 28.1139 131.722 27.9218C131.602 27.7537 131.47 27.5616 131.326 27.3455C131.205 27.1294 131.049 26.9373 130.857 26.7692C130.665 26.5771 130.425 26.421 130.137 26.301C129.849 26.1809 129.513 26.1329 129.128 26.1569C128.72 26.1809 128.396 26.289 128.156 26.4811C127.916 26.6732 127.724 26.9013 127.58 27.1654C127.46 27.4055 127.388 27.6697 127.364 27.9578C127.34 28.2459 127.352 28.4981 127.4 28.7142C127.448 28.8582 127.52 29.0143 127.616 29.1824C127.712 29.3265 127.844 29.4825 128.012 29.6506C128.18 29.8187 128.408 29.9628 128.696 30.0828C128.144 30.1549 127.652 30.2149 127.22 30.2629C126.787 30.2869 126.415 30.323 126.103 30.371C125.743 30.419 125.431 30.455 125.167 30.479C124.902 30.503 124.59 30.5511 124.23 30.6231C123.918 30.6711 123.534 30.7312 123.077 30.8032C122.621 30.8752 122.093 30.9713 121.493 31.0913C121.637 30.9232 121.769 30.7672 121.889 30.6231C122.009 30.455 122.117 30.3109 122.213 30.1909C122.309 30.0468 122.405 29.9148 122.501 29.7947ZM127.904 34.0808C127.472 34.1048 127.039 34.2129 126.607 34.405C126.175 34.573 125.791 34.8252 125.455 35.1613C125.118 35.4735 124.83 35.8457 124.59 36.2779C124.374 36.6861 124.266 37.1423 124.266 37.6465C124.266 38.1508 124.386 38.595 124.626 38.9792C124.89 39.3394 125.227 39.6395 125.635 39.8796C126.067 40.1197 126.523 40.2638 127.003 40.3118C127.508 40.3599 128 40.3118 128.48 40.1678C128.936 39.9997 129.369 39.7356 129.777 39.3754C130.185 38.9912 130.533 38.583 130.821 38.1508C131.109 37.6946 131.314 37.2503 131.434 36.8181C131.554 36.3619 131.566 35.9897 131.47 35.7016C131.277 35.0773 130.845 34.6451 130.173 34.405C129.501 34.1408 128.744 34.0328 127.904 34.0808ZM139.249 18.4131C139.514 18.5332 139.826 18.6172 140.186 18.6652C140.57 18.7133 140.93 18.7373 141.266 18.7373C141.675 18.7373 142.095 18.7253 142.527 18.7013C142.959 18.6773 143.487 18.6292 144.112 18.5572C144.616 18.5092 145.24 18.4491 145.985 18.3771C146.729 18.3051 147.557 18.209 148.47 18.089C148.134 18.257 147.846 18.4371 147.605 18.6292C147.365 18.8213 147.161 19.0134 146.993 19.2055C146.801 19.4216 146.645 19.6377 146.525 19.8538C146.357 20.142 146.129 20.6462 145.841 21.3666C145.576 22.0629 145.3 22.8433 145.012 23.7077C144.748 24.5721 144.508 25.4486 144.292 26.337C144.1 27.2254 143.992 27.9818 143.968 28.6061C143.944 29.1344 143.92 29.7347 143.896 30.407C143.872 30.9833 143.848 31.6916 143.824 32.532C143.8 33.3724 143.776 34.3329 143.752 35.4134C145.48 34.1648 146.813 33.1683 147.75 32.424C148.686 31.6556 149.37 31.0673 149.803 30.6591C150.307 30.2029 150.607 29.8787 150.703 29.6866C150.679 29.5426 150.619 29.3865 150.523 29.2184C150.403 29.0743 150.235 28.9063 150.019 28.7142C149.803 28.5221 149.478 28.306 149.046 28.0658C149.67 28.1379 150.211 28.1859 150.667 28.2099C151.147 28.2339 151.555 28.2579 151.892 28.282C152.276 28.306 152.612 28.306 152.9 28.282C153.212 28.282 153.596 28.2699 154.053 28.2459C154.845 28.2219 156.07 28.1859 157.726 28.1379C156.118 28.9783 154.845 29.6986 153.909 30.2989C153.38 30.6351 152.912 30.9473 152.504 31.2354C152.096 31.5476 151.675 31.8717 151.243 32.2079C150.859 32.496 150.415 32.8322 149.911 33.2164C149.43 33.6006 148.95 34.0088 148.47 34.441C149.31 35.8096 150.043 36.9382 150.667 37.8266C151.315 38.7151 151.856 39.4354 152.288 39.9877C152.792 40.636 153.236 41.1523 153.62 41.5364C154.005 41.8966 154.509 42.3048 155.133 42.761C155.661 43.1692 156.346 43.6495 157.186 44.2017C158.051 44.73 159.095 45.3423 160.32 46.0386C159.695 45.9186 159.095 45.8345 158.519 45.7865C157.943 45.7625 157.45 45.7625 157.042 45.7865C156.538 45.8105 156.082 45.8586 155.673 45.9306C155.241 46.0266 154.761 46.1467 154.233 46.2908C153.777 46.4108 153.236 46.5669 152.612 46.759C152.012 46.9751 151.351 47.2512 150.631 47.5874C151.087 47.2512 151.423 46.9271 151.639 46.6149C151.88 46.3268 152.048 46.0867 152.144 45.8946C152.24 45.6545 152.276 45.4504 152.252 45.2823C152.132 45.0422 151.856 44.5499 151.423 43.8056C151.015 43.1812 150.415 42.2688 149.622 41.0682C148.83 39.8676 147.702 38.2348 146.237 36.1698C146.165 36.1938 146.045 36.2659 145.877 36.3859C145.733 36.506 145.516 36.6741 145.228 36.8902C144.94 37.0823 144.556 37.3704 144.076 37.7546L145.048 44.0577C144.832 44.1537 144.592 44.2378 144.328 44.3098C144.088 44.3818 143.86 44.4419 143.644 44.4899C143.379 44.5619 143.115 44.6099 142.851 44.634C142.587 44.658 142.275 44.706 141.915 44.778C141.603 44.8261 141.23 44.8861 140.798 44.9581C140.366 45.0542 139.874 45.1622 139.321 45.2823C139.634 45.0662 139.886 44.814 140.078 44.5259C140.27 44.2618 140.426 44.0097 140.546 43.7695C140.666 43.5054 140.774 43.2293 140.87 42.9411C140.918 42.701 140.966 42.0767 141.014 41.0682C141.086 40.0597 141.146 38.8591 141.194 37.4665C141.242 36.0498 141.278 34.537 141.302 32.9282C141.35 31.3194 141.374 29.8067 141.374 28.39C141.374 26.9493 141.362 25.7007 141.338 24.6442C141.314 23.5636 141.266 22.8673 141.194 22.5551C141.074 22.171 140.93 21.7628 140.762 21.3306C140.618 20.9464 140.414 20.5142 140.15 20.0339C139.91 19.5297 139.61 18.9894 139.249 18.4131ZM156.61 27.8137C157.234 27.9338 157.774 28.0298 158.231 28.1019C158.711 28.1499 159.119 28.1979 159.455 28.2459C159.839 28.294 160.176 28.33 160.464 28.354C160.752 28.378 161.088 28.402 161.472 28.426C162.121 28.45 163.033 28.45 164.21 28.426C163.513 28.378 162.961 28.5581 162.553 28.9663C162.169 29.3505 161.88 29.7947 161.688 30.2989C161.448 30.8992 161.316 31.5956 161.292 32.388C161.244 33.4445 161.268 34.405 161.364 35.2694C161.484 36.1098 161.688 36.8301 161.977 37.4304C162.289 38.0067 162.697 38.4389 163.201 38.7271C163.705 38.9912 164.354 39.0632 165.146 38.9432C165.938 38.8231 166.539 38.547 166.947 38.1148C167.379 37.6585 167.691 37.1063 167.883 36.458C168.076 35.7856 168.184 35.0293 168.208 34.1888C168.256 33.3484 168.292 32.472 168.316 31.5596C168.316 30.6471 168.304 29.9988 168.28 29.6146C168.28 29.2064 168.268 28.9423 168.244 28.8222C168.22 28.7022 168.184 28.6541 168.136 28.6781C168.088 28.6781 168.027 28.6181 167.955 28.4981C167.907 28.402 167.835 28.306 167.739 28.2099C167.667 28.1139 167.571 28.0058 167.451 27.8858C167.331 27.7417 167.199 27.5976 167.055 27.4535C167.679 27.4776 168.232 27.5016 168.712 27.5256C169.216 27.5256 169.636 27.5376 169.972 27.5616C170.357 27.5856 170.693 27.6096 170.981 27.6336C171.245 27.6576 171.593 27.6937 172.025 27.7417C172.386 27.7897 172.854 27.8377 173.43 27.8858C174.006 27.9338 174.691 28.0058 175.483 28.1019C174.931 28.2219 174.487 28.402 174.15 28.6421C173.814 28.8822 173.55 29.1224 173.358 29.3625C173.142 29.6266 172.986 29.9148 172.89 30.2269C172.818 30.6351 172.818 31.2594 172.89 32.0998C172.938 32.8442 173.058 33.8647 173.25 35.1613C173.442 36.458 173.742 38.1628 174.15 40.2758L171.305 41.9687L170.729 37.1783C170.032 38.3549 169.288 39.2673 168.496 39.9156C167.727 40.54 167.007 40.9962 166.335 41.2843C165.542 41.6205 164.774 41.8126 164.03 41.8606C163.045 41.8606 162.193 41.8006 161.472 41.6805C160.776 41.5364 160.176 41.3564 159.671 41.1402C159.167 40.9241 158.759 40.684 158.447 40.4199C158.159 40.1318 157.943 39.8436 157.798 39.5555C157.462 38.9552 157.282 38.1868 157.258 37.2503C157.234 36.2899 157.27 35.3414 157.366 34.405C157.462 33.4445 157.57 32.5681 157.69 31.7757C157.81 30.9833 157.846 30.443 157.798 30.1549C157.75 29.9388 157.678 29.6986 157.582 29.4345C157.486 29.2184 157.366 28.9783 157.222 28.7142C157.078 28.426 156.874 28.1259 156.61 27.8137ZM175.663 27.1294C176.119 27.1534 176.528 27.1654 176.888 27.1654C177.272 27.1414 177.596 27.1174 177.86 27.0934C178.172 27.0694 178.449 27.0453 178.689 27.0213C179.049 26.9733 179.421 26.9133 179.805 26.8412C180.141 26.7932 180.49 26.7332 180.85 26.6612C181.234 26.5651 181.606 26.4571 181.966 26.337C181.822 26.6972 181.702 27.0093 181.606 27.2735C181.51 27.5376 181.438 27.7657 181.39 27.9578C181.318 28.1739 181.282 28.354 181.282 28.4981C181.258 28.6661 181.246 28.8702 181.246 29.1104C181.222 29.5186 181.222 30.1789 181.246 31.0913C182.495 30.0108 183.539 29.1704 184.379 28.5701C185.244 27.9698 185.928 27.5016 186.432 27.1654C187.033 26.7812 187.501 26.5291 187.837 26.409C188.726 26.265 189.506 26.4691 190.178 27.0213C190.466 27.2615 190.743 27.5856 191.007 27.9938C191.271 28.378 191.499 28.8943 191.691 29.5426C191.883 30.1909 192.027 30.9713 192.123 31.8837C192.219 32.7722 192.231 33.8407 192.159 35.0893C191.655 35.1373 191.199 35.1853 190.791 35.2334C190.406 35.2814 190.082 35.3174 189.818 35.3414C189.506 35.3894 189.218 35.4134 188.954 35.4134L187.981 35.5215C187.645 35.5695 187.225 35.6175 186.721 35.6656C186.24 35.6896 185.652 35.7376 184.956 35.8096C185.964 34.9932 186.613 34.2849 186.901 33.6846C187.213 33.0603 187.345 32.544 187.297 32.1358C187.249 31.6796 187.033 31.2834 186.649 30.9473C186.192 30.6831 185.7 30.5871 185.172 30.6591C184.716 30.7071 184.187 30.9112 183.587 31.2714C182.987 31.6316 182.351 32.3039 181.678 33.2884C181.726 34.8252 181.774 36.0978 181.822 37.1063C181.894 38.1148 181.954 38.9312 182.002 39.5555C182.074 40.2758 182.134 40.8401 182.182 41.2483C182.254 41.6085 182.399 41.9927 182.615 42.4009C182.783 42.737 183.023 43.1092 183.335 43.5174C183.647 43.9256 184.055 44.3338 184.56 44.742C183.503 44.694 182.639 44.694 181.966 44.742C181.558 44.766 181.198 44.79 180.886 44.814C180.55 44.8621 180.189 44.9101 179.805 44.9581C179.469 45.0061 179.073 45.0542 178.617 45.1022C178.184 45.1742 177.704 45.2463 177.176 45.3183C177.368 45.0542 177.524 44.742 177.644 44.3818C177.764 44.0457 177.86 43.7215 177.932 43.4094C178.028 43.0492 178.1 42.677 178.148 42.2928C178.172 41.9566 178.184 41.4524 178.184 40.7801C178.208 40.1077 178.196 39.3514 178.148 38.511C178.124 37.6465 178.088 36.7581 178.04 35.8457C177.992 34.9092 177.932 34.0328 177.86 33.2164C177.788 32.4 177.704 31.6916 177.608 31.0913C177.536 30.467 177.452 30.0348 177.356 29.7947C177.236 29.5066 177.092 29.2184 176.924 28.9303C176.78 28.6661 176.6 28.39 176.384 28.1019C176.167 27.7897 175.927 27.4656 175.663 27.1294ZM196.373 29.7947C196.493 29.6506 196.565 29.3865 196.589 29.0023C196.637 28.5941 196.734 28.1379 196.878 27.6336C197.046 27.1294 197.322 26.6011 197.706 26.0489C198.09 25.4966 198.715 24.9803 199.579 24.5001C200.419 24.0199 201.236 23.7317 202.028 23.6357C202.821 23.5396 203.577 23.5756 204.297 23.7437C205.018 23.9118 205.69 24.1759 206.314 24.5361C206.963 24.8963 207.551 25.2925 208.079 25.7247C208.439 26.0128 208.727 26.433 208.944 26.9853C209.16 27.5136 209.328 28.1139 209.448 28.7862C209.568 29.4585 209.652 30.1669 209.7 30.9112C209.772 31.6316 209.82 32.3399 209.844 33.0363C209.868 33.7086 209.88 34.3329 209.88 34.9092C209.904 35.4615 209.952 35.9177 210.024 36.2779C210.12 36.8061 210.288 37.2624 210.528 37.6465C210.768 38.0067 211.033 38.3189 211.321 38.583C211.609 38.8231 211.897 39.0152 212.185 39.1593C212.473 39.3033 212.725 39.4114 212.941 39.4834C213.086 39.5555 213.218 39.6035 213.338 39.6275C213.578 39.7236 213.746 39.7236 213.842 39.6275C213.698 39.9637 213.566 40.2518 213.446 40.4919C213.326 40.732 213.23 40.9361 213.158 41.1042C213.062 41.2963 212.977 41.4524 212.905 41.5725C212.833 41.7165 212.749 41.8486 212.653 41.9687C212.581 42.0887 212.485 42.2208 212.365 42.3648C212.245 42.5089 212.125 42.665 212.005 42.8331C211.693 42.713 211.393 42.5689 211.105 42.4009C210.84 42.2328 210.6 42.0767 210.384 41.9326C210.12 41.7646 209.88 41.5965 209.664 41.4284C209.448 41.2603 209.244 41.0682 209.052 40.8521C208.883 40.66 208.703 40.4559 208.511 40.2398C208.343 40.0237 208.199 39.7836 208.079 39.5195C207.935 39.8316 207.587 40.2758 207.035 40.8521C206.506 41.4284 205.81 41.9566 204.946 42.4369C204.081 42.8931 203.073 43.2173 201.92 43.4094C200.792 43.6015 199.543 43.4694 198.174 43.0132C197.574 42.8211 197.01 42.5449 196.481 42.1848C195.953 41.8006 195.497 41.3443 195.113 40.8161C194.753 40.2878 194.488 39.6875 194.32 39.0152C194.176 38.3189 194.188 37.5505 194.356 36.7101C194.524 35.8697 194.825 35.1613 195.257 34.585C195.689 34.0088 196.205 33.5405 196.806 33.1804C197.406 32.8202 198.078 32.544 198.823 32.3519C199.567 32.1599 200.335 32.0278 201.128 31.9558C201.752 31.9317 202.376 31.9678 203.001 32.0638C203.529 32.1599 204.081 32.3399 204.657 32.6041C205.234 32.8442 205.726 33.2164 206.134 33.7206C206.11 32.448 206.062 31.4395 205.99 30.6951C205.942 29.9268 205.894 29.3385 205.846 28.9303C205.75 28.45 205.666 28.1139 205.594 27.9218C205.474 27.7537 205.342 27.5616 205.198 27.3455C205.078 27.1294 204.922 26.9373 204.729 26.7692C204.537 26.5771 204.297 26.421 204.009 26.301C203.721 26.1809 203.385 26.1329 203.001 26.1569C202.592 26.1809 202.268 26.289 202.028 26.4811C201.788 26.6732 201.596 26.9013 201.452 27.1654C201.332 27.4055 201.26 27.6697 201.236 27.9578C201.212 28.2459 201.224 28.4981 201.272 28.7142C201.32 28.8582 201.392 29.0143 201.488 29.1824C201.584 29.3265 201.716 29.4825 201.884 29.6506C202.052 29.8187 202.28 29.9628 202.568 30.0828C202.016 30.1549 201.524 30.2149 201.092 30.2629C200.659 30.2869 200.287 30.323 199.975 30.371C199.615 30.419 199.303 30.455 199.039 30.479C198.775 30.503 198.462 30.5511 198.102 30.6231C197.79 30.6711 197.406 30.7312 196.95 30.8032C196.493 30.8752 195.965 30.9713 195.365 31.0913C195.509 30.9232 195.641 30.7672 195.761 30.6231C195.881 30.455 195.989 30.3109 196.085 30.1909C196.181 30.0468 196.277 29.9148 196.373 29.7947ZM201.776 34.0808C201.344 34.1048 200.912 34.2129 200.479 34.405C200.047 34.573 199.663 34.8252 199.327 35.1613C198.991 35.4735 198.703 35.8457 198.462 36.2779C198.246 36.6861 198.138 37.1423 198.138 37.6465C198.138 38.1508 198.258 38.595 198.498 38.9792C198.763 39.3394 199.099 39.6395 199.507 39.8796C199.939 40.1197 200.395 40.2638 200.876 40.3118C201.38 40.3599 201.872 40.3118 202.352 40.1678C202.809 39.9997 203.241 39.7356 203.649 39.3754C204.057 38.9912 204.405 38.583 204.693 38.1508C204.982 37.6946 205.186 37.2503 205.306 36.8181C205.426 36.3619 205.438 35.9897 205.342 35.7016C205.15 35.0773 204.717 34.6451 204.045 34.405C203.373 34.1408 202.616 34.0328 201.776 34.0808Z" fill="black"/>
</svg>
