<?xml version="1.0" standalone="no"?>
<!DOCTYPE svg PUBLIC "-//W3C//DTD SVG 20010904//EN"
 "http://www.w3.org/TR/2001/REC-SVG-20010904/DTD/svg10.dtd">
<svg version="1.0" xmlns="http://www.w3.org/2000/svg"
 width="64.000000pt" height="64.000000pt" viewBox="0 0 64.000000 64.000000"
 preserveAspectRatio="xMidYMid meet">

<g transform="translate(0.000000,64.000000) scale(0.100000,-0.100000)"
fill="#000000" stroke="none">
<path d="M120 560 c-19 -19 -20 -33 -20 -210 0 -236 -4 -230 130 -230 80 0 90
-2 90 -18 0 -29 21 -42 70 -42 49 0 70 13 70 42 0 11 7 18 20 18 11 0 29 9 40
20 18 18 20 33 20 185 l0 166 -46 44 -46 45 -154 0 c-141 0 -156 -2 -174 -20z
m60 -48 c0 -26 5 -53 12 -60 17 -17 242 -17 256 1 6 7 12 30 14 52 l3 40 28
-29 27 -29 -2 -171 -3 -171 -27 -3 -28 -3 0 76 c0 76 -20 138 -52 161 -17 12
-228 6 -228 -7 0 -5 38 -9 85 -9 50 0 85 -4 85 -10 0 -6 -31 -10 -73 -10 -43
0 -78 -5 -85 -12 -8 -8 -12 -45 -12 -101 l0 -88 -27 3 -28 3 -3 195 c-1 107 0
200 2 207 3 7 17 13 31 13 23 0 25 -3 25 -48z m40 -2 c0 -27 -4 -50 -10 -50
-5 0 -10 23 -10 50 0 28 5 50 10 50 6 0 10 -22 10 -50z m180 0 l0 -50 -80 0
-80 0 0 50 0 50 80 0 80 0 0 -50z m40 0 c0 -27 -4 -50 -10 -50 -5 0 -10 23
-10 50 0 28 5 50 10 50 6 0 10 -22 10 -50z m-32 -158 c2 -7 -6 -12 -17 -12
-21 0 -27 11 -14 24 9 9 26 2 31 -12z m26 -39 c10 -24 -3 -33 -44 -33 -41 0
-54 9 -44 33 3 9 19 14 44 14 25 0 41 -5 44 -14z m-132 -22 c-39 -36 -39 -45
-7 -75 14 -13 25 -26 25 -30 0 -3 -27 -6 -60 -6 l-60 0 0 70 0 70 67 0 67 0
-32 -29z m18 -41 c0 -16 -5 -30 -10 -30 -14 0 -24 26 -16 45 10 26 26 16 26
-15z m40 -55 l0 -75 30 0 30 0 0 75 c0 43 4 75 10 75 6 0 10 -38 10 -95 l0
-95 -50 0 -50 0 0 95 c0 57 4 95 10 95 6 0 10 -32 10 -75z m40 5 c0 -33 -4
-60 -10 -60 -6 0 -10 27 -10 60 0 33 4 60 10 60 6 0 10 -27 10 -60z m-80 -50
c0 -6 -27 -10 -60 -10 -33 0 -60 4 -60 10 0 6 27 10 60 10 33 0 60 -4 60 -10z"/>
<path d="M180 410 c0 -6 53 -10 140 -10 87 0 140 4 140 10 0 6 -53 10 -140 10
-87 0 -140 -4 -140 -10z"/>
</g>
</svg>
