<?xml version="1.0" standalone="no"?>
<!DOCTYPE svg PUBLIC "-//W3C//DTD SVG 20010904//EN"
 "http://www.w3.org/TR/2001/REC-SVG-20010904/DTD/svg10.dtd">
<svg version="1.0" xmlns="http://www.w3.org/2000/svg"
 width="50.000000pt" height="50.000000pt" viewBox="0 0 50.000000 50.000000"
 preserveAspectRatio="xMidYMid meet">

<g transform="translate(0.000000,50.000000) scale(0.100000,-0.100000)"
fill="#000000" stroke="none">
<path d="M216 464 c-9 -8 -16 -26 -16 -40 0 -28 -16 -31 -48 -8 -46 32 -101
-21 -68 -67 23 -33 20 -49 -8 -49 -29 0 -56 -24 -56 -50 0 -26 27 -50 56 -50
28 0 31 -16 8 -49 -33 -46 22 -99 68 -67 32 23 48 20 48 -8 0 -29 24 -56 50
-56 26 0 50 27 50 56 0 28 16 31 48 8 46 -32 101 21 68 67 -23 33 -20 49 8 49
29 0 56 24 56 50 0 26 -27 50 -56 50 -28 0 -31 16 -8 49 33 46 -22 99 -68 67
-32 -23 -48 -20 -48 8 0 29 -24 56 -50 56 -10 0 -26 -7 -34 -16z m95 -153 c16
-16 29 -34 29 -40 0 -18 -36 -12 -55 9 -10 11 -26 20 -35 20 -9 0 -25 -9 -35
-20 -19 -21 -55 -27 -55 -9 0 24 59 69 90 69 22 0 41 -9 61 -29z m-36 -61 c0
-18 -6 -26 -23 -28 -13 -2 -25 3 -28 12 -10 26 4 48 28 44 17 -2 23 -10 23
-28z m-60 -30 c10 -11 26 -20 35 -20 9 0 25 9 35 20 19 21 55 27 55 9 0 -24
-59 -69 -90 -69 -31 0 -90 45 -90 69 0 18 36 12 55 -9z"/>
</g>
</svg>
