<?xml version="1.0" encoding="utf-8" standalone="no"?>
<!DOCTYPE svg PUBLIC "-//W3C//DTD SVG 20010904//EN" "http://www.w3.org/TR/2001/REC-SVG-20010904/DTD/svg10.dtd"[]>
<svg version="1.0" xmlns="http://www.w3.org/2000/svg" width="812.12" height="801.83997" viewBox="113.08 113.08 812.12 801.83997" preserveAspectRatio="xMidYMid meet">
  <g transform="translate(0.000000,1028.000000) scale(0.100000,-0.100000)" fill="#000000" stroke="none">
    <path d="M0 5140 l0 -5140 5140 0 5140 0 0 5140 0 5140 -5140 0 -5140 0 0 -5140z m10250 0 l0 -5110 -5110 0 -5110 0 0 5110 0 5110 5110 0 5110 0 0 -5110z" />
    <path d="M1310 5140 l0 -3830 3830 0 3830 0 0 3830 0 3830 -3830 0 -3830 0 0 -3830z m7460 0 l0 -3630 -3630 0 -3630 0 0 3630 0 3630 3630 0 3630 0 0 -3630z" />
    <path d="M4283 8496 c-98 -107 -203 -284 -273 -461 -39 -99 -39 -105 8 -105 50 -1 192 -33 284 -64 41 -14 78 -26 82 -26 5 0 5 11 2 26 -23 91 -39 250 -44 453 l-7 234 -52 -57z" />
    <path d="M5100 8395 c0 -4 16 -44 37 -89 108 -241 292 -517 476 -716 109 -118 100 -38 -25 210 -86 170 -175 295 -308 433 -101 105 -180 176 -180 162z" />
    <path d="M6092 8368 c24 -37 226 -213 323 -283 50 -35 135 -91 190 -124 85 -50 114 -62 188 -76 49 -9 91 -15 93 -12 6 6 -134 129 -228 200 -99 75 -236 161 -339 212 -73 38 -226 105 -236 105 -3 0 1 -10 9 -22z" />
    <path d="M3945 8258 c-86 -92 -202 -240 -244 -309 l-21 -36 42 7 c24 4 78 11 120 15 l78 7 10 41 c28 109 52 190 80 272 16 49 28 90 26 92 -2 2 -43 -38 -91 -89z" />
    <path d="M3535 8265 c-53 -75 -123 -203 -155 -284 -28 -72 -71 -223 -66 -229 3 -2 17 5 33 16 15 10 47 29 71 41 33 17 42 27 42 47 0 50 52 259 90 364 22 57 37 106 36 108 -2 1 -25 -27 -51 -63z" />
    <path d="M5654 8315 c87 -219 137 -413 171 -667 6 -45 7 -47 31 -38 14 6 52 28 86 51 83 57 171 106 246 138 l62 28 -92 65 c-123 87 -226 173 -382 321 -72 67 -126 113 -122 102z" />
    <path d="M4446 8150 c6 -72 40 -288 52 -335 7 -24 25 -40 98 -81 86 -50 89 -53 92 -90 3 -38 4 -40 62 -56 32 -10 73 -30 91 -45 25 -21 16 -5 -32 57 -104 134 -197 282 -286 455 l-82 160 5 -65z" />
    <path d="M3200 8035 c-34 -53 -84 -142 -111 -198 -79 -167 -151 -407 -121 -407 7 0 10 -11 7 -27 -3 -16 6 -59 18 -98 l23 -70 23 70 c37 111 76 189 115 232 40 45 50 81 17 64 -10 -6 -56 -46 -102 -88 l-84 -78 63 71 c34 40 79 87 100 106 l39 35 6 114 c6 109 43 293 68 341 6 11 9 22 6 24 -2 3 -32 -38 -67 -91z" />
    <path d="M7241 8073 c102 -263 208 -575 253 -743 14 -51 29 -97 33 -100 5 -4 23 -12 41 -18 33 -11 33 -11 52 31 11 23 20 62 20 87 0 88 -49 319 -90 417 l-19 48 4 -135 c10 -276 12 -364 8 -335 -29 201 -85 389 -159 538 -41 81 -139 237 -149 237 -3 0 0 -12 6 -27z" />
    <path d="M6361 8006 c11 -19 37 -54 57 -77 l37 -41 73 7 72 7 -69 33 c-39 19 -95 50 -126 69 -30 20 -57 36 -60 36 -2 0 5 -16 16 -34z" />
    <path d="M7124 7843 c20 -60 26 -69 62 -84 42 -19 42 -25 0 -9 -32 12 -33 4 -5 -78 17 -50 25 -62 42 -62 12 -1 46 -9 75 -19 l52 -18 -17 26 c-66 103 -87 131 -96 131 -6 0 -7 3 -4 6 6 6 -106 158 -124 170 -4 2 2 -26 15 -63z" />
    <path d="M3737 7854 c-48 -7 -92 -16 -96 -19 -11 -6 -81 -172 -81 -190 0 -9 11 -12 38 -9 20 2 90 6 155 10 64 3 117 7 117 7 3 10 29 186 30 200 0 21 -35 21 -163 1z" />
    <path d="M3947 7843 c-4 -15 -15 -65 -26 -110 l-19 -83 223 0 c122 0 244 -3 270 -7 l48 -6 -6 32 c-14 70 -28 84 -112 118 -88 36 -217 68 -311 78 -61 7 -61 7 -67 -22z" />
    <path d="M6516 7841 c-8 -12 86 -86 186 -146 l80 -49 149 -10 c82 -6 149 -9 149 -6 0 3 -30 46 -68 95 -53 70 -74 91 -101 98 -22 5 -36 5 -40 -2 -5 -7 -28 -3 -70 9 -67 21 -274 29 -285 11z" />
    <path d="M6220 7771 c-71 -31 -170 -88 -210 -122 l-25 -21 25 7 c14 3 143 9 287 12 l262 6 -134 74 c-75 40 -136 73 -138 72 -1 0 -31 -13 -67 -28z" />
    <path d="M3365 7727 c-52 -28 -61 -37 -68 -70 -5 -21 -7 -40 -4 -43 3 -3 37 -2 76 2 l71 7 0 46 c0 25 3 56 6 69 9 30 -8 28 -81 -11z" />
    <path d="M4540 7663 c1 -21 20 -34 56 -39 l39 -6 -44 26 c-47 28 -51 30 -51 19z" />
    <path d="M3885 7549 c-3 -19 -10 -56 -14 -84 -8 -49 -9 -48 -10 29 l-1 79 -162 -7 c-89 -3 -163 -8 -165 -10 -10 -10 -35 -180 -41 -283 l-8 -118 -12 65 c-6 36 -17 125 -24 198 l-12 133 -38 -5 c-21 -4 -57 -9 -80 -12 l-41 -6 5 -167 6 -166 -33 100 c-18 55 -36 122 -40 148 l-7 49 -25 -24 c-14 -13 -35 -41 -48 -63 -29 -50 -85 -208 -85 -240 0 -44 151 -371 257 -558 24 -44 42 -81 40 -84 -10 -9 -117 67 -175 123 l-57 55 -44 -12 -43 -12 6 -49 c4 -27 17 -76 29 -111 l22 -62 65 -5 c79 -6 141 -38 230 -118 54 -49 67 -69 98 -147 37 -88 38 -89 82 -102 130 -39 331 -52 475 -32 501 69 849 395 904 843 10 84 10 91 -9 108 -24 23 -26 55 -4 80 16 16 16 25 0 124 -34 226 -106 303 -313 338 l-32 5 11 -32 c18 -54 124 -273 179 -368 28 -50 49 -92 46 -95 -9 -9 -149 159 -207 248 -32 49 -75 127 -96 173 -31 66 -44 85 -64 89 -14 3 -145 8 -292 12 l-266 7 -7 -34z" />
    <path d="M6130 7554 c-163 -18 -230 -27 -261 -35 l-37 -9 5 -68 c6 -78 8 -80 125 -173 l86 -69 56 58 c112 117 253 176 421 176 117 0 218 -30 313 -90 219 -141 320 -423 238 -669 -114 -341 -488 -499 -813 -344 -50 23 -90 54 -149 113 -122 122 -175 247 -173 411 0 69 20 175 43 225 5 13 -10 20 -78 36 l-85 21 -8 -31 -7 -31 -6 35 c-5 33 -8 36 -98 68 -51 19 -95 32 -97 30 -3 -3 -8 -26 -11 -51 -6 -43 -4 -49 20 -68 39 -30 36 -77 -5 -92 l-31 -12 6 -70 c39 -418 317 -720 775 -843 86 -23 115 -25 286 -26 167 -1 201 2 280 22 132 34 154 47 193 117 43 77 65 100 121 127 25 12 67 38 92 58 26 20 60 42 77 49 32 14 59 67 83 163 22 90 -9 101 -102 37 -33 -22 -62 -39 -64 -37 -2 1 40 98 92 213 94 207 95 211 90 270 -6 67 -73 265 -111 329 -32 54 -83 101 -125 115 -19 6 -35 10 -37 9 -1 -2 13 -66 32 -143 34 -142 41 -190 22 -145 -6 14 -40 86 -76 161 l-64 136 -51 7 c-29 3 -65 6 -82 6 -29 -1 -29 -1 -11 -15 28 -21 7 -19 -84 7 -69 19 -103 21 -415 23 -187 2 -356 1 -375 -1z m-50 -209 l0 -45 -47 0 -47 0 44 45 c24 25 45 45 47 45 2 0 3 -20 3 -45z m938 -47 c-50 -11 -58 -4 -58 49 l0 47 45 -44 46 -45 -33 -7z m-938 -933 c0 -25 -1 -45 -3 -45 -2 0 -23 20 -47 45 l-44 45 47 0 47 0 0 -45z m961 28 c-5 -10 -25 -34 -45 -52 l-36 -35 0 52 0 52 45 0 c41 0 45 -2 36 -17z" />
    <path d="M5031 7533 c102 -124 318 -354 360 -384 15 -10 54 -23 88 -27 68 -10 64 -13 75 68 l7 45 -88 44 c-110 54 -231 126 -350 208 -96 65 -116 75 -92 46z" />
    <path d="M4926 7421 c13 -33 33 -114 43 -181 10 -66 20 -123 23 -125 3 -3 40 -1 84 5 43 5 110 12 147 16 l68 6 -87 65 c-47 36 -135 112 -194 169 l-108 105 24 -60z" />
    <path d="M6442 7388 c-71 -10 -142 -36 -204 -74 -45 -27 -148 -123 -148 -136 0 -4 25 -24 55 -44 l56 -37 27 26 28 27 21 -21 c18 -18 23 -19 42 -7 15 9 20 19 16 33 -14 44 -10 48 55 72 36 12 82 23 103 23 34 0 37 -2 37 -29 0 -25 4 -29 38 -35 59 -9 70 -7 77 14 8 27 29 25 82 -5 47 -28 49 -31 28 -59 -12 -16 -10 -23 24 -66 21 -26 43 -62 51 -79 12 -30 16 -32 46 -27 l32 7 7 -56 c13 -97 -17 -227 -66 -289 -19 -25 -21 -25 -45 -9 -24 15 -26 15 -51 -9 -21 -21 -23 -29 -14 -46 6 -11 11 -25 11 -30 0 -18 -125 -66 -182 -70 l-58 -4 0 31 c0 29 -3 31 -35 31 -29 0 -36 -4 -41 -25 -8 -30 -12 -31 -75 -4 -52 23 -56 28 -37 59 11 17 8 24 -23 52 -20 18 -48 52 -64 76 -20 30 -33 41 -44 36 -9 -3 -21 -8 -27 -10 -11 -5 -27 45 -39 118 -5 36 -5 37 27 40 27 2 34 8 36 30 3 22 -2 27 -28 33 -34 8 -34 12 1 94 11 24 17 46 15 48 -2 3 -35 9 -73 13 -77 10 -75 11 -98 -65 -59 -195 -4 -405 142 -547 113 -108 222 -152 378 -152 118 1 190 22 291 85 114 72 207 206 234 336 17 81 8 224 -18 298 -88 242 -334 390 -590 353z" />
    <path d="M6453 7136 c-181 -44 -274 -246 -190 -413 51 -100 147 -158 262 -157 85 1 128 18 190 75 73 67 90 107 90 214 0 80 -3 95 -27 136 -69 118 -199 176 -325 145z m110 -201 c17 -11 37 -31 44 -45 8 -16 24 -27 45 -31 l33 -6 -30 -2 c-24 -1 -35 -9 -49 -35 -10 -19 -31 -40 -47 -46 -23 -10 -29 -19 -30 -44 l-1 -31 -7 28 c-3 16 -19 35 -38 47 -18 10 -39 33 -47 49 -12 22 -25 31 -48 34 l-33 4 35 1 c30 2 38 7 47 32 7 18 25 36 47 47 29 13 36 23 38 47 l1 31 4 -30 c3 -20 15 -37 36 -50z" />
    <path d="M5120 7004 c-19 -2 -59 -7 -87 -10 -52 -5 -53 -6 -53 -39 0 -49 -25 -171 -50 -245 -130 -377 -484 -634 -937 -682 -124 -13 -286 -2 -397 28 -32 8 -61 13 -64 9 -9 -9 121 -263 183 -354 31 -46 54 -85 52 -88 -10 -9 -107 22 -182 58 -106 52 -194 119 -296 227 -90 95 -136 164 -176 263 -20 51 -25 79 -25 151 0 65 -3 88 -12 88 -19 0 -87 -48 -113 -79 -22 -26 -22 -26 -16 -2 6 25 66 91 97 108 19 10 19 12 -2 64 -12 30 -27 75 -33 102 -6 26 -14 47 -18 47 -15 0 -71 -67 -85 -102 -20 -47 -20 -161 -2 -248 108 -506 627 -950 1111 -950 72 0 73 0 176 -65 110 -69 419 -229 504 -260 28 -10 55 -23 60 -29 6 -6 17 -12 25 -12 8 -1 92 -32 185 -70 156 -62 177 -69 256 -72 84 -4 88 -3 235 53 181 70 395 167 779 353 311 151 309 150 552 182 171 23 258 46 355 97 170 89 370 313 478 538 61 125 83 207 83 310 0 67 -4 88 -25 130 -27 51 -61 89 -110 120 -34 21 -44 15 -52 -32 -3 -21 -17 -64 -30 -95 l-24 -58 37 0 c49 0 105 -17 133 -39 23 -19 22 -19 -42 -4 -87 20 -143 11 -170 -27 -20 -28 -20 -29 0 -35 34 -11 60 -54 60 -99 0 -32 -12 -63 -51 -131 -170 -296 -352 -432 -615 -460 -79 -9 -81 -21 18 98 58 70 163 223 213 309 l27 47 -57 -19 c-119 -41 -204 -53 -365 -53 -217 0 -401 43 -570 134 -302 163 -482 422 -529 763 -5 37 -12 70 -14 73 -6 6 -374 12 -417 7z m73 -554 c-5 -36 -4 -40 17 -40 60 0 166 -102 144 -138 -24 -37 -83 -74 -126 -79 -40 -5 -48 -2 -81 30 -43 40 -47 71 -18 144 18 46 59 123 66 123 2 0 1 -18 -2 -40z m537 -665 c0 -10 -10 -15 -27 -15 -16 0 -210 -14 -431 -30 -471 -35 -440 -34 -424 -18 8 8 158 23 435 44 232 17 428 32 435 33 6 0 12 -6 12 -14z" />
    <path d="M5744 4939 l1 -42 -200 -108 -200 -109 -99 0 -99 0 -197 90 -197 91 5 54 c2 30 2 55 -1 55 -3 0 -18 -32 -33 -71 -16 -39 -30 -66 -32 -59 -3 7 -52 -36 -116 -102 -61 -63 -121 -121 -134 -129 -25 -16 -69 -156 -167 -535 -55 -211 -66 -295 -42 -327 12 -16 306 -182 311 -175 2 2 10 58 19 125 9 67 19 128 23 136 4 12 -4 13 -45 9 -39 -3 -51 -1 -51 9 0 33 53 208 85 283 l36 81 -47 92 c-34 68 -47 107 -51 152 l-6 61 86 0 86 0 4 33 4 32 1 -31 2 -31 83 -6 c106 -7 175 -29 233 -74 l48 -36 38 44 c38 45 45 73 29 128 l-6 24 -36 -34 c-19 -19 -43 -45 -52 -58 -9 -14 -19 -22 -22 -19 -9 9 61 92 102 121 37 25 46 27 148 27 l109 0 53 -57 c71 -76 89 -111 26 -50 -27 26 -52 47 -55 47 -3 0 -14 -21 -24 -46 l-17 -45 59 -60 58 -59 46 43 c76 73 135 99 263 117 39 6 75 16 79 23 5 8 8 8 8 1 0 -7 31 -14 79 -18 l78 -7 -13 -72 c-18 -93 -39 -157 -80 -239 -33 -65 -33 -67 -15 -90 46 -58 96 -164 115 -240 6 -27 5 -28 -34 -28 -22 0 -40 -3 -40 -7 0 -5 5 -27 10 -49 5 -23 14 -83 20 -135 6 -51 12 -95 14 -96 3 -4 119 58 257 136 59 33 69 49 69 109 0 39 -69 316 -145 583 -44 156 -60 197 -78 208 -12 8 -81 74 -153 147 -72 74 -133 134 -136 134 -4 0 -4 -10 -1 -22 2 -13 -7 4 -21 36 -33 78 -43 86 -42 35z m73 -121 c-3 -8 -6 -5 -6 6 -1 11 2 17 5 13 3 -3 4 -12 1 -19z m-1147 -78 c-7 -52 -7 -53 -9 -13 -1 36 7 80 14 71 1 -2 -1 -28 -5 -58z m1169 10 c0 -9 -4 -8 -9 5 -5 11 -9 27 -9 35 0 9 4 8 9 -5 5 -11 9 -27 9 -35z m20 -70 c0 -9 -4 -8 -9 5 -5 11 -9 27 -9 35 0 9 4 8 9 -5 5 -11 9 -27 9 -35z m-1182 -62 c-2 -13 -4 -5 -4 17 -1 22 1 32 4 23 2 -10 2 -28 0 -40z m1190 -20 c-2 -13 -4 -3 -4 22 0 25 2 35 4 23 2 -13 2 -33 0 -45z" />
    <path d="M5155 4594 c16 -95 14 -92 53 -97 83 -12 95 -6 120 57 13 32 22 60 20 62 -2 2 -48 6 -102 10 l-97 7 6 -39z" />
    <path d="M4309 4564 c-114 -44 -567 -155 -644 -158 -63 -2 -90 -12 -116 -43 -12 -14 -287 -640 -406 -923 -24 -59 -31 -149 -13 -194 l10 -26 150 0 150 0 1 83 c1 94 6 92 16 -8 l8 -70 49 0 50 0 31 125 c17 69 39 148 49 176 13 40 20 124 31 360 l13 309 -5 -320 c-6 -318 -5 -322 23 -488 l28 -167 248 0 248 0 0 49 0 48 110 63 c61 35 110 66 110 70 0 3 -46 21 -102 39 -57 18 -109 38 -116 44 -9 7 -12 36 -10 101 2 59 -2 108 -12 139 -14 48 -14 52 34 240 26 106 72 277 102 381 30 105 53 193 52 197 -2 3 -42 -9 -89 -27z m-612 -301 c-2 -16 -4 -3 -4 27 0 30 2 43 4 28 2 -16 2 -40 0 -55z" />
    <path d="M6187 4416 c29 -102 75 -274 104 -383 49 -189 50 -200 39 -248 -7 -27 -13 -94 -14 -148 -1 -75 -4 -100 -16 -107 -8 -6 -59 -24 -112 -42 -54 -18 -98 -35 -98 -38 0 -3 50 -35 110 -70 l110 -65 0 -48 0 -47 247 2 248 3 27 155 c28 153 28 160 24 470 l-4 315 13 -290 c11 -259 15 -300 38 -380 15 -49 37 -130 49 -180 l23 -90 44 -3 c51 -4 60 5 62 63 2 82 17 93 18 13 l1 -78 149 0 150 0 -14 43 c-131 410 -294 878 -357 1025 -42 95 -67 115 -150 118 -103 4 -528 110 -677 169 -36 14 -65 25 -66 25 -1 0 22 -83 52 -184z m660 -198 c-3 -7 -5 -2 -5 12 0 14 2 19 5 13 2 -7 2 -19 0 -25z" />
    <path d="M5357 4092 c-15 -17 -17 -62 -17 -447 l0 -428 338 6 c185 4 399 7 475 7 l137 0 0 40 0 39 -122 72 c-68 39 -139 82 -159 94 l-36 23 -6 119 c-4 65 -11 138 -17 163 -6 25 -12 55 -15 68 -5 20 -11 22 -65 22 l-59 0 -4 -47 -3 -48 -2 47 c-2 53 7 49 -122 67 -154 22 -196 46 -255 143 -50 83 -48 82 -68 60z m373 -325 c0 -10 -263 -383 -272 -386 -14 -5 -8 4 142 222 97 141 130 182 130 164z m67 -324 c-1 -54 -3 -12 -3 92 0 105 2 149 3 98 2 -51 2 -136 0 -190z" />
    <path d="M5081 4056 c-48 -77 -148 -142 -253 -163 -16 -3 -30 -9 -33 -13 -2 -4 54 -112 126 -241 146 -261 187 -340 169 -322 -7 6 -82 135 -166 285 -84 150 -158 273 -166 273 -9 0 -14 -25 -19 -95 l-5 -95 -2 93 -2 94 -27 -6 c-16 -3 -44 -8 -64 -12 -35 -6 -37 -8 -48 -62 -8 -44 -30 -253 -31 -294 0 -3 -67 -46 -150 -94 -82 -48 -154 -92 -159 -98 -5 -6 -6 -26 -4 -43 l5 -33 153 0 c83 0 281 -3 438 -7 l287 -6 0 436 c0 371 -2 437 -14 437 -8 0 -24 -15 -35 -34z m-334 -633 c-2 -16 -4 -5 -4 22 0 28 2 40 4 28 2 -13 2 -35 0 -50z" />
    <path d="M5140 3643 l0 -423 90 0 90 0 0 419 0 420 -90 3 -90 3 0 -422z" />
    <path d="M2727 2913 c-3 -5 -8 -72 -12 -150 -7 -138 -7 -143 13 -143 16 0 21 9 26 50 7 53 35 94 74 105 l22 6 0 -435 c0 -429 0 -436 -20 -436 -17 0 -20 -7 -20 -45 l0 -45 100 0 100 0 0 45 c0 41 -2 45 -25 45 l-25 0 0 435 c0 269 4 435 10 435 44 0 84 -56 92 -130 2 -16 10 -26 23 -28 20 -3 20 1 17 70 -9 178 -16 223 -34 226 -13 2 -18 -3 -18 -17 0 -20 -5 -21 -139 -21 -130 0 -139 1 -144 20 -5 19 -31 28 -40 13z" />
    <path d="M4116 2912 c-2 -4 -7 -61 -11 -127 -3 -66 -8 -130 -11 -143 -4 -20 -1 -23 18 -20 16 2 24 11 26 28 8 74 48 130 92 130 6 0 10 -166 10 -435 l0 -435 -25 0 c-23 0 -25 -4 -25 -45 l0 -45 100 0 100 0 0 45 c0 38 -3 45 -20 45 -20 0 -20 7 -20 436 l0 435 23 -6 c38 -11 66 -52 73 -105 5 -41 10 -50 26 -50 20 0 20 5 13 143 -4 78 -9 145 -12 150 -9 15 -35 6 -40 -13 -5 -19 -14 -20 -144 -20 -132 0 -139 1 -139 20 0 19 -24 28 -34 12z" />
    <path d="M3822 2883 c-120 -59 -202 -283 -202 -553 0 -203 29 -338 93 -436 46 -70 90 -97 150 -91 62 5 110 44 154 123 49 88 54 108 36 134 -15 21 -16 21 -44 -29 -28 -49 -70 -81 -106 -81 -92 0 -169 178 -180 417 -7 144 7 253 44 336 38 85 89 116 142 87 35 -18 54 -98 40 -156 -8 -32 -8 -48 3 -68 13 -26 14 -25 75 86 61 110 61 112 46 142 -14 26 -16 27 -25 12 -9 -15 -14 -13 -46 25 -57 66 -117 84 -180 52z" />
    <path d="M6165 2886 c-44 -19 -104 -90 -135 -160 -86 -190 -101 -497 -35 -705 85 -269 269 -298 380 -60 29 62 30 78 11 104 -13 17 -14 16 -31 -18 -9 -20 -33 -50 -51 -67 -67 -59 -127 -31 -180 85 -49 106 -67 221 -62 390 4 108 10 156 27 208 41 125 114 173 172 111 22 -23 24 -35 24 -115 1 -50 6 -94 12 -100 7 -7 26 18 67 90 31 56 56 105 56 110 0 6 -5 22 -11 38 -9 25 -11 26 -21 10 -9 -17 -13 -14 -46 24 -55 64 -114 83 -177 55z" />
    <path d="M6645 2881 c-79 -36 -148 -146 -182 -291 -14 -57 -18 -117 -18 -250 0 -151 3 -186 23 -253 83 -289 265 -376 404 -192 140 185 156 620 31 857 -67 127 -160 174 -258 129z m116 -120 c62 -66 104 -223 115 -426 14 -258 -43 -435 -139 -435 -19 0 -45 9 -59 19 -33 27 -74 114 -99 213 -26 106 -37 363 -20 463 33 187 116 256 202 166z" />
    <path d="M5083 2875 c-38 -16 -77 -80 -108 -177 l-22 -71 -12 65 c-14 85 -14 98 4 98 11 0 15 12 15 45 l0 45 -90 0 -90 0 0 -45 c0 -37 3 -45 18 -45 16 0 27 -54 96 -462 43 -255 80 -473 82 -485 4 -20 10 -23 54 -23 48 0 49 1 54 33 13 86 121 710 146 845 16 85 27 159 24 165 -2 7 -25 12 -52 12 -26 0 -56 3 -67 7 -11 4 -34 1 -52 -7z m58 -170 c26 0 35 -4 33 -15 -2 -8 -29 -159 -59 -334 -30 -176 -57 -321 -59 -323 -5 -5 -90 500 -88 525 3 34 39 113 65 140 17 18 27 21 47 15 14 -4 41 -7 61 -8z" />
    <path d="M1730 2836 c0 -42 2 -46 25 -46 l25 0 0 -440 0 -440 -25 0 c-23 0 -25 -4 -25 -45 l0 -45 118 0 c171 1 220 28 281 160 46 101 64 203 64 375 1 269 -58 435 -177 498 -34 18 -62 22 -163 25 l-123 4 0 -46z m267 -101 c53 -56 75 -143 80 -330 10 -306 -44 -475 -153 -479 l-39 -1 -3 415 c-1 228 0 421 3 429 9 24 76 4 112 -34z" />
    <path d="M2260 2835 c0 -41 2 -45 25 -45 l25 0 0 -440 0 -440 -25 0 c-23 0 -25 -4 -25 -45 l0 -45 174 0 c158 0 175 2 180 18 3 9 15 68 27 131 19 103 19 115 5 129 -14 14 -16 14 -21 -4 -3 -10 -18 -44 -33 -74 -21 -44 -36 -60 -72 -78 -25 -12 -58 -21 -75 -20 l-30 3 -3 238 -2 237 80 0 80 0 0 -40 c0 -33 3 -40 20 -40 19 0 20 7 20 135 0 128 -1 135 -20 135 -17 0 -20 -7 -20 -40 l0 -40 -80 0 -81 0 3 133 3 132 54 -2 c66 -3 94 -21 122 -74 19 -38 22 -40 37 -26 14 15 14 24 -2 112 l-18 95 -174 0 -174 0 0 -45z" />
    <path d="M3170 2835 c0 -38 3 -45 20 -45 20 0 20 -7 20 -440 0 -433 0 -440 -20 -440 -17 0 -20 -7 -20 -45 l0 -45 172 2 172 3 27 133 c25 127 25 133 8 143 -16 8 -20 4 -29 -29 -22 -84 -78 -138 -152 -148 l-48 -7 0 242 0 241 80 0 80 0 0 -40 c0 -34 3 -40 20 -40 20 0 20 5 18 132 -3 117 -5 133 -20 136 -15 3 -18 -4 -18 -37 l0 -41 -80 0 -80 0 0 136 0 137 51 -6 c28 -4 62 -13 76 -22 21 -14 55 -60 67 -90 2 -6 11 -3 20 6 17 15 14 46 -19 187 -5 22 -7 22 -175 22 l-170 0 0 -45z" />
    <path d="M4550 2835 c0 -41 2 -45 25 -45 l25 0 0 -440 0 -440 -25 0 c-23 0 -25 -4 -25 -45 l0 -45 100 0 100 0 0 45 c0 41 -2 45 -25 45 l-25 0 0 440 0 440 25 0 c23 0 25 4 25 45 l0 45 -100 0 -100 0 0 -45z" />
    <path d="M5310 2835 c0 -38 3 -45 20 -45 20 0 20 -7 20 -440 0 -433 0 -440 -20 -440 -17 0 -20 -7 -20 -45 l0 -45 173 0 173 0 26 133 c24 120 25 133 11 144 -14 11 -19 5 -39 -44 -37 -89 -92 -133 -171 -133 l-23 0 0 240 0 240 80 0 80 0 0 -40 c0 -33 3 -40 20 -40 19 0 20 7 20 135 0 128 -1 135 -20 135 -17 0 -20 -7 -20 -40 l0 -40 -80 0 -80 0 0 136 0 137 51 -6 c28 -4 62 -13 76 -22 21 -14 55 -60 67 -90 2 -6 11 -3 21 6 16 15 16 22 -2 110 l-19 94 -172 3 -172 2 0 -45z" />
    <path d="M7057 2873 c-4 -3 -7 -24 -7 -45 0 -34 3 -38 25 -38 l25 0 0 -440 0 -440 -25 0 c-23 0 -25 -4 -25 -45 l0 -45 75 0 75 0 0 45 c0 41 -2 45 -25 45 l-25 0 1 348 1 347 73 -225 c41 -124 98 -300 127 -392 l53 -168 32 0 33 0 0 485 c0 478 0 485 20 485 17 0 20 7 20 45 l0 46 -67 -3 -68 -3 -3 -42 c-3 -40 -1 -43 22 -43 l26 0 -1 -312 -1 -313 -27 80 c-15 44 -68 205 -117 358 l-88 277 -62 0 c-33 0 -64 -3 -67 -7z" />
    <path d="M7745 2858 c-5 -27 -165 -937 -165 -944 0 -2 -9 -4 -20 -4 -17 0 -20 -7 -20 -45 l0 -45 70 0 70 0 0 45 c0 41 -2 45 -24 45 l-23 0 18 103 c10 56 19 103 19 105 0 1 45 2 100 2 114 0 100 15 123 -127 l14 -83 -23 0 c-22 0 -24 -4 -24 -45 l0 -45 95 0 95 0 0 44 c0 34 -4 45 -17 48 -14 3 -30 81 -99 478 -46 261 -83 478 -84 483 0 4 -22 7 -50 7 -43 0 -50 -3 -55 -22z m104 -615 c1 -22 -3 -23 -79 -23 -49 0 -80 4 -80 10 0 11 66 383 77 435 4 22 17 -29 44 -185 21 -118 38 -225 38 -237z" />
    <path d="M8090 2835 c0 -38 3 -45 20 -45 20 0 20 -7 20 -440 0 -433 0 -440 -20 -440 -17 0 -20 -7 -20 -45 l0 -45 70 0 70 0 0 45 c0 41 -2 45 -25 45 l-25 0 0 348 c0 199 4 341 9 332 7 -12 208 -631 240 -740 6 -19 15 -26 39 -28 l32 -3 0 485 0 486 25 0 c23 0 25 4 25 45 l0 45 -70 0 -70 0 0 -45 c0 -38 3 -45 20 -45 20 0 20 -6 19 -307 l-1 -308 -28 85 c-16 47 -68 205 -115 353 l-86 267 -64 0 -65 0 0 -45z" />
  </g>
</svg>