<svg width="28" height="27" viewBox="0 0 28 27" fill="none" xmlns="http://www.w3.org/2000/svg">
<path d="M14.9117 0.949638C14.9117 0.812704 14.8833 0.677399 14.8286 0.552995C14.7739 0.428591 14.6942 0.318029 14.5948 0.228883C14.4955 0.139738 14.3789 0.0741164 14.253 0.036516C14.1271 -0.0010845 13.995 -0.00977546 13.8656 0.0110386L1.15238 2.04404C0.938043 2.07852 0.742575 2.19211 0.601334 2.36427C0.460094 2.53642 0.382407 2.75577 0.382324 2.98264V23.6166C0.382407 23.8435 0.460094 24.0629 0.601334 24.235C0.742575 24.4072 0.938043 24.5208 1.15238 24.5552L13.8656 26.5901C13.995 26.611 14.1271 26.6023 14.253 26.5647C14.3789 26.5271 14.4955 26.4614 14.5948 26.3723C14.6942 26.2831 14.7739 26.1726 14.8286 26.0482C14.8833 25.9238 14.9117 25.7885 14.9117 25.6515V13.2996H24.305L22.4943 14.9602C22.3238 15.129 22.2225 15.3603 22.2115 15.6055C22.2004 15.8508 22.2806 16.091 22.4351 16.2757C22.5897 16.4605 22.8066 16.5755 23.0404 16.5966C23.2742 16.6178 23.5068 16.5434 23.6893 16.389L27.3144 13.064C27.4116 12.9749 27.4895 12.865 27.5429 12.7418C27.5963 12.6186 27.6239 12.4849 27.6239 12.3496C27.6239 12.2144 27.5963 12.0807 27.5429 11.9575C27.4895 11.8343 27.4116 11.7244 27.3144 11.6352L23.6893 8.31024C23.5082 8.14445 23.2716 8.06072 23.0314 8.07747C22.7913 8.09422 22.5674 8.21007 22.4089 8.39954C22.2504 8.58901 22.1704 8.83658 22.1864 9.08778C22.2024 9.33899 22.3132 9.57325 22.4943 9.73904L24.305 11.3996H14.9117V0.949638ZM10.3713 15.6746C10.01 15.6746 9.66357 15.5245 9.40812 15.2573C9.15267 14.99 9.00916 14.6276 9.00916 14.2496C9.00916 13.8717 9.15267 13.5093 9.40812 13.242C9.66357 12.9748 10.01 12.8246 10.3713 12.8246C10.7326 12.8246 11.079 12.9748 11.3345 13.242C11.5899 13.5093 11.7334 13.8717 11.7334 14.2496C11.7334 14.6276 11.5899 14.99 11.3345 15.2573C11.079 15.5245 10.7326 15.6746 10.3713 15.6746ZM17.636 24.6996H16.7279V15.1996H18.5441V23.7496C18.5441 24.0016 18.4484 24.2432 18.2781 24.4214C18.1078 24.5996 17.8768 24.6996 17.636 24.6996ZM16.7279 9.49964V1.89964H17.636C17.8768 1.89964 18.1078 1.99973 18.2781 2.17789C18.4484 2.35605 18.5441 2.59768 18.5441 2.84964V9.49964H16.7279Z" fill="black"/>
</svg>
