<svg width="36" height="34" viewBox="0 0 36 34" fill="none" xmlns="http://www.w3.org/2000/svg">
<path d="M18 0.87207C8.34 0.87207 0.5 8.22556 0.5 17.2861C0.5 26.3467 8.34 33.7001 18 33.7001C27.66 33.7001 35.5 26.3467 35.5 17.2861C35.5 8.22556 27.66 0.87207 18 0.87207ZM18 7.43769C21.3775 7.43769 24.125 10.0147 24.125 13.1826C24.125 16.3505 21.3775 18.9275 18 18.9275C14.6225 18.9275 11.875 16.3505 11.875 13.1826C11.875 10.0147 14.6225 7.43769 18 7.43769ZM18 30.4173C14.4475 30.4173 10.2475 29.0714 7.255 25.6901C10.3203 23.4343 14.1038 22.2084 18 22.2084C21.8962 22.2084 25.6797 23.4343 28.745 25.6901C25.7525 29.0714 21.5525 30.4173 18 30.4173Z" fill="black"/>
</svg>
