<svg width="42" height="40" viewBox="0 0 42 40" fill="none" xmlns="http://www.w3.org/2000/svg">
<path d="M21 3.87207C11.34 3.87207 3.5 11.2256 3.5 20.2861C3.5 29.3467 11.34 36.7001 21 36.7001C30.66 36.7001 38.5 29.3467 38.5 20.2861C38.5 11.2256 30.66 3.87207 21 3.87207ZM21 10.4377C24.3775 10.4377 27.125 13.0147 27.125 16.1826C27.125 19.3505 24.3775 21.9275 21 21.9275C17.6225 21.9275 14.875 19.3505 14.875 16.1826C14.875 13.0147 17.6225 10.4377 21 10.4377ZM21 33.4173C17.4475 33.4173 13.2475 32.0714 10.255 28.6901C13.3203 26.4343 17.1038 25.2084 21 25.2084C24.8962 25.2084 28.6797 26.4343 31.745 28.6901C28.7525 32.0714 24.5525 33.4173 21 33.4173Z" fill="white"/>
</svg>
