<svg width="84" height="84" viewBox="0 0 84 84" fill="none" xmlns="http://www.w3.org/2000/svg">
<path d="M57.0938 39.375H44.625V26.9062C44.625 26.5453 44.3297 26.25 43.9688 26.25H40.0312C39.6703 26.25 39.375 26.5453 39.375 26.9062V39.375H26.9062C26.5453 39.375 26.25 39.6703 26.25 40.0312V43.9688C26.25 44.3297 26.5453 44.625 26.9062 44.625H39.375V57.0938C39.375 57.4547 39.6703 57.75 40.0312 57.75H43.9688C44.3297 57.75 44.625 57.4547 44.625 57.0938V44.625H57.0938C57.4547 44.625 57.75 44.3297 57.75 43.9688V40.0312C57.75 39.6703 57.4547 39.375 57.0938 39.375Z" fill="black"/>
<path d="M42 5.25C21.7055 5.25 5.25 21.7055 5.25 42C5.25 62.2945 21.7055 78.75 42 78.75C62.2945 78.75 78.75 62.2945 78.75 42C78.75 21.7055 62.2945 5.25 42 5.25ZM42 72.5156C25.1508 72.5156 11.4844 58.8492 11.4844 42C11.4844 25.1508 25.1508 11.4844 42 11.4844C58.8492 11.4844 72.5156 25.1508 72.5156 42C72.5156 58.8492 58.8492 72.5156 42 72.5156Z" fill="black"/>
</svg>
