<svg width="23" height="24" viewBox="0 0 23 24" fill="none" xmlns="http://www.w3.org/2000/svg">
<path d="M10.9025 0.0375436C9.78185 0.232517 8.76922 0.947418 8.13915 1.98228C7.92762 2.32723 0.591704 16.4453 0.407181 16.8602C-0.231899 18.28 -0.110384 20.0398 0.713219 21.3896C1.26679 22.2995 2.11289 22.9594 3.09402 23.2443L3.47656 23.3593H11.4426C19.9846 23.3593 19.6336 23.3693 20.2952 23.1094C20.9027 22.8694 21.3213 22.5694 21.7893 22.0545C22.1584 21.6446 22.3924 21.2746 22.631 20.7197C22.9145 20.0548 23 19.6248 23 18.81C23 17.9951 22.9145 17.5651 22.631 16.9052C22.4644 16.5203 15.4076 2.90215 14.98 2.14225C14.5524 1.37736 13.7513 0.607465 13.0988 0.337502C12.4147 0.0525416 11.5281 -0.0674419 10.9025 0.0375436ZM11.8701 2.09226C12.4102 2.18725 12.9502 2.5372 13.2563 2.99714C13.4588 3.29709 20.7677 17.3452 20.9657 17.8101C21.2763 18.535 21.2043 19.4549 20.7812 20.1798C20.4392 20.7747 19.8361 21.1896 19.1835 21.2846C18.9405 21.3196 16.3752 21.3346 11.2625 21.3246L3.70159 21.3096L3.40005 21.1946C2.1579 20.7297 1.51432 19.1649 2.03188 17.8701C2.12189 17.6401 9.3363 3.73203 9.65584 3.16211C10.0114 2.5322 10.7495 2.07726 11.4651 2.04227C11.5281 2.04227 11.7081 2.06226 11.8701 2.09226Z" fill="white"/>
<path d="M11.2219 7.21137C10.8438 7.32136 10.5558 7.62132 10.3803 8.08625C10.2993 8.31622 10.3038 8.63618 10.4253 10.8609C10.4793 11.8757 10.5513 13.1855 10.5828 13.7655C10.6503 15.0353 10.6953 15.1703 11.1004 15.3952C11.3794 15.5552 11.5729 15.5702 11.8159 15.4552C12.203 15.2753 12.41 14.8653 12.41 14.2904C12.4055 14.1354 12.473 12.7456 12.554 11.2008C12.7161 8.10625 12.7161 8.13125 12.4505 7.70631C12.1985 7.29636 11.6719 7.08639 11.2219 7.21137Z" fill="white"/>
<path d="M11.1951 16.4805C10.6505 16.6755 10.3084 17.2204 10.3489 17.8203C10.3985 18.5402 10.8665 19.0302 11.5056 19.0352C11.9646 19.0352 12.3427 18.7752 12.5542 18.3153C12.6712 18.0653 12.6847 17.5004 12.5812 17.2304C12.4822 16.9804 12.2482 16.6955 12.0322 16.5755C11.8341 16.4655 11.3796 16.4105 11.1951 16.4805Z" fill="white"/>
</svg>
