<svg width="42" height="42" viewBox="0 0 42 42" fill="none" xmlns="http://www.w3.org/2000/svg">
<path d="M36.0436 32.94C36.8836 31.54 37.38 29.92 37.38 28.16C37.38 23.18 33.5427 19.16 28.7891 19.16C24.0355 19.16 20.1982 23.18 20.1982 28.16C20.1982 33.14 24.0355 37.16 28.77 37.16C30.45 37.16 32.0155 36.64 33.3327 35.76L39.2891 42L42 39.16L36.0436 32.94ZM28.7891 33.16C27.5233 33.16 26.3093 32.6332 25.4143 31.6955C24.5192 30.7579 24.0164 29.4861 24.0164 28.16C24.0164 26.8339 24.5192 25.5621 25.4143 24.6245C26.3093 23.6868 27.5233 23.16 28.7891 23.16C30.0549 23.16 31.2689 23.6868 32.1639 24.6245C33.059 25.5621 33.5618 26.8339 33.5618 28.16C33.5618 29.4861 33.059 30.7579 32.1639 31.6955C31.2689 32.6332 30.0549 33.16 28.7891 33.16ZM28.1018 16.16C26.6891 16.2 25.3336 16.52 24.0927 17.06L23.0427 15.4L15.7882 27.76L10.0418 20.72L3.11182 32.34L0 30L9.54545 14L15.2727 21L22.9091 8L28.1018 16.16V16.16ZM33.0464 17.16C31.8245 16.6 30.5073 16.26 29.1327 16.18L38.9073 0L42 2.36L33.0464 17.16V17.16Z" fill="black"/>
</svg>
