<svg width="42" height="42" viewBox="0 0 42 42" fill="none" xmlns="http://www.w3.org/2000/svg">
<g clip-path="url(#clip0_634_5648)">
<path d="M-5.84814 21V47.9231H20.7341H47.3164V21V-5.92306H20.7341H-5.84814V21ZM47.1613 21V47.766H20.7341H-5.693V21V-5.76593H20.7341H47.1613V21Z" fill="white"/>
<path d="M0.926758 21V41.0614H20.7342H40.5416V21V0.938683H20.7342H0.926758V21ZM39.5073 21V40.0138H20.7342H1.96109V21V1.98627H20.7342H39.5073V21Z" fill="white"/>
<path d="M16.302 3.42145C15.7952 3.98191 15.2521 4.90903 14.8901 5.83614C14.6884 6.3547 14.6884 6.38613 14.9315 6.38613C15.1901 6.39137 15.9244 6.55898 16.4002 6.72136C16.6123 6.79469 16.8036 6.85754 16.8243 6.85754C16.8502 6.85754 16.8502 6.79993 16.8347 6.72136C16.7157 6.2447 16.633 5.41187 16.6071 4.34856L16.5709 3.12288L16.302 3.42145Z" fill="white"/>
<path d="M20.5273 3.95051C20.5273 3.97146 20.6101 4.18098 20.7187 4.41669C21.2772 5.67904 22.2288 7.12471 23.1804 8.16706C23.7441 8.78514 23.6976 8.36611 23.0511 7.06709C22.6063 6.17664 22.1461 5.5219 21.4582 4.79906C20.9359 4.24908 20.5273 3.87718 20.5273 3.95051Z" fill="white"/>
<path d="M25.6577 4.09185C25.7818 4.28565 26.8264 5.20753 27.3281 5.57419C27.5867 5.75752 28.0263 6.05084 28.3107 6.22369C28.7503 6.48559 28.9003 6.54845 29.283 6.62178C29.5364 6.66892 29.7536 6.70035 29.7639 6.68463C29.795 6.65321 29.0709 6.00894 28.5848 5.63704C28.0728 5.2442 27.3643 4.79373 26.8316 4.5266C26.4541 4.32755 25.6628 3.97661 25.6111 3.97661C25.5956 3.97661 25.6163 4.02899 25.6577 4.09185Z" fill="white"/>
<path d="M14.5541 4.66813C14.1093 5.15002 13.5094 5.92523 13.2922 6.28665L13.1836 6.47522L13.4008 6.43855C13.5249 6.4176 13.8042 6.38094 14.0214 6.35998L14.4248 6.32332L14.4765 6.10856C14.6213 5.53763 14.7454 5.11335 14.8902 4.68384C14.973 4.42718 15.035 4.21242 15.0247 4.20195C15.0144 4.19147 14.8023 4.40099 14.5541 4.66813Z" fill="white"/>
<path d="M12.4336 4.63146C12.1595 5.02431 11.7975 5.69476 11.632 6.11904C11.4872 6.49617 11.2648 7.2871 11.2906 7.31853C11.3062 7.329 11.3786 7.29234 11.4613 7.23472C11.5389 7.18234 11.7044 7.08282 11.8285 7.01997C11.9992 6.93092 12.0457 6.87854 12.0457 6.77378C12.0457 6.51188 12.3146 5.41715 12.5112 4.86717C12.6249 4.5686 12.7025 4.31194 12.6973 4.30147C12.687 4.29623 12.568 4.44289 12.4336 4.63146Z" fill="white"/>
<path d="M23.3924 4.36957C23.8424 5.51668 24.101 6.53285 24.2768 7.86329C24.3078 8.09899 24.313 8.10947 24.4371 8.06233C24.5095 8.0309 24.706 7.91566 24.8819 7.79519C25.3111 7.49663 25.7662 7.23997 26.1541 7.07235L26.4747 6.92569L25.9989 6.58523C25.3628 6.12952 24.8302 5.67906 24.0234 4.90384C23.651 4.5529 23.3717 4.31195 23.3924 4.36957Z" fill="white"/>
<path d="M17.145 5.23375C17.176 5.61088 17.3519 6.74228 17.4139 6.98846C17.4501 7.11417 17.5432 7.19798 17.9207 7.41274C18.3655 7.67464 18.381 7.69035 18.3965 7.88415C18.4121 8.0832 18.4172 8.09367 18.7172 8.17748C18.8827 8.22986 19.0947 8.33462 19.1878 8.41319C19.3171 8.52318 19.2705 8.43938 19.0223 8.11462C18.4845 7.41274 18.0035 6.63752 17.5432 5.73135L17.1191 4.89328L17.145 5.23375Z" fill="white"/>
<path d="M10.7011 5.83613C10.5253 6.11374 10.2667 6.57992 10.1271 6.87324C9.71851 7.74798 9.34616 9.00509 9.50131 9.00509C9.53751 9.00509 9.55302 9.06271 9.53751 9.14651C9.52199 9.23032 9.56854 9.45555 9.6306 9.65983L9.74954 10.0265L9.86849 9.65983C10.0598 9.07842 10.2615 8.66986 10.4632 8.44463C10.6701 8.20892 10.7218 8.02035 10.5512 8.1094C10.4994 8.14083 10.2615 8.35034 10.0236 8.57034L9.58922 8.9789L9.91504 8.607C10.0909 8.39749 10.3236 8.1513 10.4322 8.05178L10.6339 7.86845L10.6649 7.27133C10.696 6.70039 10.8873 5.73661 11.0166 5.48518C11.0476 5.42757 11.0631 5.36995 11.0476 5.35947C11.0373 5.34376 10.8821 5.55852 10.7011 5.83613Z" fill="white"/>
<path d="M31.5999 5.63704C32.1274 7.01462 32.6756 8.64886 32.9083 9.52884C32.9807 9.79597 33.0583 10.0369 33.079 10.0526C33.1048 10.0736 33.1979 10.1155 33.291 10.1469C33.4617 10.2045 33.4617 10.2045 33.5599 9.98454C33.6168 9.86407 33.6633 9.65978 33.6633 9.52884C33.6633 9.0679 33.4099 7.85793 33.1979 7.34461L33.0996 7.09319L33.1203 7.80031C33.172 9.24599 33.1824 9.70693 33.1617 9.55503C33.0117 8.5022 32.7221 7.51746 32.3394 6.73701C32.1274 6.31273 31.6205 5.49561 31.5688 5.49561C31.5533 5.49561 31.5688 5.55847 31.5999 5.63704Z" fill="white"/>
<path d="M27.0486 5.988C27.1055 6.08752 27.24 6.27085 27.3434 6.39132L27.5348 6.60608L27.9123 6.56941L28.2846 6.53275L27.9278 6.3599C27.7261 6.26037 27.4365 6.098 27.2762 5.99848C27.121 5.89372 26.9814 5.80991 26.9659 5.80991C26.9555 5.80991 26.9917 5.89372 27.0486 5.988Z" fill="white"/>
<path d="M30.9948 6.84186C31.0982 7.15613 31.1293 7.20327 31.3154 7.28184C31.5327 7.38137 31.5327 7.41279 31.3154 7.32899C31.1499 7.26613 31.1448 7.30803 31.2896 7.73755C31.3775 7.99944 31.4189 8.0623 31.5068 8.0623C31.5689 8.06754 31.7447 8.10944 31.8947 8.16182L32.1636 8.2561L32.0757 8.11992C31.7343 7.58041 31.6257 7.43374 31.5792 7.43374C31.5482 7.43374 31.543 7.41803 31.5585 7.40232C31.5895 7.37089 31.0103 6.57472 30.9172 6.51187C30.8965 6.50139 30.9276 6.64805 30.9948 6.84186Z" fill="white"/>
<path d="M13.4784 6.78424C13.2301 6.82091 13.0026 6.86805 12.9819 6.88376C12.925 6.91519 12.563 7.78469 12.563 7.87897C12.563 7.92611 12.6199 7.94183 12.7595 7.92611C12.8629 7.91564 13.225 7.89469 13.5611 7.87373C13.8921 7.85802 14.1662 7.83707 14.1662 7.83707C14.1817 7.78469 14.3162 6.86281 14.3213 6.78948C14.3213 6.67948 14.1403 6.67948 13.4784 6.78424Z" fill="white"/>
<path d="M14.5643 6.84188C14.5436 6.92045 14.4867 7.18235 14.4298 7.41805L14.3315 7.85281H15.4848C16.1158 7.85281 16.7467 7.86852 16.8812 7.88947L17.1294 7.9209L17.0984 7.75328C17.026 7.38663 16.9536 7.3133 16.5192 7.13521C16.064 6.94664 15.3969 6.77902 14.9108 6.72665C14.5953 6.68998 14.5953 6.68998 14.5643 6.84188Z" fill="white"/>
<path d="M27.8504 6.85225C27.809 6.91511 28.2951 7.30271 28.8123 7.61699L29.226 7.87365L29.9966 7.92603C30.4207 7.95746 30.7672 7.97317 30.7672 7.95746C30.7672 7.94174 30.612 7.71651 30.4155 7.45985C30.1414 7.0932 30.0328 6.9832 29.8932 6.94653C29.7794 6.92034 29.707 6.92034 29.6863 6.95701C29.6604 6.99368 29.5415 6.97272 29.3243 6.90987C28.9778 6.79987 27.9073 6.75797 27.8504 6.85225Z" fill="white"/>
<path d="M26.3196 7.21899C25.9524 7.38137 25.4404 7.67993 25.2335 7.85802L25.1042 7.96802L25.2335 7.93135C25.3059 7.91564 25.9731 7.88421 26.7178 7.8685L28.0728 7.83707L27.3798 7.44946C26.9919 7.23994 26.6764 7.06709 26.6661 7.07233C26.6609 7.07233 26.5058 7.14042 26.3196 7.21899Z" fill="white"/>
<path d="M11.5545 7.44939C11.2855 7.59605 11.239 7.64319 11.2028 7.81605C11.1769 7.92604 11.1666 8.02556 11.1821 8.04128C11.1976 8.05699 11.3734 8.05175 11.5751 8.0308L11.9423 7.99414V7.75319C11.9423 7.62224 11.9578 7.45987 11.9734 7.39177C12.0199 7.23463 11.932 7.24511 11.5545 7.44939Z" fill="white"/>
<path d="M17.6311 7.78468C17.6363 7.89467 17.7345 7.96277 17.9207 7.98896L18.1224 8.02039L17.8949 7.8842C17.6518 7.73754 17.6311 7.72706 17.6311 7.78468Z" fill="white"/>
<path d="M14.2436 8.38183C14.2281 8.48135 14.1919 8.67516 14.1712 8.82182C14.1299 9.07848 14.1247 9.07324 14.1195 8.66992L14.1143 8.25612L13.2765 8.29279C12.8163 8.3085 12.4335 8.33469 12.4232 8.34517C12.3715 8.39755 12.2422 9.288 12.2112 9.82751L12.1698 10.4456L12.1077 10.1051C12.0767 9.91655 12.0198 9.45038 11.9836 9.06801L11.9216 8.37136L11.725 8.39755C11.6164 8.4185 11.4302 8.44469 11.3113 8.4604L11.0993 8.49183L11.1251 9.36657L11.1562 10.2361L10.9855 9.71227C10.8924 9.42419 10.7993 9.07324 10.7786 8.93706L10.7424 8.6804L10.6131 8.80611C10.5407 8.8742 10.4321 9.02086 10.3649 9.1361C10.2149 9.398 9.9253 10.2256 9.9253 10.3932C9.9253 10.6237 10.7062 12.3365 11.2544 13.316C11.3785 13.5465 11.4716 13.7403 11.4613 13.756C11.4096 13.8031 10.8562 13.405 10.5562 13.1117L10.2615 12.8236L10.0339 12.8865L9.81152 12.9493L9.84255 13.206C9.86324 13.3474 9.93047 13.6041 9.99253 13.7874L10.1063 14.1122L10.4425 14.1383C10.851 14.1698 11.1717 14.3374 11.6319 14.7564C11.9112 15.0131 11.9784 15.1178 12.1388 15.5264C12.3301 15.9873 12.3353 15.9926 12.5628 16.0607C13.2352 16.265 14.2747 16.333 15.0194 16.2283C17.6104 15.8669 19.4101 14.1593 19.6945 11.8127C19.7463 11.3727 19.7463 11.336 19.648 11.247C19.5239 11.1265 19.5135 10.9589 19.6273 10.828C19.7101 10.7442 19.7101 10.697 19.6273 10.1785C19.4515 8.99467 19.0791 8.59135 18.0086 8.40802L17.8431 8.38183L17.9 8.54945C17.9931 8.8323 18.5413 9.97941 18.8257 10.477C18.9705 10.7389 19.0791 10.9589 19.0636 10.9746C19.0171 11.0218 18.293 10.1418 17.9931 9.67561C17.8276 9.41895 17.6052 9.01039 17.4966 8.76944C17.3363 8.42374 17.269 8.32422 17.1656 8.30326C17.0932 8.28755 16.4157 8.26136 15.6555 8.24041L14.2798 8.20374L14.2436 8.38183Z" fill="white"/>
<path d="M25.854 8.35554C25.011 8.44982 24.6645 8.49696 24.5042 8.53887L24.3129 8.58601L24.3387 8.94219C24.3698 9.35075 24.3801 9.36122 24.9852 9.84835L25.4299 10.2098L25.7196 9.90597C26.2988 9.29313 27.028 8.98409 27.8968 8.98409C28.5019 8.98409 29.0242 9.14123 29.5155 9.45551C30.6481 10.1941 31.1705 11.6712 30.7464 12.9597C30.1568 14.7458 28.2226 15.5734 26.5418 14.7616C26.2833 14.6411 26.0764 14.4787 25.7713 14.1697C25.1403 13.5306 24.8662 12.8759 24.8766 12.0169C24.8766 11.6554 24.98 11.1002 25.099 10.8383C25.1248 10.7702 25.0472 10.7336 24.6956 10.6498L24.256 10.5398L24.2146 10.7021L24.1784 10.8645L24.1474 10.6812C24.1215 10.5083 24.106 10.4926 23.6406 10.325C23.3768 10.2255 23.1492 10.1574 23.1389 10.1679C23.1234 10.1836 23.0975 10.3041 23.082 10.435C23.051 10.6602 23.0613 10.6917 23.1854 10.7912C23.3871 10.9483 23.3716 11.1945 23.1596 11.2731L22.9993 11.3359L23.0303 11.7026C23.232 13.8921 24.6697 15.4739 27.0383 16.1182C27.4831 16.2387 27.6331 16.2491 28.5174 16.2544C29.3811 16.2596 29.5569 16.2439 29.9655 16.1391C30.6481 15.961 30.7619 15.893 30.9636 15.5263C31.186 15.123 31.2998 15.0025 31.5894 14.8611C31.7187 14.7982 31.9359 14.662 32.0652 14.5573C32.1996 14.4525 32.3755 14.3373 32.4634 14.3006C32.6289 14.2273 32.7685 13.9497 32.8926 13.4468C33.0064 12.9754 32.8461 12.9178 32.3651 13.253C32.1945 13.3683 32.0445 13.4573 32.0341 13.4468C32.0238 13.4416 32.241 12.9335 32.5099 12.3311C32.9961 11.2469 33.0012 11.2259 32.9754 10.9169C32.9443 10.566 32.5978 9.52884 32.4013 9.19361C32.2358 8.91076 31.9721 8.66458 31.7549 8.59125C31.6566 8.55982 31.5739 8.53887 31.5635 8.5441C31.5583 8.55458 31.6308 8.88981 31.729 9.29313C31.9048 10.0369 31.941 10.2883 31.8428 10.0526C31.8118 9.9793 31.6359 9.60217 31.4497 9.20932L31.1188 8.49696L30.855 8.4603C30.705 8.44458 30.5188 8.42887 30.4309 8.42887C30.281 8.43411 30.281 8.43411 30.374 8.50744C30.5188 8.61744 30.4102 8.60696 29.9396 8.47077C29.5828 8.37125 29.4069 8.36078 27.7934 8.3503C26.8263 8.33982 25.9523 8.34506 25.854 8.35554ZM25.5954 9.45027V9.68598H25.3524H25.1093L25.3369 9.45027C25.461 9.31932 25.5696 9.21456 25.5799 9.21456C25.5903 9.21456 25.5954 9.31932 25.5954 9.45027ZM30.4464 9.69645C30.1879 9.75407 30.1465 9.71741 30.1465 9.43979V9.19361L30.3792 9.42408L30.6171 9.65979L30.4464 9.69645ZM25.5954 14.5835C25.5954 14.7144 25.5903 14.8192 25.5799 14.8192C25.5696 14.8192 25.461 14.7144 25.3369 14.5835L25.1093 14.3478H25.3524H25.5954V14.5835ZM30.5654 14.4368C30.5395 14.4892 30.4361 14.6149 30.3327 14.7092L30.1465 14.8925V14.6201V14.3478H30.3792C30.5912 14.3478 30.6119 14.3582 30.5654 14.4368Z" fill="white"/>
<path d="M20.1704 8.46558C20.6979 9.11508 21.815 10.3198 22.0322 10.477C22.1098 10.5293 22.3115 10.5974 22.4873 10.6184C22.839 10.6708 22.8183 10.6865 22.8752 10.2622L22.9114 10.0265L22.4563 9.79602C21.8874 9.51317 21.2616 9.13604 20.6462 8.70652C20.1497 8.36606 20.0463 8.31368 20.1704 8.46558Z" fill="white"/>
<path d="M19.6273 9.0522C19.6945 9.22505 19.798 9.64932 19.8497 10.0003C19.9014 10.346 19.9531 10.6445 19.9686 10.655C19.9841 10.6707 20.1755 10.6602 20.403 10.6288C20.6254 10.6026 20.9719 10.566 21.1633 10.545L21.5149 10.5136L21.065 10.1731C20.8219 9.98455 20.3668 9.58647 20.0617 9.28791L19.5032 8.73792L19.6273 9.0522Z" fill="white"/>
<path d="M27.4675 9.22512C27.1003 9.2775 26.7331 9.41369 26.4125 9.61273C26.1798 9.75416 25.6471 10.257 25.6471 10.3251C25.6471 10.346 25.7764 10.4508 25.9315 10.5556L26.2211 10.7494L26.3608 10.6132L26.5056 10.4718L26.6142 10.5818C26.7073 10.676 26.7331 10.6813 26.8314 10.6184C26.909 10.5713 26.9348 10.5189 26.9141 10.4456C26.8417 10.2151 26.8624 10.1941 27.1986 10.0684C27.3848 10.0056 27.6227 9.94796 27.7313 9.94796C27.9071 9.94796 27.9226 9.95844 27.9226 10.0999C27.9226 10.2308 27.9433 10.2518 28.1191 10.2832C28.4243 10.3303 28.4812 10.3199 28.5174 10.2099C28.5587 10.0684 28.6673 10.0789 28.9414 10.236C29.1845 10.3827 29.1948 10.3984 29.0862 10.5451C29.0242 10.6289 29.0345 10.6656 29.2104 10.8908C29.319 11.027 29.4327 11.2155 29.4741 11.3046C29.5362 11.4617 29.5569 11.4722 29.712 11.446L29.8775 11.4094L29.9137 11.7027C29.9809 12.2108 29.8258 12.8917 29.5724 13.2164C29.4741 13.3474 29.4638 13.3474 29.3396 13.2636C29.2155 13.185 29.2052 13.185 29.0759 13.3107C28.9673 13.4207 28.9569 13.4626 29.0035 13.5517C29.0345 13.6093 29.0604 13.6826 29.0604 13.7088C29.0604 13.8031 28.4139 14.0545 28.1191 14.0755L27.8192 14.0964V13.934C27.8192 13.7821 27.8037 13.7717 27.6382 13.7717C27.4882 13.7717 27.452 13.7926 27.4261 13.9026C27.3848 14.0598 27.3641 14.065 27.0383 13.9236C26.7693 13.8031 26.7486 13.7769 26.8469 13.6145C26.9038 13.5255 26.8883 13.4888 26.728 13.3422C26.6245 13.2479 26.4797 13.0698 26.397 12.9441C26.2935 12.7869 26.2263 12.7293 26.1694 12.7555C26.1229 12.7712 26.0608 12.7974 26.0298 12.8079C25.9729 12.8341 25.8902 12.5722 25.8281 12.1898C25.8022 12.0012 25.8022 11.996 25.9677 11.9803C26.1074 11.9698 26.1436 11.9384 26.1539 11.8231C26.1694 11.7079 26.1436 11.6817 26.0091 11.6503C25.8333 11.6084 25.8333 11.5874 26.0143 11.1579C26.0712 11.0322 26.1022 10.917 26.0919 10.9065C26.0815 10.8908 25.9108 10.8594 25.7143 10.8384C25.3161 10.786 25.3264 10.7808 25.2075 11.1789C24.9024 12.2003 25.1868 13.3003 25.9419 14.044C26.5263 14.6097 27.09 14.8402 27.8968 14.8402C28.507 14.835 28.8794 14.725 29.4017 14.395C29.9913 14.0179 30.4722 13.316 30.6119 12.635C30.6998 12.2108 30.6532 11.4617 30.5188 11.0741C30.0637 9.80654 28.7915 9.03132 27.4675 9.22512Z" fill="white"/>
<path d="M27.5246 10.5451C26.5886 10.7755 26.1076 11.8336 26.542 12.7083C26.8058 13.2321 27.3022 13.5359 27.897 13.5307C28.3366 13.5255 28.559 13.4364 28.8796 13.1378C29.2571 12.7869 29.345 12.5774 29.345 12.0169C29.345 11.5979 29.3295 11.5193 29.2054 11.3046C28.8486 10.6865 28.1763 10.3827 27.5246 10.5451ZM28.0935 11.5979C28.1814 11.6555 28.2849 11.7603 28.3211 11.8336C28.3624 11.9174 28.4452 11.975 28.5538 11.996L28.7245 12.0274L28.5693 12.0379C28.4452 12.0431 28.3883 12.085 28.3159 12.2212C28.2642 12.3207 28.1556 12.4307 28.0728 12.4622C27.9539 12.5145 27.9228 12.5617 27.9177 12.6926L27.9125 12.855L27.8763 12.7083C27.8608 12.6245 27.778 12.525 27.6798 12.4622C27.5867 12.4098 27.4781 12.2893 27.4367 12.2055C27.3747 12.0903 27.3074 12.0431 27.1885 12.0274L27.0178 12.0065L27.1988 12.0012C27.354 11.9907 27.3953 11.9645 27.4419 11.8336C27.4781 11.7393 27.5712 11.645 27.6849 11.5874C27.8349 11.5193 27.8711 11.4669 27.8815 11.3412L27.8866 11.1789L27.9073 11.336C27.9228 11.4408 27.9849 11.5298 28.0935 11.5979Z" fill="white"/>
<path d="M20.6308 11.2365C20.5325 11.2469 20.3256 11.2731 20.1808 11.2888C19.9119 11.315 19.9067 11.3203 19.9067 11.4931C19.9067 11.7498 19.7774 12.3888 19.6481 12.7764C18.9758 14.7511 17.1451 16.0973 14.8023 16.3487C14.161 16.4168 13.3232 16.3592 12.7492 16.202C12.5837 16.1601 12.4337 16.1339 12.4182 16.1549C12.3716 16.202 13.0439 17.5325 13.3646 18.0091C13.5249 18.2501 13.6439 18.4543 13.6335 18.4701C13.5818 18.5172 13.0801 18.3548 12.6923 18.1663C12.1441 17.8939 11.689 17.5429 11.1615 16.9772C10.696 16.4796 10.4581 16.1182 10.2513 15.5997C10.1478 15.3325 10.122 15.1859 10.122 14.8087C10.122 14.4683 10.1065 14.3478 10.0599 14.3478C9.96164 14.3478 9.60997 14.5992 9.47551 14.7616C9.36173 14.8978 9.36173 14.8978 9.39276 14.7721C9.42379 14.6411 9.73409 14.2954 9.89441 14.2064C9.99267 14.154 9.99267 14.1435 9.88407 13.8711C9.82201 13.714 9.74444 13.4783 9.71341 13.3369C9.68238 13.2007 9.641 13.0907 9.62032 13.0907C9.54274 13.0907 9.25313 13.4416 9.18073 13.625C9.07729 13.8711 9.07729 14.4683 9.17038 14.924C9.72892 17.5744 12.413 19.9 14.9161 19.9C15.2884 19.9 15.2936 19.9 15.8263 20.2405C16.3952 20.6019 17.9932 21.44 18.4328 21.6024C18.5776 21.6547 18.7172 21.7228 18.7431 21.7543C18.7741 21.7857 18.831 21.8171 18.8724 21.8171C18.9138 21.8224 19.3482 21.9847 19.8292 22.1838C20.6359 22.5085 20.7445 22.5452 21.1531 22.5609C21.5875 22.5819 21.6082 22.5766 22.3684 22.2833C23.3045 21.9166 24.4112 21.4086 26.3971 20.4343C28.0055 19.6434 27.9952 19.6486 29.2519 19.481C30.1363 19.3605 30.5862 19.24 31.0878 18.9729C31.967 18.5067 33.0013 17.3334 33.5599 16.1549C33.8754 15.5001 33.9891 15.0706 33.9891 14.5311C33.9891 14.1802 33.9684 14.0702 33.8598 13.8502C33.7202 13.5831 33.5444 13.384 33.291 13.2216C33.1151 13.1116 33.0634 13.1431 33.022 13.3892C33.0065 13.4992 32.9341 13.7245 32.8669 13.8869L32.7428 14.1907H32.9341C33.1875 14.1907 33.4771 14.2797 33.6219 14.3949C33.7409 14.4945 33.7357 14.4945 33.4047 14.4159C32.9548 14.3111 32.6652 14.3583 32.5256 14.5573C32.4221 14.704 32.4221 14.7092 32.5256 14.7406C32.7014 14.7983 32.8359 15.0235 32.8359 15.2592C32.8359 15.4268 32.7738 15.5892 32.5721 15.9454C31.6929 17.4958 30.7517 18.2082 29.3915 18.3548C28.983 18.402 28.9726 18.4648 29.4846 17.8415C29.7846 17.4749 30.3276 16.6734 30.5862 16.223L30.7258 15.9768L30.431 16.0763C29.8156 16.2911 29.376 16.3539 28.5434 16.3539C27.4211 16.3539 26.4696 16.1287 25.5955 15.652C24.0337 14.7983 23.1028 13.4416 22.8597 11.6555C22.8339 11.4617 22.7977 11.2888 22.7873 11.2731C22.7563 11.2417 20.8531 11.2103 20.6308 11.2365ZM21.0083 14.1383C20.9824 14.3268 20.9876 14.3478 21.0962 14.3478C21.4065 14.3478 21.9547 14.8821 21.8409 15.0706C21.7168 15.2644 21.4117 15.4582 21.1893 15.4844C20.9824 15.5106 20.9411 15.4949 20.7704 15.3273C20.548 15.1178 20.5273 14.9554 20.6773 14.573C20.7704 14.3321 20.9824 13.9288 21.0186 13.9288C21.029 13.9288 21.0238 14.023 21.0083 14.1383ZM23.7855 17.6215C23.7855 17.6739 23.7337 17.7001 23.6458 17.7001C23.5631 17.7001 22.5598 17.7734 21.4168 17.8572C18.981 18.0406 19.1413 18.0353 19.2241 17.9515C19.2654 17.9096 20.0412 17.831 21.4737 17.721C22.6736 17.632 23.6872 17.5534 23.7234 17.5482C23.7544 17.5482 23.7855 17.5796 23.7855 17.6215Z" fill="white"/>
<path d="M23.8579 22.0528L23.8631 22.2728L22.8287 22.8385L21.7944 23.4095H21.2824H20.7704L19.7516 22.938L18.7328 22.4614L18.7586 22.1785C18.769 22.0214 18.769 21.8904 18.7535 21.8904C18.7379 21.8904 18.6604 22.0581 18.5828 22.2623C18.5001 22.4666 18.4276 22.608 18.4173 22.5714C18.4018 22.5347 18.1484 22.7599 17.8174 23.1057C17.5019 23.4356 17.1916 23.7394 17.1244 23.7813C16.9951 23.8652 16.7675 24.5985 16.2607 26.5837C15.9763 27.6889 15.9194 28.1289 16.0435 28.2965C16.1056 28.3803 17.626 29.2498 17.6519 29.2131C17.6622 29.2026 17.7036 28.9093 17.7502 28.5584C17.7967 28.2074 17.8484 27.8879 17.8691 27.846C17.8898 27.7831 17.8484 27.7779 17.6364 27.7989C17.4347 27.8146 17.3726 27.8041 17.3726 27.7517C17.3726 27.5789 17.6467 26.6622 17.8122 26.2694L17.9984 25.8451L17.7553 25.3632C17.5795 25.007 17.5123 24.8027 17.4916 24.567L17.4605 24.2475H17.9053H18.3501L18.3708 24.0747L18.3914 23.9071L18.3966 24.0694L18.407 24.2318L18.8362 24.2632C19.3844 24.2999 19.7412 24.4151 20.0412 24.6508L20.2894 24.8394L20.486 24.6089C20.6825 24.3732 20.7187 24.2266 20.6359 23.9385L20.6049 23.8128L20.4187 23.9909C20.3205 24.0904 20.1964 24.2266 20.1498 24.2947C20.1033 24.368 20.0515 24.4099 20.036 24.3942C19.9895 24.347 20.3515 23.9123 20.5635 23.7604C20.7549 23.6294 20.8014 23.619 21.3289 23.619H21.8927L22.1667 23.9175C22.5339 24.3156 22.627 24.4989 22.3012 24.1794C22.1616 24.0432 22.0323 23.9332 22.0168 23.9332C22.0013 23.9332 21.9444 24.0432 21.8927 24.1742L21.8047 24.4099L22.1099 24.7242L22.4098 25.0332L22.6477 24.808C23.0408 24.4256 23.3459 24.2894 24.0079 24.1951C24.2096 24.1637 24.3957 24.1113 24.4164 24.0747C24.4423 24.0328 24.4578 24.0328 24.4578 24.0694C24.4578 24.1061 24.6181 24.1428 24.8664 24.1637L25.2697 24.2004L25.2025 24.5775C25.1094 25.0646 25.0008 25.3999 24.7888 25.8294C24.6181 26.1699 24.6181 26.1803 24.7112 26.3008C24.9491 26.6046 25.2077 27.1598 25.3059 27.5579C25.337 27.6993 25.3318 27.7046 25.1301 27.7046C25.0163 27.7046 24.9232 27.7203 24.9232 27.7412C24.9232 27.7674 24.9491 27.8827 24.975 27.9979C25.0008 28.1184 25.0474 28.4327 25.0784 28.705C25.1094 28.9722 25.1404 29.2026 25.1508 29.2079C25.1663 29.2288 25.7662 28.9041 26.4799 28.4955C26.785 28.3227 26.8367 28.2388 26.8367 27.9246C26.8367 27.7203 26.4799 26.2694 26.0869 24.8708C25.8593 24.0537 25.7766 23.839 25.6835 23.7813C25.6214 23.7394 25.2646 23.3937 24.8922 23.0114C24.5199 22.6238 24.2044 22.3095 24.1889 22.3095C24.1682 22.3095 24.1682 22.3619 24.1837 22.4247C24.194 22.4928 24.1475 22.4038 24.0751 22.2362C23.9044 21.8276 23.8527 21.7857 23.8579 22.0528ZM24.2354 22.6866C24.2199 22.7285 24.2044 22.7128 24.2044 22.6552C24.1992 22.5976 24.2147 22.5661 24.2302 22.5871C24.2458 22.6028 24.2509 22.65 24.2354 22.6866ZM18.3035 23.0952C18.2673 23.3676 18.2673 23.3728 18.257 23.1633C18.2518 22.9747 18.2932 22.7442 18.3294 22.7914C18.3346 22.8019 18.3242 22.938 18.3035 23.0952ZM24.3492 23.0428C24.3492 23.0899 24.3285 23.0847 24.3026 23.0166C24.2768 22.959 24.2561 22.8752 24.2561 22.8333C24.2561 22.7861 24.2768 22.7914 24.3026 22.8595C24.3285 22.9171 24.3492 23.0009 24.3492 23.0428ZM24.4526 23.4095C24.4526 23.4566 24.4319 23.4514 24.4061 23.3833C24.3802 23.3256 24.3595 23.2418 24.3595 23.1999C24.3595 23.1528 24.3802 23.158 24.4061 23.2261C24.4319 23.2837 24.4526 23.3676 24.4526 23.4095ZM18.3397 23.7342C18.3294 23.8023 18.319 23.7604 18.319 23.6452C18.3139 23.5299 18.3242 23.4775 18.3397 23.5247C18.3501 23.5771 18.3501 23.6714 18.3397 23.7342ZM24.494 23.839C24.4836 23.9071 24.4733 23.8547 24.4733 23.7237C24.4733 23.5928 24.4836 23.5404 24.494 23.6033C24.5043 23.6714 24.5043 23.7761 24.494 23.839Z" fill="white"/>
<path d="M20.8118 23.8599C20.8945 24.3575 20.8842 24.3418 21.0859 24.368C21.5151 24.4308 21.5772 24.3994 21.7065 24.0694C21.7737 23.9018 21.8203 23.7551 21.8099 23.7447C21.7996 23.7342 21.5617 23.7132 21.2824 23.6923L20.7808 23.6556L20.8118 23.8599Z" fill="white"/>
<path d="M16.4364 24.0171C15.8468 24.2475 13.5041 24.829 13.1058 24.8447C12.78 24.8551 12.6404 24.9075 12.5059 25.0699C12.4439 25.1432 11.0217 28.4222 10.4062 29.9045C10.2821 30.2136 10.2459 30.685 10.339 30.9207L10.3907 31.0569H11.1665H11.9422L11.9474 30.6221C11.9526 30.1298 11.9784 30.1402 12.0301 30.664L12.0715 31.0307H12.3249H12.5835L12.7438 30.376C12.8317 30.0145 12.9455 29.6007 12.9972 29.4541C13.0645 29.2446 13.1007 28.8046 13.1576 27.5684L13.2248 25.9499L13.1989 27.626C13.1679 29.2917 13.1731 29.3126 13.3179 30.1821L13.4627 31.0569H14.7453H16.0278V30.8002V30.5488L16.5967 30.2188C16.9122 30.0355 17.1656 29.8731 17.1656 29.8522C17.1656 29.8364 16.9277 29.7422 16.6381 29.6479C16.3433 29.5536 16.0744 29.4488 16.0382 29.4174C15.9916 29.3807 15.9761 29.2288 15.9864 28.8884C15.9968 28.5793 15.9761 28.3227 15.9244 28.1603C15.852 27.9089 15.852 27.8879 16.1002 26.9032C16.2347 26.348 16.4726 25.4523 16.6277 24.9075C16.7829 24.3575 16.9018 23.8966 16.8967 23.8757C16.8863 23.8599 16.6795 23.9228 16.4364 24.0171ZM13.2713 25.5937C13.261 25.6775 13.2506 25.6094 13.2506 25.4523C13.2506 25.2951 13.261 25.227 13.2713 25.3056C13.2817 25.3894 13.2817 25.5151 13.2713 25.5937Z" fill="white"/>
<path d="M26.1489 24.7923C26.2988 25.3266 26.5367 26.2275 26.6867 26.7984C26.9401 27.7884 26.9453 27.846 26.8884 28.0974C26.8522 28.2389 26.8212 28.5898 26.816 28.8727C26.8108 29.2655 26.7953 29.3965 26.7333 29.4331C26.6919 29.4645 26.4281 29.5588 26.154 29.6531C25.8748 29.7474 25.6472 29.8364 25.6472 29.8522C25.6472 29.8679 25.9058 30.0355 26.2161 30.2188L26.785 30.5593V30.8107V31.0569L28.0624 31.0464L29.3449 31.0307L29.4846 30.2188C29.6294 29.4174 29.6294 29.3807 29.6087 27.757L29.588 26.107L29.6552 27.626C29.7121 28.9827 29.7328 29.1974 29.8518 29.6164C29.9293 29.8731 30.0431 30.2974 30.1052 30.5593L30.2241 31.0307L30.4517 31.0464C30.7154 31.0674 30.762 31.0202 30.7723 30.7164C30.7827 30.2869 30.8602 30.2293 30.8654 30.6483L30.8706 31.0569H31.6412H32.4169L32.3445 30.8317C31.667 28.6841 30.824 26.2327 30.4982 25.4628C30.281 24.9651 30.1517 24.8604 29.7225 24.8447C29.1898 24.8237 26.9918 24.2685 26.2213 23.9595C26.0351 23.8861 25.8851 23.8285 25.8799 23.8285C25.8748 23.8285 25.9937 24.2633 26.1489 24.7923ZM29.5622 25.8294C29.5466 25.8661 29.5363 25.8399 29.5363 25.7666C29.5363 25.6932 29.5466 25.667 29.5622 25.6985C29.5725 25.7351 29.5725 25.798 29.5622 25.8294Z" fill="white"/>
<path d="M21.8565 26.4894C21.7789 26.5785 21.7686 26.8142 21.7686 28.8308V31.0726L23.5166 31.0412C24.4733 31.0203 25.5801 31.0045 25.9731 31.0045H26.6816V30.795V30.5907L26.0507 30.2136C25.699 30.0093 25.3318 29.7841 25.2284 29.7212L25.0422 29.6008L25.0112 28.9775C24.9905 28.637 24.9543 28.2546 24.9233 28.1237C24.8922 27.9927 24.8612 27.8356 24.8457 27.7675C24.8198 27.6627 24.7888 27.6522 24.5095 27.6522H24.2044L24.1837 27.8984L24.1682 28.1499L24.1579 27.9037C24.1475 27.6261 24.1941 27.647 23.5269 27.5527C22.7305 27.4375 22.5133 27.3118 22.2081 26.8037C21.9496 26.369 21.9599 26.3742 21.8565 26.4894ZM23.7855 28.1918C23.7855 28.2441 22.4254 30.1979 22.3788 30.2136C22.3064 30.2398 22.3374 30.1927 23.1132 29.0508C23.6148 28.3122 23.7855 28.0975 23.7855 28.1918ZM24.132 29.8889C24.1268 30.1717 24.1165 29.9517 24.1165 29.407C24.1165 28.857 24.1268 28.6265 24.132 28.8936C24.1423 29.1608 24.1423 29.606 24.132 29.8889Z" fill="white"/>
<path d="M20.429 26.678C20.1808 27.0813 19.6636 27.4218 19.1206 27.5318C19.0378 27.5475 18.9654 27.5789 18.9499 27.5999C18.9396 27.6208 19.2292 28.1865 19.6015 28.8622C20.3566 30.2293 20.5686 30.6431 20.4755 30.5488C20.4393 30.5174 20.0515 29.8417 19.617 29.056C19.1826 28.2703 18.7999 27.6261 18.7585 27.6261C18.712 27.6261 18.6861 27.757 18.6603 28.1237L18.6344 28.6213L18.6241 28.1341L18.6137 27.6418L18.4741 27.6732C18.3914 27.6889 18.2466 27.7151 18.1431 27.7361C17.9621 27.7675 17.9518 27.778 17.8949 28.0608C17.8535 28.2913 17.7397 29.386 17.7346 29.6008C17.7346 29.6165 17.3881 29.8417 16.9588 30.0931C16.5347 30.3446 16.1624 30.575 16.1365 30.6065C16.1107 30.6379 16.1055 30.7426 16.1158 30.8317L16.1417 31.0045H16.933C17.3622 31.0045 18.3862 31.0203 19.1981 31.0412L20.6824 31.0726V28.7889C20.6824 26.8456 20.6721 26.4999 20.61 26.4999C20.5686 26.4999 20.4859 26.5785 20.429 26.678ZM18.7017 29.9936C18.6913 30.0774 18.681 30.0198 18.681 29.8784C18.681 29.7317 18.6913 29.6689 18.7017 29.7317C18.712 29.7998 18.712 29.915 18.7017 29.9936Z" fill="white"/>
<path d="M20.7341 28.8412V31.0569H21.1996H21.665V28.8622V26.6622L21.1996 26.6465L20.7341 26.6308V28.8412Z" fill="white"/>
<path d="M8.25487 32.6649C8.23935 32.6911 8.2135 33.0421 8.19281 33.4506C8.15661 34.1735 8.15661 34.1997 8.26004 34.1997C8.34279 34.1997 8.36865 34.1525 8.3945 33.9378C8.43071 33.6601 8.57551 33.4454 8.77721 33.3878L8.89098 33.3563V35.6349C8.89098 37.8819 8.89098 37.9186 8.78755 37.9186C8.69963 37.9186 8.68412 37.9553 8.68412 38.1543V38.39H9.20128H9.71845V38.1543C9.71845 37.9396 9.7081 37.9186 9.58915 37.9186H9.45986V35.6401C9.45986 34.2311 9.48055 33.3616 9.51158 33.3616C9.73913 33.3616 9.946 33.6549 9.98737 34.0425C9.99772 34.1263 10.0391 34.1787 10.1063 34.1892C10.2098 34.2049 10.2098 34.1839 10.1942 33.8225C10.1477 32.8902 10.1115 32.6545 10.0184 32.6387C9.95117 32.6283 9.92531 32.6545 9.92531 32.7278C9.92531 32.8325 9.89945 32.8378 9.20645 32.8378C8.53414 32.8378 8.48759 32.8325 8.46174 32.733C8.43588 32.6335 8.30141 32.5864 8.25487 32.6649Z" fill="white"/>
<path d="M15.4384 32.6702C15.4281 32.6911 15.4022 32.9897 15.3815 33.3354C15.366 33.6811 15.3402 34.0163 15.3247 34.0844C15.304 34.1892 15.3195 34.2049 15.4177 34.1892C15.5005 34.1787 15.5419 34.1316 15.5522 34.0425C15.5936 33.6549 15.8004 33.3616 16.028 33.3616C16.059 33.3616 16.0797 34.2311 16.0797 35.6401V37.9186H15.9504C15.8315 37.9186 15.8211 37.9396 15.8211 38.1543V38.39H16.3383H16.8555V38.1543C16.8555 37.9553 16.8399 37.9186 16.752 37.9186C16.6486 37.9186 16.6486 37.8819 16.6486 35.6349V33.3563L16.7675 33.3878C16.9641 33.4454 17.1089 33.6601 17.1451 33.9378C17.1709 34.1525 17.1968 34.1997 17.2795 34.1997C17.383 34.1997 17.383 34.1735 17.3468 33.4506C17.3261 33.0421 17.3002 32.6911 17.2847 32.6649C17.2382 32.5864 17.1037 32.6335 17.0778 32.733C17.052 32.8325 17.0054 32.8378 16.3331 32.8378C15.6505 32.8378 15.6143 32.8325 15.6143 32.733C15.6143 32.6335 15.4901 32.5864 15.4384 32.6702Z" fill="white"/>
<path d="M13.918 32.822C13.2974 33.1311 12.8733 34.3044 12.8733 35.7186C12.8733 36.7819 13.0233 37.4891 13.3543 38.0024C13.5922 38.369 13.8197 38.5105 14.13 38.479C14.4506 38.4528 14.6989 38.2486 14.9264 37.8348C15.1798 37.3738 15.2057 37.2691 15.1126 37.1329C15.035 37.0229 15.0299 37.0229 14.8851 37.2848C14.7403 37.5414 14.523 37.7091 14.3369 37.7091C13.8611 37.7091 13.4629 36.7767 13.406 35.5248C13.3698 34.7706 13.4422 34.1996 13.6335 33.7649C13.83 33.3196 14.0938 33.1573 14.3679 33.3092C14.5489 33.4035 14.6472 33.8225 14.5748 34.1263C14.5334 34.2939 14.5334 34.3777 14.5903 34.4825C14.6575 34.6187 14.6627 34.6134 14.9782 34.032C15.2936 33.4558 15.2936 33.4454 15.216 33.2882C15.1436 33.152 15.1333 33.1468 15.0868 33.2254C15.0402 33.3039 15.0144 33.2935 14.8489 33.0944C14.5541 32.7487 14.2438 32.6544 13.918 32.822Z" fill="white"/>
<path d="M26.035 32.8063C25.8075 32.9058 25.4972 33.2777 25.3368 33.6444C24.8921 34.6396 24.8145 36.2476 25.1558 37.3371C25.5954 38.7461 26.547 38.898 27.1211 37.6514C27.271 37.3267 27.2762 37.2429 27.1779 37.1067C27.1107 37.0176 27.1055 37.0229 27.0176 37.201C26.9711 37.3057 26.847 37.4628 26.7539 37.5519C26.4074 37.8609 26.0971 37.7143 25.823 37.1067C25.5696 36.5514 25.4765 35.9491 25.5023 35.0639C25.523 34.4982 25.554 34.2467 25.642 33.9744C25.854 33.3196 26.2315 33.0682 26.5315 33.393C26.6453 33.5134 26.6556 33.5763 26.6556 33.9953C26.6608 34.2572 26.6866 34.4877 26.7177 34.5191C26.7539 34.5558 26.8521 34.4248 27.0642 34.0477C27.2245 33.7544 27.3538 33.4977 27.3538 33.4715C27.3538 33.4401 27.3279 33.3563 27.2969 33.2725C27.2503 33.1415 27.24 33.1363 27.1883 33.2201C27.1417 33.3092 27.1211 33.2934 26.9504 33.0944C26.666 32.7592 26.3608 32.6596 26.035 32.8063Z" fill="white"/>
<path d="M28.5175 32.8325C28.1089 33.0211 27.7521 33.5972 27.5762 34.3567C27.5038 34.6553 27.4832 34.9696 27.4832 35.6662C27.4832 36.4572 27.4987 36.6405 27.6021 36.9914C28.0313 38.5052 28.9726 38.9609 29.6914 37.9971C30.4155 37.0281 30.4982 34.7496 29.8518 33.5082C29.5053 32.843 29.0243 32.5968 28.5175 32.8325ZM29.1174 33.4611C29.438 33.8068 29.6552 34.6291 29.7121 35.6924C29.7845 37.0438 29.4898 37.9709 28.9933 37.9709C28.895 37.9709 28.7606 37.9238 28.6881 37.8714C28.5175 37.73 28.3054 37.2743 28.1762 36.7557C28.0417 36.2005 27.9848 34.8544 28.0727 34.3306C28.2434 33.3511 28.6726 32.9896 29.1174 33.4611Z" fill="white"/>
<path d="M20.4393 32.864C20.2428 32.9478 20.0411 33.283 19.8808 33.7911L19.767 34.163L19.705 33.8225C19.6325 33.3773 19.6325 33.3092 19.7256 33.3092C19.7825 33.3092 19.8032 33.2463 19.8032 33.0735V32.8378H19.3378H18.8723V33.0735C18.8723 33.2673 18.8878 33.3092 18.9654 33.3092C19.0482 33.3092 19.105 33.592 19.4619 35.7291C19.6843 37.0648 19.8756 38.2067 19.886 38.2695C19.9066 38.3743 19.9377 38.39 20.1652 38.39C20.4135 38.39 20.4186 38.3848 20.4445 38.2172C20.5117 37.7667 21.0703 34.4982 21.1996 33.7911C21.2823 33.3459 21.3392 32.9583 21.3237 32.9268C21.3133 32.8902 21.1944 32.864 21.0548 32.864C20.9203 32.864 20.7651 32.8483 20.7083 32.8273C20.6514 32.8064 20.5324 32.8221 20.4393 32.864ZM20.7393 33.7544C20.8737 33.7544 20.9203 33.7754 20.9099 33.833C20.8996 33.8749 20.76 34.6658 20.6048 35.5825C20.4497 36.5044 20.31 37.2639 20.2997 37.2743C20.2738 37.3005 19.8342 34.6554 19.8446 34.5244C19.8601 34.3463 20.0463 33.9325 20.1807 33.7911C20.2687 33.6968 20.3204 33.6811 20.4238 33.7125C20.4962 33.7335 20.6358 33.7492 20.7393 33.7544Z" fill="white"/>
<path d="M3.09888 33.0683C3.09888 33.2882 3.10922 33.3092 3.22817 33.3092H3.35746V35.6139V37.9186H3.22817C3.10922 37.9186 3.09888 37.9396 3.09888 38.1543V38.39H3.70913C4.59348 38.3848 4.84689 38.2434 5.16237 37.5519C5.40026 37.0229 5.49335 36.4886 5.49335 35.5877C5.49852 34.1787 5.1934 33.3092 4.57797 32.9792C4.40213 32.8849 4.25733 32.864 3.73499 32.8483L3.09888 32.8273V33.0683ZM4.47971 33.5973C4.7538 33.8906 4.86758 34.3463 4.89344 35.3258C4.94516 36.9286 4.66589 37.8138 4.10218 37.8348L3.90048 37.84L3.88497 35.6663C3.8798 34.472 3.88497 33.4611 3.90048 33.4192C3.94703 33.2935 4.29353 33.3982 4.47971 33.5973Z" fill="white"/>
<path d="M5.83984 33.0735C5.83984 33.2882 5.85019 33.3092 5.96913 33.3092H6.09843V35.6139V37.9186H5.96913C5.85019 37.9186 5.83984 37.9396 5.83984 38.1543V38.39H6.73971C7.55683 38.39 7.64475 38.3795 7.67061 38.2957C7.68612 38.2486 7.74818 37.9396 7.81024 37.6096C7.9085 37.0701 7.9085 37.0072 7.8361 36.9339C7.7637 36.8605 7.75335 36.8605 7.7275 36.9548C7.71198 37.0072 7.63441 37.1853 7.55683 37.3424C7.44823 37.5729 7.37065 37.6567 7.18447 37.751C7.05518 37.8138 6.88452 37.861 6.7966 37.8557L6.64145 37.84L6.62593 36.5934L6.61559 35.352H7.02932H7.44306V35.5615C7.44306 35.7344 7.45857 35.771 7.54649 35.771C7.64475 35.771 7.64992 35.7344 7.64992 35.0639C7.64992 34.3935 7.64475 34.3568 7.54649 34.3568C7.45857 34.3568 7.44306 34.3935 7.44306 34.5663V34.7758H7.02932H6.61042L6.62593 34.0792L6.64145 33.3878L6.92072 33.3982C7.26205 33.414 7.40685 33.5082 7.55166 33.7859C7.64992 33.9849 7.66544 33.9954 7.74301 33.922C7.81541 33.8435 7.81541 33.7963 7.73267 33.3354L7.63958 32.8378H6.73971H5.83984V33.0735Z" fill="white"/>
<path d="M10.5459 33.0735C10.5459 33.2725 10.5614 33.3092 10.6493 33.3092C10.7528 33.3092 10.7528 33.3459 10.7528 35.6139C10.7528 37.8819 10.7528 37.9186 10.6493 37.9186C10.5614 37.9186 10.5459 37.9553 10.5459 38.1543V38.39L11.4354 38.3795L12.3249 38.3638L12.4646 37.6672C12.5939 37.002 12.5939 36.9705 12.506 36.9181C12.4232 36.8762 12.4025 36.8972 12.356 37.0701C12.2422 37.51 11.9526 37.7929 11.5699 37.8453L11.3216 37.8819V36.6143V35.352H11.7354H12.1491V35.5615C12.1491 35.7396 12.1646 35.771 12.2525 35.771C12.356 35.771 12.356 35.7448 12.3456 35.0796C12.3301 34.4668 12.3198 34.383 12.2422 34.3673C12.1646 34.3516 12.1491 34.3882 12.1491 34.5611V34.7758H11.7354H11.3216V34.0635V33.3459L11.5854 33.3773C11.7302 33.3982 11.906 33.4454 11.9784 33.4925C12.0871 33.5659 12.2629 33.8068 12.3249 33.9639C12.3353 33.9954 12.3818 33.9797 12.4284 33.9325C12.5163 33.8539 12.5008 33.6916 12.3301 32.953C12.3043 32.8378 12.2939 32.8378 11.4251 32.8378H10.5459V33.0735Z" fill="white"/>
<path d="M17.6829 33.0735C17.6829 33.2882 17.6932 33.3092 17.8122 33.3092H17.9414V35.6139V37.9186H17.8122C17.6932 37.9186 17.6829 37.9396 17.6829 38.1543V38.39H18.2H18.7172V38.1543C18.7172 37.9396 18.7068 37.9186 18.5879 37.9186H18.4586V35.6139V33.3092H18.5879C18.7068 33.3092 18.7172 33.2882 18.7172 33.0735V32.8378H18.2H17.6829V33.0735Z" fill="white"/>
<path d="M21.6133 33.0735C21.6133 33.2725 21.6288 33.3092 21.7167 33.3092C21.8201 33.3092 21.8201 33.3459 21.8201 35.6139C21.8201 37.8819 21.8201 37.9186 21.7167 37.9186C21.6288 37.9186 21.6133 37.9553 21.6133 38.1543V38.39H22.508H23.4027L23.5371 37.6934C23.6613 37.0648 23.6664 36.9967 23.594 36.9391C23.5216 36.8815 23.4958 36.9129 23.3923 37.1696C23.201 37.6357 22.9165 37.8662 22.508 37.8662H22.389V36.6091V35.352H22.8028H23.2165V35.5615C23.2165 35.7344 23.232 35.771 23.3199 35.771C23.4182 35.771 23.4234 35.7344 23.4234 35.0639C23.4234 34.3935 23.4182 34.3568 23.3199 34.3568C23.232 34.3568 23.2165 34.3935 23.2165 34.5663V34.7758H22.8028H22.389V34.0635V33.3459L22.6528 33.3773C22.7976 33.3982 22.9734 33.4454 23.0458 33.4925C23.1544 33.5659 23.3303 33.8068 23.3923 33.9639C23.4027 33.9954 23.4492 33.9797 23.5009 33.9325C23.5837 33.8539 23.5837 33.8173 23.4906 33.3563L23.3923 32.864L22.5028 32.8483L21.6133 32.8378V33.0735Z" fill="white"/>
<path d="M30.6483 32.8745C30.6276 32.8902 30.6121 33.0002 30.6121 33.1102C30.6121 33.2882 30.6276 33.3092 30.7414 33.3092H30.8706V35.6139V37.9186H30.7414C30.6224 37.9186 30.6121 37.9396 30.6121 38.1543V38.39H30.9999H31.3878V38.1543C31.3878 37.9396 31.3775 37.9186 31.2585 37.9186H31.1292L31.1344 36.0958L31.1396 34.2782L31.5171 35.4568C31.7291 36.1063 32.0239 37.0281 32.1739 37.51L32.448 38.39H32.6135H32.7842V35.8496C32.7842 33.3459 32.7842 33.3092 32.8876 33.3092C32.9755 33.3092 32.991 33.2725 32.991 33.0735V32.8325L32.6445 32.8483L32.2928 32.864L32.2773 33.084C32.2618 33.2935 32.2722 33.3092 32.3911 33.3092H32.5256L32.5204 34.9434L32.5152 36.5829L32.3756 36.1639C32.298 35.9334 32.0239 35.0901 31.7705 34.2887L31.3154 32.8378H30.9948C30.8241 32.8378 30.6638 32.8535 30.6483 32.8745Z" fill="white"/>
<path d="M34.2062 32.953C34.1803 33.0944 33.3529 37.861 33.3529 37.8976C33.3529 37.9081 33.3063 37.9186 33.2494 37.9186C33.1615 37.9186 33.146 37.9553 33.146 38.1543V38.39H33.508H33.87V38.1543C33.87 37.9396 33.8597 37.9186 33.7459 37.9186H33.627L33.72 37.3791C33.7718 37.0858 33.8183 36.8396 33.8183 36.8291C33.8183 36.8239 34.051 36.8186 34.3355 36.8186C34.925 36.8186 34.8526 36.7401 34.9716 37.4838L35.044 37.9186H34.925C34.8113 37.9186 34.8009 37.9396 34.8009 38.1543V38.39H35.2922H35.7835V38.1595C35.7835 37.9815 35.7629 37.9238 35.6956 37.9081C35.6232 37.8924 35.5405 37.4838 35.1836 35.4044C34.9457 34.0373 34.7544 32.9006 34.7492 32.8744C34.7492 32.8535 34.6354 32.8378 34.4906 32.8378C34.2682 32.8378 34.232 32.8535 34.2062 32.953ZM34.744 36.1744C34.7492 36.2896 34.7285 36.2948 34.3355 36.2948C34.0821 36.2948 33.9217 36.2739 33.9217 36.2425C33.9217 36.1848 34.2631 34.2363 34.32 33.9639C34.3406 33.8487 34.4079 34.1158 34.5475 34.933C34.6561 35.551 34.744 36.1115 34.744 36.1744Z" fill="white"/>
<path d="M35.9905 33.0735C35.9905 33.2725 36.006 33.3092 36.0939 33.3092C36.1973 33.3092 36.1973 33.3459 36.1973 35.6139C36.1973 37.8819 36.1973 37.9186 36.0939 37.9186C36.006 37.9186 35.9905 37.9553 35.9905 38.1543V38.39H36.3525H36.7145V38.1543C36.7145 37.9396 36.7042 37.9186 36.5852 37.9186H36.4559V36.0958C36.4559 35.0534 36.4766 34.3097 36.5025 34.3568C36.5387 34.4197 37.5782 37.662 37.7437 38.2329C37.7747 38.3324 37.8212 38.3691 37.9454 38.3795L38.1109 38.3953V35.8549V33.3092H38.2401C38.3591 33.3092 38.3694 33.2883 38.3694 33.0735V32.8378H38.0074H37.6454V33.0735C37.6454 33.2725 37.6609 33.3092 37.7488 33.3092C37.8523 33.3092 37.8523 33.3406 37.8471 34.9173L37.8419 36.5306L37.6971 36.0853C37.6144 35.8391 37.3455 35.0115 37.1024 34.2363L36.6576 32.8378H36.3266H35.9905V33.0735Z" fill="white"/>
</g>
<defs>
<clipPath id="clip0_634_5648">
<rect width="42" height="42" fill="white"/>
</clipPath>
</defs>
</svg>
