<svg width="42" height="43" viewBox="0 0 42 43" fill="none" xmlns="http://www.w3.org/2000/svg">
<path d="M3.49388 0L5.71214 0.83002L11.6936 5.3658V8.58635L4.70339 3.41428L3.49388 0ZM12.7684 6.14605L20.0916 11.2684L17.538 12.8306L12.7684 9.26885V6.14605ZM1.14096 4.29229L4.29941 5.46355L9.47534 8.73209L9.74467 11.9526L3.62854 8.63434L1.14096 4.29229ZM10.3494 9.12311L10.751 12.3916L14.7174 14.8302L16.7324 13.1719L10.3494 9.12311ZM0 9.17109L2.75446 9.41459L8.26583 12.4396L9.00525 15.5127L2.41903 11.9526L0 9.17109ZM9.47534 13.0262L14.3795 15.5127L14.2473 18.0987L10.1462 16.1472L9.47534 13.0262ZM15.5229 15.3669L21.4358 11.3661L21.0343 14.6844L15.1875 19.1722L15.5229 15.3669ZM22.4446 10.6356L28.8961 6.19582L28.7615 9.6101L22.2438 13.6589L22.4446 10.6356ZM29.7702 5.31781V8.58635L35.8178 4.82904L38.036 0.34125L34.9437 1.46275L29.7702 5.31781ZM15.0528 20.196L15.1189 23.0753L21.8398 18.2942L22.2438 15.0257L15.0528 20.196ZM23.3847 14.2934L22.8485 17.2207L30.375 12.6831L30.8451 9.41459L23.3847 14.2934ZM31.7852 8.73209L31.249 12.1481L37.7667 8.9276L40.7905 4.29229L37.0958 5.75682L31.7852 8.73209ZM32.9286 12.4396L37.5659 10.0491L41.5985 9.31861L37.4974 13.2696L32.3239 15.6602L32.9286 12.4396ZM23.7226 17.9529L31.5845 13.1221L31.1144 16.0494L23.0493 20.7825L23.7226 17.9529ZM0.470094 13.0262L3.42532 13.8064L7.86184 16.6839L8.93669 19.9045L3.02378 16.4884L0.470094 13.0262ZM8.80203 16.7817L9.87688 19.8547L13.8433 21.7582V19.0265L8.80203 16.7817ZM14.852 24.099L22.2438 19.0265L21.639 21.6107L14.3795 26.9765L14.852 24.099ZM9.47534 21.513L13.6401 22.8318L13.574 25.5635L10.4816 24.538L9.47534 21.513ZM7.92795 20.8802L9.20602 24.1488L2.6198 21.5627L0 18.4399H3.15845L7.92795 20.8802ZM9.54145 25.6115L13.5079 26.9285L13.3732 29.2213L11.0203 28.4411L9.54145 25.6115ZM1.20951 23.0753L2.55369 23.0255L8.06261 24.977L9.67611 28.0998L3.62854 25.7573L1.20951 23.0753ZM14.2473 28.1976L23.184 21.8062L22.3099 24.49L13.978 30.0016L14.2473 28.1976ZM25.199 20.4892L23.7226 23.8057L30.7104 20.635L32.39 16.7817L25.199 20.4892ZM33.5995 16.2929L37.3627 14.2934L41.5985 13.3176L38.3054 17.2207L32.7279 19.709L33.5995 16.2929ZM33.3987 20.9282L39.5149 18.6834L42 18.6354L37.7006 22.4407L31.9199 24.1968L33.3987 20.9282ZM31.9885 21.2695L30.6443 24.6855L23.588 27.611L24.7975 24.6358L31.9885 21.2695ZM13.978 30.6841L23.2501 25.416L21.9059 28.3913L13.7086 32.1486L13.978 30.6841ZM13.3047 33.4656L22.7139 28.928L20.9657 31.7096L12.9031 34.7346L13.3047 33.4656ZM24.6408 28.0838L31.8097 25.7093L29.3882 29.0596L22.7139 30.9453L24.6408 28.0838ZM33.1539 25.2223L31.2711 28.2793L35.9304 27.0103L40.2763 23.3028L37.7667 23.5303L33.1539 25.2223ZM32.0325 28.9938L30.3309 31.8553L34.4516 30.6858L39.5589 27.5311L36.3785 27.7248L32.0325 28.9938ZM30.419 29.4808L28.0906 32.5058L20.9217 34.6529L23.0714 31.7576L30.419 29.4808ZM21.4603 32.4738L19.22 34.9461L11.2455 37.6441L12.2739 35.7904L21.4603 32.4738ZM2.19377 27.2058L5.3767 27.4333L8.95873 28.7005L10.3494 31.5958L5.10738 29.9696L2.19377 27.2058ZM11.1109 29.6443L12.9031 30.1971V32.1806L12.0511 31.8891L11.1109 29.6443ZM12.6779 33.1244L11.603 35.0439L7.79573 34.0681L5.33019 31.6616L7.74921 31.5301L12.6779 33.1244ZM7.43582 35.5629L9.45331 35.5309L11.2896 35.9539L10.5722 37.4824L8.37845 36.6364L7.43582 35.5629ZM4.0766 42.6562L11.603 38.1685L20.0696 35.3052L17.1144 38.2982L4.0766 42.6562ZM21.9084 34.7862L19.4893 37.0949L27.0598 35.3709L29.0749 32.7689L21.9084 34.7862ZM30.5978 32.6071L28.7174 35.0457L33.4673 34.1677L36.1557 31.7611L33.5995 31.7291L30.5978 32.6071ZM27.3732 36.5422L30.3309 35.8917L33.5114 35.8259L30.419 38.1027L24.9101 38.7532L27.3732 36.5422ZM26.2078 36.4444L23.9675 38.5915L19.1735 38.2982L22.9367 36.7039L26.2078 36.4444ZM26.1196 39.1442L30.9136 38.851L35.1249 41.5507L29.256 40.639L26.1196 39.1442Z" fill="white"/>
</svg>
