<svg width="42" height="42" viewBox="0 0 42 42" fill="none" xmlns="http://www.w3.org/2000/svg">
<path d="M37.4795 30.1985V11.8015C38.5059 11.5414 39.445 11.014 40.2013 10.273C40.9576 9.53194 41.5041 8.60376 41.7851 7.5829C42.0661 6.56204 42.0716 5.48495 41.8011 4.46127C41.5305 3.43759 40.9935 2.50388 40.2448 1.75517C39.4961 1.00647 38.5624 0.469504 37.5387 0.198943C36.5151 -0.0716185 35.438 -0.0661165 34.4171 0.214888C33.3962 0.495892 32.4681 1.04237 31.727 1.79868C30.986 2.555 30.4586 3.49415 30.1985 4.52054H11.8015C11.5414 3.49415 11.014 2.555 10.273 1.79868C9.53194 1.04237 8.60376 0.495892 7.5829 0.214888C6.56204 -0.0661165 5.48495 -0.0716185 4.46127 0.198943C3.43759 0.469504 2.50388 1.00647 1.75517 1.75517C1.00647 2.50388 0.469504 3.43759 0.198943 4.46127C-0.0716185 5.48495 -0.0661165 6.56204 0.214888 7.5829C0.495892 8.60376 1.04237 9.53194 1.79868 10.273C2.555 11.014 3.49415 11.5414 4.52054 11.8015V30.1985C3.49415 30.4586 2.555 30.986 1.79868 31.727C1.04237 32.4681 0.495892 33.3962 0.214888 34.4171C-0.0661165 35.438 -0.0716185 36.5151 0.198943 37.5387C0.469504 38.5624 1.00647 39.4961 1.75517 40.2448C2.50388 40.9935 3.43759 41.5305 4.46127 41.8011C5.48495 42.0716 6.56204 42.0661 7.5829 41.7851C8.60376 41.5041 9.53194 40.9576 10.273 40.2013C11.014 39.445 11.5414 38.5059 11.8015 37.4795H30.1985C30.4586 38.5059 30.986 39.445 31.727 40.2013C32.4681 40.9576 33.3962 41.5041 34.4171 41.7851C35.438 42.0661 36.5151 42.0716 37.5387 41.8011C38.5624 41.5305 39.4961 40.9935 40.2448 40.2448C40.9935 39.4961 41.5305 38.5624 41.8011 37.5387C42.0716 36.5151 42.0661 35.438 41.7851 34.4171C41.5041 33.3962 40.9576 32.4681 40.2013 31.727C39.445 30.986 38.5059 30.4586 37.4795 30.1985ZM35.9813 3.0224C36.5739 3.0224 37.1532 3.19813 37.646 3.52737C38.1387 3.8566 38.5227 4.32455 38.7495 4.87205C38.9763 5.41954 39.0356 6.02199 38.92 6.60321C38.8044 7.18443 38.519 7.71831 38.1 8.13735C37.681 8.55638 37.1471 8.84175 36.5659 8.95736C35.9847 9.07298 35.3822 9.01364 34.8347 8.78686C34.2872 8.56008 33.8193 8.17604 33.49 7.68331C33.1608 7.19057 32.9851 6.61127 32.9851 6.01867C32.9851 5.22401 33.3007 4.4619 33.8627 3.89999C34.4246 3.33808 35.1867 3.0224 35.9813 3.0224V3.0224ZM3.0224 6.01867C3.0224 5.42606 3.19813 4.84677 3.52737 4.35403C3.8566 3.8613 4.32455 3.47726 4.87205 3.25048C5.41954 3.0237 6.02199 2.96436 6.60321 3.07998C7.18443 3.19559 7.71831 3.48095 8.13735 3.89999C8.55638 4.31902 8.84175 4.85291 8.95736 5.43413C9.07298 6.01535 9.01364 6.61779 8.78686 7.16529C8.56008 7.71279 8.17604 8.18074 7.68331 8.50997C7.19057 8.83921 6.61127 9.01494 6.01867 9.01494C5.22401 9.01494 4.4619 8.69926 3.89999 8.13735C3.33808 7.57544 3.0224 6.81333 3.0224 6.01867V6.01867ZM6.01867 38.9776C5.42606 38.9776 4.84677 38.8019 4.35403 38.4726C3.8613 38.1434 3.47726 37.6755 3.25048 37.128C3.0237 36.5805 2.96436 35.978 3.07998 35.3968C3.19559 34.8156 3.48095 34.2817 3.89999 33.8627C4.31902 33.4436 4.85291 33.1583 5.43413 33.0426C6.01535 32.927 6.61779 32.9864 7.16529 33.2131C7.71279 33.4399 8.18074 33.824 8.50997 34.3167C8.83921 34.8094 9.01494 35.3887 9.01494 35.9813C9.01494 36.776 8.69926 37.5381 8.13735 38.1C7.57544 38.6619 6.81333 38.9776 6.01867 38.9776ZM30.1985 34.4832H11.8015C11.5325 33.4527 10.9937 32.5125 10.2406 31.7594C9.4875 31.0063 8.5473 30.4675 7.5168 30.1985V11.8015C8.5473 11.5325 9.4875 10.9937 10.2406 10.2406C10.9937 9.4875 11.5325 8.5473 11.8015 7.5168H30.1985C30.4675 8.5473 31.0063 9.4875 31.7594 10.2406C32.5125 10.9937 33.4527 11.5325 34.4832 11.8015V30.1985C33.4527 30.4675 32.5125 31.0063 31.7594 31.7594C31.0063 32.5125 30.4675 33.4527 30.1985 34.4832V34.4832ZM35.9813 38.9776C35.3887 38.9776 34.8094 38.8019 34.3167 38.4726C33.824 38.1434 33.4399 37.6755 33.2131 37.128C32.9864 36.5805 32.927 35.978 33.0426 35.3968C33.1583 34.8156 33.4436 34.2817 33.8627 33.8627C34.2817 33.4436 34.8156 33.1583 35.3968 33.0426C35.978 32.927 36.5805 32.9864 37.128 33.2131C37.6755 33.4399 38.1434 33.824 38.4726 34.3167C38.8019 34.8094 38.9776 35.3887 38.9776 35.9813C38.9776 36.776 38.6619 37.5381 38.1 38.1C37.5381 38.6619 36.776 38.9776 35.9813 38.9776Z" fill="black"/>
<path d="M28.4906 13.5094H13.5093V16.5057H19.5018V29.9889H22.4981V16.5057H28.4906V13.5094Z" fill="black"/>
</svg>
