<svg width="17" height="17" viewBox="0 0 17 17" fill="none" xmlns="http://www.w3.org/2000/svg">
<path d="M0.685258 16.5496C0.923322 16.8732 1.54721 17.0567 2.18752 16.9843C2.46663 16.9553 3.26291 16.5013 9.37048 12.9132C15.4698 9.3202 16.2415 8.85176 16.2907 8.68756C16.4385 8.23361 16.8325 8.49922 9.37048 4.10457C1.90841 -0.285253 2.3517 -0.0534475 1.58005 0.0334797C1.1778 0.0769432 0.685258 0.3667 0.611376 0.603336C0.463613 1.05729 0.12704 0.825483 6.91596 4.82896L13.1713 8.50888L6.95701 12.1695C3.47635 14.2171 0.701676 15.8832 0.652422 15.9605C0.537495 16.144 0.553913 16.371 0.685258 16.5496Z" fill="white"/>
</svg>
