<svg width="19" height="15" viewBox="0 0 19 15" fill="none" xmlns="http://www.w3.org/2000/svg">
<path d="M0.483286 0.815952C0.136066 1.03021 -0.0608647 1.59171 0.0168711 2.16799C0.0479654 2.41919 0.53511 3.13584 4.38562 8.63265C8.24132 14.1221 8.74401 14.8166 8.92022 14.8609C9.40736 14.9939 9.12233 15.3485 13.8383 8.63265C18.5491 1.91679 18.3003 2.31575 18.2071 1.62126C18.1604 1.25924 17.8495 0.815952 17.5955 0.749458C17.1084 0.616471 17.3571 0.313555 13.0609 6.42358L9.11196 12.0534L5.18371 6.46052C2.98638 3.32793 1.19846 0.830728 1.11554 0.786399C0.918607 0.682964 0.675034 0.697741 0.483286 0.815952Z" fill="black"/>
</svg>
