<svg width="42" height="43" viewBox="0 0 42 43" fill="none" xmlns="http://www.w3.org/2000/svg">
<path d="M0.212249 1.804C0.0348058 2.59029 -0.0539155 11.5765 0.0348058 21.6859L0.30097 40.2199L7.84228 40.5569C12.0122 40.7815 15.7385 41.3432 16.1821 41.9048C17.3355 43.3651 24.9655 43.3651 26.1189 41.9048C26.5625 41.3432 30.2888 40.7815 34.4587 40.5569L42 40.2199V20.5626V0.905386L33.6602 0.568405C26.1189 0.231423 25.1429 0.456077 23.2798 2.70262L21.1505 5.17382L19.1099 2.81495C17.3355 0.680732 16.0046 0.34375 8.90694 0.34375C3.05133 0.34375 0.567134 0.793059 0.212249 1.804ZM3.40622 19.4394V36.2885H9.88287C15.2949 36.2885 16.7144 36.6254 18.0452 38.535C18.9325 39.7706 19.1986 40.7815 18.6663 40.7815C18.134 40.7815 17.4242 40.2199 17.158 39.6583C16.8919 38.9843 13.2543 38.535 9.08438 38.535H1.63179V20.5626C1.63179 9.32993 1.98668 2.59029 2.519 2.59029C3.05133 2.59029 3.40622 8.99294 3.40622 19.4394ZM17.9565 4.38753C19.1099 5.73546 19.3761 8.99294 19.3761 21.4613C19.3761 41.2308 17.7791 39.9952 17.4242 20.001L17.158 5.39847L12.1009 5.06149L6.95507 4.72451V18.3161V31.7954H11.3911C13.8753 31.7954 15.8272 32.2447 15.8272 32.9186C15.8272 33.5926 13.4317 34.0419 10.5039 34.0419H5.18064V18.3161V2.59029H10.8588C14.8513 2.59029 16.9806 3.15193 17.9565 4.38753ZM37.1203 18.3161V34.0419H31.797C28.8692 34.0419 26.4738 33.5926 26.4738 32.9186C26.4738 32.2447 28.5144 31.7954 30.9098 31.7954H35.3459V18.3161V4.72451L30.2888 5.06149L25.1429 5.39847L24.8768 20.001C24.5219 39.9952 22.9249 41.2308 22.9249 21.4613C22.9249 2.92728 23.1024 2.59029 31.4422 2.59029H37.1203V18.3161ZM40.6692 20.5626V38.535H33.2166C29.0467 38.535 25.4091 38.9843 25.1429 39.6583C24.8768 40.2199 24.167 40.7815 23.6347 40.7815C23.1024 40.7815 23.3685 39.7706 24.2557 38.535C25.5866 36.6254 27.0061 36.2885 32.4181 36.2885H38.8948V19.4394C38.8948 8.99294 39.2496 2.59029 39.782 2.59029C40.3143 2.59029 40.6692 9.32993 40.6692 20.5626ZM12.2784 10.4532C12.2784 13.0367 11.9235 13.823 10.5039 13.823C9.08438 13.823 8.7295 13.0367 8.7295 10.4532C8.7295 7.86967 9.08438 7.08338 10.5039 7.08338C11.9235 7.08338 12.2784 7.86967 12.2784 10.4532ZM15.8272 10.4532C15.8272 12.2504 15.4723 13.823 14.94 13.823C14.4964 13.823 14.0528 12.2504 14.0528 10.4532C14.0528 8.54364 14.4964 7.08338 14.94 7.08338C15.4723 7.08338 15.8272 8.54364 15.8272 10.4532ZM33.5715 10.4532C33.5715 13.5984 33.394 13.823 30.0226 13.823C26.6512 13.823 26.4738 13.5984 26.4738 10.4532C26.4738 7.30804 26.6512 7.08338 30.0226 7.08338C33.394 7.08338 33.5715 7.30804 33.5715 10.4532ZM15.8272 18.3161C15.8272 20.2257 15.2062 20.5626 12.2784 20.5626C9.35055 20.5626 8.7295 20.2257 8.7295 18.3161C8.7295 16.4065 9.35055 16.0696 12.2784 16.0696C15.2062 16.0696 15.8272 16.4065 15.8272 18.3161ZM33.5715 19.4394C33.5715 22.5845 33.394 22.8092 30.0226 22.8092C26.6512 22.8092 26.4738 22.5845 26.4738 19.4394C26.4738 16.2942 26.6512 16.0696 30.0226 16.0696C33.394 16.0696 33.5715 16.2942 33.5715 19.4394ZM15.8272 26.179C15.8272 29.3242 15.6498 29.5488 12.2784 29.5488C8.90694 29.5488 8.7295 29.3242 8.7295 26.179C8.7295 23.0338 8.90694 22.8092 12.2784 22.8092C15.6498 22.8092 15.8272 23.0338 15.8272 26.179ZM33.5715 27.3023C33.5715 29.2118 32.9504 29.5488 30.0226 29.5488C27.0948 29.5488 26.4738 29.2118 26.4738 27.3023C26.4738 25.3927 27.0948 25.0557 30.0226 25.0557C32.9504 25.0557 33.5715 25.3927 33.5715 27.3023Z" fill="white"/>
<path d="M9.6167 10.4534C9.6167 11.015 10.0603 11.5767 10.5039 11.5767C11.0362 11.5767 11.3911 11.015 11.3911 10.4534C11.3911 9.77943 11.0362 9.33012 10.5039 9.33012C10.0603 9.33012 9.6167 9.77943 9.6167 10.4534Z" fill="white"/>
<path d="M27.3613 10.4534C27.3613 11.015 27.8049 11.5767 28.2485 11.5767C28.7809 11.5767 29.1358 11.015 29.1358 10.4534C29.1358 9.77943 28.7809 9.33012 28.2485 9.33012C27.8049 9.33012 27.3613 9.77943 27.3613 10.4534Z" fill="white"/>
<path d="M30.9097 10.4534C30.9097 11.015 31.3533 11.5767 31.7969 11.5767C32.3292 11.5767 32.6841 11.015 32.6841 10.4534C32.6841 9.77943 32.3292 9.33012 31.7969 9.33012C31.3533 9.33012 30.9097 9.77943 30.9097 10.4534Z" fill="white"/>
<path d="M9.6167 18.3159C9.6167 18.8776 10.0603 19.4392 10.5039 19.4392C11.0362 19.4392 11.3911 18.8776 11.3911 18.3159C11.3911 17.642 11.0362 17.1927 10.5039 17.1927C10.0603 17.1927 9.6167 17.642 9.6167 18.3159Z" fill="white"/>
<path d="M13.1655 18.3159C13.1655 18.8776 13.6091 19.4392 14.0527 19.4392C14.5851 19.4392 14.94 18.8776 14.94 18.3159C14.94 17.642 14.5851 17.1927 14.0527 17.1927C13.6091 17.1927 13.1655 17.642 13.1655 18.3159Z" fill="white"/>
<path d="M27.3613 19.4395C27.3613 20.0011 27.8049 20.5627 28.2485 20.5627C28.7809 20.5627 29.1358 20.0011 29.1358 19.4395C29.1358 18.7655 28.7809 18.3162 28.2485 18.3162C27.8049 18.3162 27.3613 18.7655 27.3613 19.4395Z" fill="white"/>
<path d="M30.9097 19.4395C30.9097 20.0011 31.3533 20.5627 31.7969 20.5627C32.3292 20.5627 32.6841 20.0011 32.6841 19.4395C32.6841 18.7655 32.3292 18.3162 31.7969 18.3162C31.3533 18.3162 30.9097 18.7655 30.9097 19.4395Z" fill="white"/>
<path d="M9.6167 26.179C9.6167 26.7406 10.0603 27.3022 10.5039 27.3022C11.0362 27.3022 11.3911 26.7406 11.3911 26.179C11.3911 25.505 11.0362 25.0557 10.5039 25.0557C10.0603 25.0557 9.6167 25.505 9.6167 26.179Z" fill="white"/>
<path d="M13.1655 26.179C13.1655 26.7406 13.6091 27.3022 14.0527 27.3022C14.5851 27.3022 14.94 26.7406 14.94 26.179C14.94 25.505 14.5851 25.0557 14.0527 25.0557C13.6091 25.0557 13.1655 25.505 13.1655 26.179Z" fill="white"/>
<path d="M27.3613 27.3025C27.3613 27.8641 27.8049 28.4258 28.2485 28.4258C28.7809 28.4258 29.1358 27.8641 29.1358 27.3025C29.1358 26.6285 28.7809 26.1792 28.2485 26.1792C27.8049 26.1792 27.3613 26.6285 27.3613 27.3025Z" fill="white"/>
<path d="M30.9097 27.3025C30.9097 27.8641 31.3533 28.4258 31.7969 28.4258C32.3292 28.4258 32.6841 27.8641 32.6841 27.3025C32.6841 26.6285 32.3292 26.1792 31.7969 26.1792C31.3533 26.1792 30.9097 26.6285 30.9097 27.3025Z" fill="white"/>
</svg>
