<svg width="29" height="36" viewBox="0 0 29 36" fill="none" xmlns="http://www.w3.org/2000/svg">
<path d="M1.78125 35.6955H26.7188C27.7008 35.6955 28.5 34.9459 28.5 34.0248V10.6348C28.5 10.6158 28.4905 10.6003 28.4893 10.5824C28.4869 10.5568 28.4798 10.5345 28.4739 10.51C28.4552 10.4327 28.4188 10.36 28.367 10.2973C28.3587 10.2873 28.3599 10.275 28.3516 10.265L18.8516 0.240709C18.848 0.237367 18.8432 0.237367 18.8397 0.234026C18.7672 0.162977 18.6758 0.111439 18.5749 0.0847755C18.5523 0.0780927 18.5321 0.0758651 18.5084 0.0725236C18.4739 0.0669546 18.4419 0.0535889 18.4062 0.0535889H1.78125C0.799187 0.0535889 0 0.803183 0 1.7243V34.0248C0 34.9459 0.799187 35.6955 1.78125 35.6955ZM19 2.07515L26.5846 10.0779H19.5938C19.3325 10.0779 19 9.61008 19 9.24252V2.07515ZM1.1875 1.7243C1.1875 1.5766 1.25006 1.43495 1.36141 1.33051C1.47276 1.22607 1.62378 1.1674 1.78125 1.1674H17.8125V9.24252C17.8125 10.1436 18.5903 11.1917 19.5938 11.1917H27.3125V34.0248C27.3125 34.1725 27.2499 34.3141 27.1386 34.4186C27.0272 34.523 26.8762 34.5817 26.7188 34.5817H1.78125C1.44875 34.5817 1.1875 34.3367 1.1875 34.0248V1.7243Z" fill="white"/>
<path d="M6.53125 15.6471H21.9688C22.1262 15.6471 22.2772 15.5884 22.3886 15.4839C22.4999 15.3795 22.5625 15.2378 22.5625 15.0901C22.5625 14.9424 22.4999 14.8008 22.3886 14.6964C22.2772 14.5919 22.1262 14.5332 21.9688 14.5332H6.53125C6.37378 14.5332 6.22276 14.5919 6.11141 14.6964C6.00006 14.8008 5.9375 14.9424 5.9375 15.0901C5.9375 15.2378 6.00006 15.3795 6.11141 15.4839C6.22276 15.5884 6.37378 15.6471 6.53125 15.6471V15.6471ZM6.53125 20.1023H21.9688C22.1262 20.1023 22.2772 20.0436 22.3886 19.9392C22.4999 19.8347 22.5625 19.6931 22.5625 19.5454C22.5625 19.3977 22.4999 19.256 22.3886 19.1516C22.2772 19.0472 22.1262 18.9885 21.9688 18.9885H6.53125C6.37378 18.9885 6.22276 19.0472 6.11141 19.1516C6.00006 19.256 5.9375 19.3977 5.9375 19.5454C5.9375 19.6931 6.00006 19.8347 6.11141 19.9392C6.22276 20.0436 6.37378 20.1023 6.53125 20.1023V20.1023ZM6.53125 11.1918H13.6562C13.8137 11.1918 13.9647 11.1331 14.0761 11.0287C14.1874 10.9243 14.25 10.7826 14.25 10.6349C14.25 10.4872 14.1874 10.3456 14.0761 10.2411C13.9647 10.1367 13.8137 10.078 13.6562 10.078H6.53125C6.37378 10.078 6.22276 10.1367 6.11141 10.2411C6.00006 10.3456 5.9375 10.4872 5.9375 10.6349C5.9375 10.7826 6.00006 10.9243 6.11141 11.0287C6.22276 11.1331 6.37378 11.1918 6.53125 11.1918V11.1918ZM6.53125 24.5575H21.9688C22.1262 24.5575 22.2772 24.4989 22.3886 24.3944C22.4999 24.29 22.5625 24.1483 22.5625 24.0006C22.5625 23.8529 22.4999 23.7113 22.3886 23.6068C22.2772 23.5024 22.1262 23.4437 21.9688 23.4437H6.53125C6.37378 23.4437 6.22276 23.5024 6.11141 23.6068C6.00006 23.7113 5.9375 23.8529 5.9375 24.0006C5.9375 24.1483 6.00006 24.29 6.11141 24.3944C6.22276 24.4989 6.37378 24.5575 6.53125 24.5575V24.5575ZM6.53125 29.0128H21.9688C22.1262 29.0128 22.2772 28.9541 22.3886 28.8497C22.4999 28.7452 22.5625 28.6036 22.5625 28.4559C22.5625 28.3082 22.4999 28.1665 22.3886 28.0621C22.2772 27.9576 22.1262 27.899 21.9688 27.899H6.53125C6.37378 27.899 6.22276 27.9576 6.11141 28.0621C6.00006 28.1665 5.9375 28.3082 5.9375 28.4559C5.9375 28.6036 6.00006 28.7452 6.11141 28.8497C6.22276 28.9541 6.37378 29.0128 6.53125 29.0128V29.0128Z" fill="white"/>
</svg>
