<svg width="42" height="42" viewBox="0 0 42 42" fill="none" xmlns="http://www.w3.org/2000/svg">
<path d="M4.66667 0C2.093 0 0 1.94056 0 4.32677V30.2874C0 32.6736 2.093 34.6142 4.66667 34.6142H13.034L21 42L28.966 34.6142H37.3333C39.907 34.6142 42 32.6736 42 30.2874V4.32677C42 1.94056 39.907 0 37.3333 0H4.66667ZM37.3333 30.2874H27.034L21 35.8819L14.966 30.2874H4.66667V4.32677H37.3333V30.2874Z" fill="black"/>
<path d="M9.33325 10.8169H32.6666V15.1437H9.33325V10.8169ZM9.33325 19.4704H25.6666V23.7972H9.33325V19.4704Z" fill="black"/>
</svg>
