<svg width="33" height="31" viewBox="0 0 33 31" fill="none" xmlns="http://www.w3.org/2000/svg">
<path d="M22.0528 6.98511L24.888 9.71957L22.0528 6.98511ZM23.876 4.57615L16.2096 11.9735C15.8135 12.3552 15.5434 12.8415 15.4332 13.3711L14.7251 16.7914L18.2698 16.1069C18.8186 16.0009 19.322 15.7413 19.7182 15.359L27.3846 7.96161C27.615 7.73932 27.7977 7.47542 27.9224 7.18498C28.0471 6.89454 28.1112 6.58325 28.1112 6.26888C28.1112 5.95451 28.0471 5.64322 27.9224 5.35278C27.7977 5.06234 27.615 4.79844 27.3846 4.57615C27.1542 4.35386 26.8807 4.17753 26.5797 4.05722C26.2787 3.93692 25.9561 3.875 25.6303 3.875C25.3045 3.875 24.9819 3.93692 24.6809 4.05722C24.3799 4.17753 24.1064 4.35386 23.876 4.57615V4.57615Z" stroke="#0F056B" stroke-width="3.05303" stroke-linecap="round" stroke-linejoin="round"/>
<path d="M25.434 19.3747V23.2497C25.434 23.9348 25.152 24.5919 24.6499 25.0764C24.1478 25.5608 23.4668 25.833 22.7568 25.833H8.03176C7.32171 25.833 6.64073 25.5608 6.13865 25.0764C5.63656 24.5919 5.35449 23.9348 5.35449 23.2497V9.04134C5.35449 8.3562 5.63656 7.69912 6.13865 7.21465C6.64073 6.73018 7.32171 6.45801 8.03176 6.45801H12.0477" stroke="#0F056B" stroke-width="3.05303" stroke-linecap="round" stroke-linejoin="round"/>
</svg>
