<svg width="35" height="35" viewBox="0 0 35 35" fill="none" xmlns="http://www.w3.org/2000/svg">
<path d="M24.0625 15.2441H10.9375C10.7871 15.2441 10.6641 15.3672 10.6641 15.5176V29.2578C10.6641 29.4082 10.7871 29.5312 10.9375 29.5312H24.0625C24.2129 29.5312 24.3359 29.4082 24.3359 29.2578V15.5176C24.3359 15.3672 24.2129 15.2441 24.0625 15.2441ZM12.8516 17.4316H22.1484V21.4307H12.8516V17.4316ZM22.1484 27.3438H12.8516V23.3447H22.1484V27.3438Z" fill="black"/>
<path d="M14.4922 25.5664C14.4922 25.8565 14.6074 26.1347 14.8125 26.3398C15.0177 26.5449 15.2959 26.6602 15.5859 26.6602C15.876 26.6602 16.1542 26.5449 16.3593 26.3398C16.5645 26.1347 16.6797 25.8565 16.6797 25.5664C16.6797 25.2763 16.5645 24.9981 16.3593 24.793C16.1542 24.5879 15.876 24.4727 15.5859 24.4727C15.2959 24.4727 15.0177 24.5879 14.8125 24.793C14.6074 24.9981 14.4922 25.2763 14.4922 25.5664ZM14.4922 19.4824C14.4922 19.7725 14.6074 20.0507 14.8125 20.2558C15.0177 20.4609 15.2959 20.5762 15.5859 20.5762C15.876 20.5762 16.1542 20.4609 16.3593 20.2558C16.5645 20.0507 16.6797 19.7725 16.6797 19.4824C16.6797 19.1923 16.5645 18.9141 16.3593 18.709C16.1542 18.5039 15.876 18.3887 15.5859 18.3887C15.2959 18.3887 15.0177 18.5039 14.8125 18.709C14.6074 18.9141 14.4922 19.1923 14.4922 19.4824Z" fill="black"/>
<path d="M27.7334 12.6089C26.1679 8.47656 22.1792 5.53711 17.5068 5.53711C12.8345 5.53711 8.84568 8.47314 7.28025 12.6055C4.33738 13.3813 2.17039 16.0713 2.18748 19.2637C2.20799 22.832 4.97654 25.7339 8.46287 26.0449C8.62351 26.0586 8.76023 25.9321 8.76023 25.7715V23.707C8.76023 23.5703 8.65769 23.4541 8.52097 23.437C7.59812 23.3208 6.72654 22.9175 6.05662 22.2578C5.23631 21.4546 4.78513 20.3745 4.78513 19.2295C4.78513 18.2725 5.09617 17.3701 5.68064 16.6182C6.25144 15.8867 7.05467 15.3569 7.93992 15.1245L9.23533 14.7827L9.71043 13.5283C10.0044 12.749 10.4145 12.0176 10.9306 11.3579C11.4399 10.7017 12.0449 10.1274 12.7217 9.64893C14.1264 8.66113 15.7807 8.13818 17.5068 8.13818C19.2329 8.13818 20.8872 8.66113 22.292 9.65234C22.9721 10.1309 23.5737 10.7051 24.083 11.3613C24.5991 12.021 25.0093 12.7524 25.3032 13.5317L25.7749 14.7827L27.0669 15.1245C28.9194 15.6167 30.2148 17.3018 30.2148 19.2261C30.2148 20.3745 29.7636 21.4512 28.9433 22.2544C28.2768 22.9106 27.4087 23.3174 26.4858 23.4336C26.3491 23.4507 26.25 23.5669 26.25 23.7036V25.7715C26.25 25.9321 26.3901 26.0586 26.5508 26.0449C30.0268 25.7305 32.7885 22.832 32.8125 19.2705C32.833 16.0781 30.6694 13.3882 27.7334 12.6089V12.6089Z" fill="black"/>
</svg>
