<svg width="42" height="42" viewBox="0 0 42 42" fill="none" xmlns="http://www.w3.org/2000/svg">
<path d="M18.3077 4.30769C18.9108 4.30769 19.3846 4.78154 19.3846 5.38462V9.69231H32.3077V22.6154H36.6154C37.2185 22.6154 37.6923 23.0892 37.6923 23.6923C37.6923 24.2954 37.2185 24.7692 36.6154 24.7692H32.3077V37.6923H27.7415C26.2769 33.9231 22.5938 31.2308 18.3077 31.2308C14.0215 31.2308 10.3385 33.9231 8.87385 37.6923H4.30769V33.1262C8.07692 31.6615 10.7692 27.9785 10.7692 23.6923C10.7692 19.4062 8.09846 15.7231 4.32923 14.2585L4.30769 9.69231H17.2308V5.38462C17.2308 4.78154 17.7046 4.30769 18.3077 4.30769ZM18.3077 0C16.8796 0 15.51 0.567306 14.5002 1.57712C13.4904 2.58693 12.9231 3.95653 12.9231 5.38462H4.30769C1.93846 5.38462 0.0215384 7.32308 0.0215384 9.69231V17.8769H0.646154C3.85538 17.8769 6.46154 20.4831 6.46154 23.6923C6.46154 26.9015 3.85538 29.5077 0.646154 29.5077H0V37.6923C0 40.0615 1.93846 42 4.30769 42H12.4923V41.3538C12.4923 38.1446 15.0985 35.5385 18.3077 35.5385C21.5169 35.5385 24.1231 38.1446 24.1231 41.3538V42H32.3077C34.6769 42 36.6154 40.0615 36.6154 37.6923V29.0769C38.0435 29.0769 39.4131 28.5096 40.4229 27.4998C41.4327 26.49 42 25.1204 42 23.6923C42 22.2642 41.4327 20.8946 40.4229 19.8848C39.4131 18.875 38.0435 18.3077 36.6154 18.3077V9.69231C36.6154 7.32308 34.6769 5.38462 32.3077 5.38462H23.6923C23.6923 3.95653 23.125 2.58693 22.1152 1.57712C21.1054 0.567306 19.7358 0 18.3077 0Z" fill="black"/>
</svg>
