<svg width="42" height="43" viewBox="0 0 42 43" fill="none" xmlns="http://www.w3.org/2000/svg">
<path d="M21 0C8.16357 0 0 8.38131 0 18.6054C0 24.7931 3.42388 30.2645 8.64684 33.6407L8.59091 34.488L7.66433 33.3606C7.02102 35.8073 8.84726 38.2584 11.49 38.4871C12.936 38.6122 14.6251 38.7384 16.2944 38.8416C16.6623 40.9957 18.6348 42.6562 21 42.6562C23.3646 42.6562 25.3369 40.9967 25.7056 38.8434C27.3681 38.7405 29.0697 38.6122 30.51 38.4871C33.1527 38.2584 34.979 35.8073 34.3357 33.3606L33.4091 34.488L33.3532 33.6407C38.5762 30.265 42 24.7931 42 18.6054C42 8.38131 33.8364 0 21 0ZM21 1.81516C21.9282 1.81516 22.816 1.8753 23.6847 1.96229C22.7132 2.20966 21.8805 2.7748 21.2498 3.52751C20.9029 2.87306 20.448 2.2983 19.8907 1.85947C20.2604 1.84467 20.6205 1.81516 21 1.81516ZM27.4264 2.63056C35.4765 4.80141 40.0909 11.0971 40.0909 18.6054C40.0909 24.6225 36.4964 29.8992 31.0581 32.8714C34.8181 29.9585 37.2273 25.4619 37.2273 20.4205C37.2273 20.0749 37.2027 19.7358 37.1807 19.396C37.787 18.8682 38.1818 18.1017 38.1818 17.244C38.1818 14.7306 36.9061 12.4585 34.8223 10.6463L35.486 10.4088L35.1504 9.55795L33.9852 9.97274C32.7054 9.02639 31.1934 8.23193 29.5182 7.63466C29.5621 7.36398 29.5909 7.08826 29.5909 6.80685C29.5909 5.08873 28.7401 3.53324 27.4264 2.63056ZM17.1818 2.72274C18.6454 2.72274 20.0455 4.23972 20.0455 6.35306C20.0455 7.15575 19.8278 7.88185 19.488 8.47134C18.7715 8.76847 18.1753 9.27228 17.7654 9.89829C17.5759 9.94899 17.3827 9.98338 17.1818 9.98338C15.7182 9.98338 14.3182 8.4664 14.3182 6.35306C14.3182 4.23972 15.7182 2.72274 17.1818 2.72274ZM13.4624 2.97268C12.8069 3.91872 12.4091 5.09527 12.4091 6.35306C12.4091 7.07509 12.5344 7.77544 12.7652 8.41993C11.3975 9.11604 10.1815 9.9654 9.14089 10.9388C7.72769 10.9957 6.45445 11.3009 5.49423 12.0059C4.43806 12.7814 3.81818 14.0146 3.81818 15.4289C3.81818 16.6561 4.20524 17.7547 4.87527 18.6692C4.81121 19.2445 4.77273 19.8279 4.77273 20.4205C4.77273 25.4613 7.18271 29.9582 10.9418 32.8714C5.50339 29.8983 1.90909 24.6225 1.90909 18.6054C1.90909 11.4519 6.10512 5.40675 13.4624 2.97268ZM24.8182 3.63032C26.3463 3.63032 27.6818 4.98759 27.6818 6.80685C27.6818 8.62611 26.3463 9.98338 24.8182 9.98338C24.6267 9.98338 24.4427 9.95564 24.2626 9.91602C23.8235 9.22937 23.1536 8.69234 22.3517 8.40398C22.1048 7.93711 21.9545 7.39571 21.9545 6.80685C21.9545 4.98759 23.2901 3.63032 24.8182 3.63032ZM18.1364 5.44548C17.8832 5.44548 17.6404 5.5411 17.4614 5.7113C17.2824 5.88151 17.1818 6.11235 17.1818 6.35306C17.1818 6.59376 17.2824 6.82461 17.4614 6.99481C17.6404 7.16502 17.8832 7.26064 18.1364 7.26064C18.3895 7.26064 18.6323 7.16502 18.8113 6.99481C18.9903 6.82461 19.0909 6.59376 19.0909 6.35306C19.0909 6.11235 18.9903 5.88151 18.8113 5.7113C18.6323 5.5411 18.3895 5.44548 18.1364 5.44548ZM23.8636 5.44548C23.6105 5.44548 23.3677 5.5411 23.1887 5.7113C23.0097 5.88151 22.9091 6.11235 22.9091 6.35306C22.9091 6.59376 23.0097 6.82461 23.1887 6.99481C23.3677 7.16502 23.6105 7.26064 23.8636 7.26064C24.1168 7.26064 24.3596 7.16502 24.5386 6.99481C24.7176 6.82461 24.8182 6.59376 24.8182 6.35306C24.8182 6.11235 24.7176 5.88151 24.5386 5.7113C24.3596 5.5411 24.1168 5.44548 23.8636 5.44548ZM28.9011 9.35233C29.9759 9.73886 30.9505 10.2116 31.8225 10.7438L27.514 12.2807L27.8496 13.1315L32.7733 11.3767C33.691 12.0526 34.4481 12.8065 35.0218 13.6137H27.6818V14.5213H35.5755C36.0254 15.3939 36.2727 16.3103 36.2727 17.244C36.2727 17.8789 36.1537 18.0015 35.6202 18.2349C35.0867 18.4683 34.0614 18.6054 32.7249 18.6054C30.0733 18.6054 26.2299 18.1605 21.9545 18.1534V15.2977C23.5924 14.8894 24.8182 13.4779 24.8182 11.7985C26.5849 11.7985 28.0763 10.7968 28.9011 9.35233ZM21 9.98338C21.1623 9.98338 21.3172 10.0031 21.4642 10.0383H21.4661C22.0345 10.1733 22.5061 10.5544 22.7432 11.054C22.85 11.2795 22.9091 11.5297 22.9091 11.7985C22.9091 12.812 22.0659 13.6137 21 13.6137C19.9341 13.6137 19.0909 12.812 19.0909 11.7985C19.0909 10.7851 19.9341 9.98338 21 9.98338ZM13.6619 10.0188C14.5163 11.095 15.7441 11.7985 17.1818 11.7985C17.1818 13.4779 18.4076 14.8894 20.0455 15.2977V18.3164C18.9375 18.5005 17.9487 18.8105 17.0569 19.1124C15.7063 19.5694 14.5549 19.9668 13.3133 19.9668C10.8738 19.9668 8.9097 19.5063 7.63823 18.7277C6.36676 17.9491 5.72727 16.9383 5.72727 15.4289H15.2727V14.5213H5.87269C6.02078 14.0731 6.27799 13.725 6.66131 13.4435C7.20039 13.0477 8.04476 12.7883 9.12784 12.7309L15.1646 14.0551L15.3809 13.1723L10.5764 12.1176C11.4576 11.3172 12.4926 10.608 13.6619 10.0188ZM27.8123 14.9928L27.5513 15.8649L34.2331 17.6801L34.4941 16.808L27.8123 14.9928ZM15.1571 15.8968L7.52077 17.712L7.75195 18.5912L15.3883 16.776L15.1571 15.8968ZM21.8539 19.9668C25.4596 19.9668 28.7511 20.2894 31.4553 20.3815C31.2356 23.028 30.0326 25.3822 28.2094 27.0944C28.033 26.7548 27.8057 26.4451 27.4991 26.1957C26.8054 25.6316 25.874 25.4122 24.8182 25.4122C23.9574 25.4122 23.0568 25.6243 22.2323 25.983C21.8525 26.1483 21.6163 26.4887 21.2852 26.724C21.0672 26.3417 20.9479 25.9093 20.629 25.5948C20.0003 24.9746 19.1355 24.5047 18.1364 24.5047C16.1167 24.5047 14.1597 25.7417 13.5575 27.5536C13.5475 27.5454 13.5358 27.5388 13.5258 27.5305C11.8102 26.1131 10.7123 24.1328 10.5373 21.5852C11.4061 21.7169 12.3334 21.7819 13.3133 21.7819C14.9735 21.7819 16.3652 21.2717 17.6964 20.8212C19.0276 20.3707 20.304 19.9668 21.8539 19.9668ZM35.3089 20.2131C35.3099 20.2829 35.3182 20.3506 35.3182 20.4205C35.3182 26.1886 31.7885 31.1208 26.7664 33.2951C24.7764 33.449 22.7083 33.5805 21 33.5805C19.2923 33.5805 17.2249 33.449 15.2354 33.2951C10.213 31.1206 6.68182 26.1888 6.68182 20.4205C6.68182 20.3795 6.68519 20.3392 6.68555 20.2982C7.26273 20.6424 7.90691 20.9195 8.60582 21.1402C8.67935 24.387 10.0636 27.0738 12.2749 28.9007C14.5473 30.7782 17.6405 31.7653 21 31.7653C27.5554 31.7653 32.8975 26.7301 33.3643 20.4081C34.0684 20.3909 34.7161 20.3343 35.3089 20.2131ZM18.1364 26.3198C18.5089 26.3198 18.8872 26.4924 19.2531 26.8534C19.619 27.2143 19.929 27.7512 20.0771 28.2839C20.1254 28.4569 20.2263 28.6125 20.3673 28.7311C20.5083 28.8498 20.6831 28.9261 20.8696 28.9505C21.0561 28.975 21.2461 28.9464 21.4156 28.8685C21.585 28.7906 21.7265 28.6667 21.8222 28.5125C21.9779 28.2607 22.4395 27.8888 23.0265 27.6333C23.6136 27.3779 24.312 27.2274 24.8182 27.2274C25.6008 27.2274 26.0229 27.3841 26.2575 27.5748C26.4386 27.7221 26.5768 27.9342 26.6564 28.3016C25.0215 29.3416 23.0833 29.9501 21 29.9501C18.8663 29.9501 16.9108 29.4926 15.2802 28.6632C15.3196 27.4616 16.7643 26.3198 18.1364 26.3198ZM9.67223 34.605C10.8461 34.739 14.0408 35.0878 17.3161 35.2733C16.8803 35.7819 16.5543 36.374 16.382 37.0282C14.7479 36.9273 13.0886 36.8041 11.6634 36.6808C10.4693 36.5775 9.80621 35.6537 9.67223 34.605ZM32.3278 34.605C32.1938 35.6537 31.5307 36.5775 30.3366 36.6808C28.9189 36.804 27.2454 36.9272 25.618 37.0282C25.4457 36.374 25.1197 35.7819 24.6839 35.2733C27.9592 35.0878 31.1539 34.739 32.3278 34.605ZM21 35.3956C22.5928 35.3956 23.8636 36.6039 23.8636 38.1184C23.8636 39.6328 22.5928 40.8411 21 40.8411C19.4072 40.8411 18.1364 39.6328 18.1364 38.1184C18.1364 36.6039 19.4072 35.3956 21 35.3956Z" fill="white"/>
</svg>
