<svg width="36" height="44" viewBox="0 0 36 44" fill="none" xmlns="http://www.w3.org/2000/svg">
<g clip-path="url(#clip0_605_966)">
<path d="M34.7285 11.0918L24.2207 0.583984C23.9277 0.291016 23.5322 0.125 23.1172 0.125H2.375C1.51074 0.125 0.8125 0.823242 0.8125 1.6875V42.3125C0.8125 43.1768 1.51074 43.875 2.375 43.875H33.625C34.4893 43.875 35.1875 43.1768 35.1875 42.3125V12.2002C35.1875 11.7852 35.0215 11.3848 34.7285 11.0918ZM31.584 12.918H22.3945V3.72852L31.584 12.918ZM31.6719 40.3594H4.32812V3.64062H19.0742V14.1875C19.0742 14.7314 19.2903 15.253 19.6749 15.6376C20.0595 16.0222 20.5811 16.2383 21.125 16.2383H31.6719V40.3594ZM19.5625 20.0469C19.5625 19.832 19.3867 19.6562 19.1719 19.6562H16.8281C16.6133 19.6562 16.4375 19.832 16.4375 20.0469V25.3203H11.1641C10.9492 25.3203 10.7734 25.4961 10.7734 25.7109V28.0547C10.7734 28.2695 10.9492 28.4453 11.1641 28.4453H16.4375V33.7188C16.4375 33.9336 16.6133 34.1094 16.8281 34.1094H19.1719C19.3867 34.1094 19.5625 33.9336 19.5625 33.7188V28.4453H24.8359C25.0508 28.4453 25.2266 28.2695 25.2266 28.0547V25.7109C25.2266 25.4961 25.0508 25.3203 24.8359 25.3203H19.5625V20.0469Z" fill="black"/>
</g>
<rect x="1.3125" y="0.625" width="33.375" height="42.75" stroke="black"/>
<defs>
<clipPath id="clip0_605_966">
<rect x="0.8125" y="0.125" width="34.375" height="43.75" fill="white"/>
</clipPath>
</defs>
</svg>
