<svg width="50" height="50" viewBox="0 0 50 50" fill="none" xmlns="http://www.w3.org/2000/svg">
<g clip-path="url(#clip0_570_934)">
<path d="M29.1668 16.6666H9.72238C9.35403 16.6666 9.00076 16.5203 8.74029 16.2598C8.47983 15.9993 8.3335 15.6461 8.3335 15.2777V9.72214C8.3335 9.35378 8.47983 9.00052 8.74029 8.74005C9.00076 8.47958 9.35403 8.33325 9.72238 8.33325H29.1668C29.5352 8.33325 29.8885 8.47958 30.1489 8.74005C30.4094 9.00052 30.5557 9.35378 30.5557 9.72214V15.2777C30.5557 15.6461 30.4094 15.9993 30.1489 16.2598C29.8885 16.5203 29.5352 16.6666 29.1668 16.6666ZM11.1113 13.8888H27.7779V11.0277H11.1113V13.8888Z" fill="black"/>
<path d="M29.1668 19.5557H9.72238C9.35403 19.5557 9.00076 19.702 8.74029 19.9625C8.47983 20.2229 8.3335 20.5762 8.3335 20.9446V26.389C8.3335 26.7574 8.47983 27.1106 8.74029 27.3711C9.00076 27.6316 9.35403 27.7779 9.72238 27.7779H25.5002L30.5557 22.639V20.9446C30.5557 20.5762 30.4094 20.2229 30.1489 19.9625C29.8885 19.702 29.5352 19.5557 29.1668 19.5557ZM27.7779 25.0001H11.1113V22.2223H27.7779V25.0001Z" fill="black"/>
<path d="M15.3612 43.7639V43.6806L15.8056 41.7501H5.55561V5.55561H33.3334V19.7917L36.1112 17.1667V4.16672C36.1112 3.79836 35.9648 3.4451 35.7044 3.18463C35.4439 2.92416 35.0906 2.77783 34.7223 2.77783H4.16672C3.79836 2.77783 3.4451 2.92416 3.18463 3.18463C2.92416 3.4451 2.77783 3.79836 2.77783 4.16672V43.0556C2.77783 43.424 2.92416 43.7772 3.18463 44.0377C3.4451 44.2982 3.79836 44.4445 4.16672 44.4445H15.2778C15.2893 44.2159 15.3171 43.9885 15.3612 43.7639V43.7639Z" fill="black"/>
<path d="M30.5555 26.625L29.4722 27.7222C29.7409 27.6668 29.9873 27.533 30.1801 27.3378C30.3729 27.1425 30.5035 26.8945 30.5555 26.625Z" fill="black"/>
<path d="M8.3335 37.4168C8.3335 37.7851 8.47983 38.1384 8.74029 38.3989C9.00076 38.6593 9.35403 38.8057 9.72238 38.8057H16.4446L16.8613 37.0001L17.0418 36.2362V36.1668H11.1113V33.3334H19.9168L22.6946 30.5557H9.72238C9.35403 30.5557 9.00076 30.702 8.74029 30.9625C8.47983 31.2229 8.3335 31.5762 8.3335 31.9446V37.4168Z" fill="black"/>
<path d="M46.5137 23.1529L41.8331 18.4723C41.6254 18.264 41.3786 18.0987 41.1069 17.986C40.8352 17.8732 40.5439 17.8152 40.2498 17.8152C39.9556 17.8152 39.6643 17.8732 39.3926 17.986C39.1209 18.0987 38.8742 18.264 38.6664 18.4723L19.6248 37.6251L18.0553 44.3056C17.9966 44.5938 17.9952 44.8908 18.0514 45.1795C18.1076 45.4682 18.2202 45.743 18.3828 45.9882C18.5454 46.2333 18.7547 46.444 18.9988 46.6081C19.2429 46.7722 19.517 46.8865 19.8053 46.9445C19.9485 46.9589 20.0927 46.9589 20.2359 46.9445C20.4061 46.9723 20.5796 46.9723 20.7498 46.9445L27.4859 45.4584L46.5137 26.389C46.7215 26.1824 46.8865 25.9368 46.9991 25.6663C47.1116 25.3957 47.1696 25.1056 47.1696 24.8126C47.1696 24.5195 47.1116 24.2294 46.9991 23.9589C46.8865 23.6883 46.7215 23.4427 46.5137 23.2362V23.1529ZM26.0692 42.9306L20.9859 44.0556L22.222 39.014L36.4998 24.5834L40.4164 28.5001L26.0692 42.9306ZM41.9859 26.9306L38.0692 23.014L40.2775 20.8334L44.222 24.7779L41.9859 26.9306Z" fill="black"/>
</g>
<defs>
<clipPath id="clip0_570_934">
<rect width="50" height="50" fill="white"/>
</clipPath>
</defs>
</svg>
