<svg width="50" height="50" viewBox="0 0 50 50" fill="none" xmlns="http://www.w3.org/2000/svg">
<g clip-path="url(#clip0_605_932)">
<rect width="50" height="50" fill="white"/>
<path fill-rule="evenodd" clip-rule="evenodd" d="M43.7498 14.0625V43.75C43.7498 45.4076 43.0913 46.9973 41.9192 48.1694C40.7471 49.3415 39.1574 50 37.4998 50H28.1248V46.875H37.4998C38.3286 46.875 39.1234 46.5458 39.7095 45.9597C40.2955 45.3737 40.6248 44.5788 40.6248 43.75V14.0625H34.3748C33.1316 14.0625 31.9393 13.5686 31.0602 12.6896C30.1811 11.8105 29.6873 10.6182 29.6873 9.375V3.125H12.4998C11.671 3.125 10.8761 3.45424 10.2901 4.04029C9.70401 4.62634 9.37477 5.4212 9.37477 6.25V34.375H6.24977V6.25C6.24977 4.5924 6.90825 3.00269 8.08035 1.83058C9.25245 0.65848 10.8422 0 12.4998 0L29.6873 0L43.7498 14.0625ZM10.2435 41.0125C10.1931 40.4775 10.0448 39.9564 9.80602 39.475C9.56565 38.9907 9.23222 38.5585 8.82477 38.2031C8.38469 37.8229 7.87538 37.5311 7.32477 37.3437C6.68517 37.1261 6.01281 37.0204 5.33727 37.0313C4.20914 37.0313 3.24352 37.2688 2.44352 37.7469C1.65416 38.2104 1.02011 38.8978 0.621645 39.7219C0.189282 40.6506 -0.0235024 41.6664 -0.000230415 42.6906V44.2719C-0.000230415 45.1219 0.109145 45.8969 0.327895 46.6C0.546645 47.3 0.881019 47.9031 1.32789 48.4125C1.77164 48.9187 2.32789 49.3125 2.99352 49.5906C3.66539 49.8656 4.44977 50.0031 5.34664 50.0031C6.18414 50.0031 6.90914 49.8875 7.52477 49.6563C8.08743 49.4619 8.60006 49.1453 9.02582 48.7292C9.45159 48.3132 9.77994 47.808 9.98727 47.25C10.1904 46.7062 10.2904 46.1313 10.2904 45.5281V43.0375H5.36539V44.8781H7.93727V45.675C7.93727 46.0875 7.84352 46.4688 7.65602 46.8094C7.45716 47.1609 7.16089 47.4474 6.80289 47.6344C6.35851 47.8495 5.86817 47.9525 5.37477 47.9344C4.79947 47.9579 4.23157 47.7981 3.75289 47.4781C3.3141 47.1521 2.9823 46.7028 2.79977 46.1875C2.58798 45.5694 2.48644 44.9189 2.49977 44.2656V42.7063C2.49977 41.5656 2.74352 40.6812 3.23102 40.05C3.72477 39.425 4.41852 39.1094 5.30914 39.1094C5.62695 39.1053 5.9434 39.1517 6.24664 39.2469C6.52789 39.3406 6.77789 39.4688 6.98414 39.6406C7.19662 39.8038 7.37679 40.0051 7.51539 40.2344C7.65983 40.4758 7.76233 40.74 7.81852 41.0156H10.2435V41.0125ZM14.4716 49.7656V37.2687H11.9998V49.7687H14.4685L14.4716 49.7656ZM19.1373 44.7969V49.7656H16.6654V37.2687H24.6248V39.3094H19.1373V42.8H24.1529V44.7937H19.1373V44.7969Z" fill="black"/>
</g>
<defs>
<clipPath id="clip0_605_932">
<rect width="50" height="50" fill="white"/>
</clipPath>
</defs>
</svg>
