<svg width="32" height="31" viewBox="0 0 32 31" fill="none" xmlns="http://www.w3.org/2000/svg">
<mask id="path-1-inside-1_634_6823" fill="white">
<path d="M15.8333 0.839355C7.10283 0.839355 0 7.50142 0 15.6902C0 23.8789 7.10283 30.541 15.8333 30.541C24.5638 30.541 31.6667 23.8789 31.6667 15.6902C31.6667 7.50142 24.5638 0.839355 15.8333 0.839355ZM17.4167 24.6006H14.25V21.6305H17.4167V24.6006ZM18.962 17.346C18.6517 17.5807 18.3524 17.8049 18.1149 18.0277C17.4689 18.6321 17.4183 19.1816 17.4167 19.2053V19.4029H14.25V19.1548C14.25 18.9796 14.2959 17.4069 15.8745 15.9263C16.1833 15.6367 16.5664 15.3426 16.9686 15.0367C18.1308 14.1531 18.8939 13.5086 18.8939 12.6205C18.8755 11.8703 18.5448 11.1566 17.9725 10.6321C17.4002 10.1077 16.6318 9.8142 15.8318 9.81439C15.0317 9.81459 14.2635 10.1085 13.6915 10.6332C13.1195 11.1579 12.7892 11.8717 12.7712 12.622H9.6045C9.6045 9.40084 12.3991 6.77967 15.8333 6.77967C19.2676 6.77967 22.0622 9.40084 22.0622 12.622C22.0622 14.9937 20.1954 16.4089 18.962 17.346Z"/>
</mask>
<path d="M15.8333 0.839355C7.10283 0.839355 0 7.50142 0 15.6902C0 23.8789 7.10283 30.541 15.8333 30.541C24.5638 30.541 31.6667 23.8789 31.6667 15.6902C31.6667 7.50142 24.5638 0.839355 15.8333 0.839355ZM17.4167 24.6006H14.25V21.6305H17.4167V24.6006ZM18.962 17.346C18.6517 17.5807 18.3524 17.8049 18.1149 18.0277C17.4689 18.6321 17.4183 19.1816 17.4167 19.2053V19.4029H14.25V19.1548C14.25 18.9796 14.2959 17.4069 15.8745 15.9263C16.1833 15.6367 16.5664 15.3426 16.9686 15.0367C18.1308 14.1531 18.8939 13.5086 18.8939 12.6205C18.8755 11.8703 18.5448 11.1566 17.9725 10.6321C17.4002 10.1077 16.6318 9.8142 15.8318 9.81439C15.0317 9.81459 14.2635 10.1085 13.6915 10.6332C13.1195 11.1579 12.7892 11.8717 12.7712 12.622H9.6045C9.6045 9.40084 12.3991 6.77967 15.8333 6.77967C19.2676 6.77967 22.0622 9.40084 22.0622 12.622C22.0622 14.9937 20.1954 16.4089 18.962 17.346Z" fill="black"/>
<path d="M17.4167 24.6006V26.184H19V24.6006H17.4167ZM14.25 24.6006H12.6667V26.184H14.25V24.6006ZM14.25 21.6305V20.0471H12.6667V21.6305H14.25ZM17.4167 21.6305H19V20.0471H17.4167V21.6305ZM18.962 17.346L19.9169 18.609L19.9198 18.6068L18.962 17.346ZM18.1149 18.0277L19.1967 19.1838L19.1981 19.1825L18.1149 18.0277ZM17.4167 19.2053L15.8368 19.1001L15.8333 19.1526V19.2053H17.4167ZM17.4167 19.4029V20.9862H19V19.4029H17.4167ZM14.25 19.4029H12.6667V20.9862H14.25V19.4029ZM15.8745 15.9263L16.9577 17.0811L15.8745 15.9263ZM16.9686 15.0367L16.0103 13.7763L16.01 13.7766L16.9686 15.0367ZM18.8939 12.6205H20.4773V12.6011L20.4768 12.5817L18.8939 12.6205ZM12.7712 12.622V14.2053H14.317L14.354 12.6599L12.7712 12.622ZM9.6045 12.622H8.02117V14.2053H9.6045V12.622ZM15.8333 -0.743978C6.32546 -0.743978 -1.58333 6.53295 -1.58333 15.6902H1.58333C1.58333 8.4699 7.8802 2.42269 15.8333 2.42269V-0.743978ZM-1.58333 15.6902C-1.58333 24.8474 6.32546 32.1243 15.8333 32.1243V28.9576C7.8802 28.9576 1.58333 22.9104 1.58333 15.6902H-1.58333ZM15.8333 32.1243C25.3412 32.1243 33.25 24.8474 33.25 15.6902H30.0833C30.0833 22.9104 23.7865 28.9576 15.8333 28.9576V32.1243ZM33.25 15.6902C33.25 6.53295 25.3412 -0.743978 15.8333 -0.743978V2.42269C23.7865 2.42269 30.0833 8.4699 30.0833 15.6902H33.25ZM17.4167 23.0173H14.25V26.184H17.4167V23.0173ZM15.8333 24.6006V21.6305H12.6667V24.6006H15.8333ZM14.25 23.2138H17.4167V20.0471H14.25V23.2138ZM15.8333 21.6305V24.6006H19V21.6305H15.8333ZM18.0071 16.0831C17.7213 16.2991 17.3443 16.5797 17.0317 16.8728L19.1981 19.1825C19.3606 19.0301 19.582 18.8622 19.9169 18.609L18.0071 16.0831ZM17.0332 16.8715C16.0408 17.8 15.8599 18.7544 15.8368 19.1001L18.9965 19.3106C18.9933 19.3589 18.9888 19.3922 18.9861 19.4098C18.9828 19.4314 18.9796 19.4471 18.9772 19.4575C18.9723 19.4785 18.9702 19.4792 18.9768 19.4641C18.9877 19.439 19.0385 19.3318 19.1967 19.1838L17.0332 16.8715ZM15.8333 19.2053V19.4029H19V19.2053H15.8333ZM17.4167 17.8195H14.25V20.9862H17.4167V17.8195ZM15.8333 19.4029V19.1548H12.6667V19.4029H15.8333ZM15.8333 19.1548C15.8333 19.2328 15.8115 18.1562 16.9577 17.0811L14.7913 14.7714C12.7803 16.6576 12.6667 18.7264 12.6667 19.1548H15.8333ZM16.9577 17.0811C17.1965 16.8571 17.5126 16.6122 17.9272 16.2969L16.01 13.7766C15.6202 14.0731 15.17 14.4162 14.7913 14.7714L16.9577 17.0811ZM17.9269 16.2971C18.4905 15.8686 19.0994 15.3957 19.5566 14.8752C20.0451 14.3191 20.4773 13.5791 20.4773 12.6205H17.3106C17.3106 12.55 17.3612 12.5762 17.1775 12.7854C16.9626 13.03 16.6089 13.3212 16.0103 13.7763L17.9269 16.2971ZM20.4768 12.5817C20.4474 11.3848 19.9196 10.2688 19.0422 9.46482L16.9028 11.7995C17.17 12.0443 17.3036 12.3557 17.3111 12.6593L20.4768 12.5817ZM19.0422 9.46482C18.1681 8.66378 17.0142 8.23077 15.8314 8.23106L15.8322 11.3977C16.2495 11.3976 16.6324 11.5517 16.9028 11.7995L19.0422 9.46482ZM15.8314 8.23106C14.6486 8.23135 13.4949 8.66492 12.6212 9.46641L14.7618 11.8C15.0321 11.552 15.4148 11.3978 15.8322 11.3977L15.8314 8.23106ZM12.6212 9.46641C11.7442 10.2709 11.217 11.3872 11.1883 12.584L14.354 12.6599C14.3613 12.3563 14.4948 12.0449 14.7618 11.8L12.6212 9.46641ZM12.7712 11.0386H9.6045V14.2053H12.7712V11.0386ZM11.1878 12.622C11.1878 10.3693 13.1765 8.36301 15.8333 8.36301V5.19634C11.6217 5.19634 8.02117 8.43237 8.02117 12.622H11.1878ZM15.8333 8.36301C18.4902 8.36301 20.4788 10.3693 20.4788 12.622H23.6455C23.6455 8.43237 20.045 5.19634 15.8333 5.19634V8.36301ZM20.4788 12.622C20.4788 14.0993 19.3433 15.0678 18.0042 16.0853L19.9198 18.6068C21.0475 17.75 23.6455 15.888 23.6455 12.622H20.4788Z" fill="black" mask="url(#path-1-inside-1_634_6823)"/>
</svg>
