<svg width="42" height="44" viewBox="0 0 42 44" fill="none" xmlns="http://www.w3.org/2000/svg">
<path d="M22.4316 0.765661C22.325 0.766878 22.2203 0.796234 22.1265 0.85119C22.0327 0.906146 21.9526 0.985046 21.8933 1.08107L21.1486 2.25238C21.0973 2.32918 21.0606 2.41633 21.0408 2.5087C21.021 2.60108 21.0185 2.69681 21.0333 2.79027C21.0481 2.88373 21.08 2.97304 21.1271 3.05294C21.1743 3.13285 21.2356 3.20173 21.3077 3.25555C21.3797 3.30936 21.4609 3.34703 21.5466 3.36632C21.6322 3.38562 21.7206 3.38615 21.8064 3.3679C21.8923 3.34965 21.9739 3.31298 22.0465 3.26004C22.1191 3.20711 22.1812 3.13897 22.2291 3.05965L22.9738 1.88834C23.0437 1.78136 23.085 1.65553 23.0931 1.52473C23.1012 1.39394 23.0758 1.26326 23.0197 1.14711C22.9636 1.03097 22.879 0.93389 22.7752 0.866578C22.6715 0.799265 22.5525 0.764342 22.4316 0.765661ZM25.2605 3.382C25.0898 3.38275 24.9261 3.45551 24.8042 3.58486L23.8518 4.56443C23.7255 4.69432 23.652 4.87329 23.6474 5.06194C23.6429 5.2506 23.7076 5.43349 23.8275 5.57039C23.9473 5.70729 24.1124 5.78698 24.2864 5.79193C24.4604 5.79688 24.6292 5.72669 24.7554 5.59679L25.7078 4.61723C25.8053 4.52007 25.8734 4.39322 25.9031 4.25334C25.9329 4.11346 25.9229 3.9671 25.8745 3.83348C25.8261 3.69985 25.7416 3.58522 25.632 3.50465C25.5224 3.42407 25.3929 3.38132 25.2605 3.382ZM17.734 3.58347C17.6255 3.58082 17.5181 3.60736 17.4214 3.66072C17.3248 3.71408 17.2418 3.79259 17.1799 3.88922C17.1181 3.98586 17.0793 4.09761 17.0671 4.21447C17.0548 4.33133 17.0695 4.44966 17.1098 4.55887C17.1098 4.55887 18.033 7.27586 18.2762 11.6562C16.8009 10.0928 14.0949 7.85187 10.1716 7.85187C6.4031 7.85187 4.2294 9.39417 4.2294 9.39417C4.14189 9.45748 4.06971 9.54266 4.01894 9.64255C3.96816 9.74243 3.94028 9.85408 3.93764 9.96808C3.935 10.0821 3.95769 10.1951 4.00378 10.2976C4.04987 10.4001 4.11802 10.4891 4.20248 10.5571C7.47229 13.1825 9.88743 16.2351 11.3534 20.3C10.3568 20.0501 9.40421 19.9457 8.53097 19.9457C5.14594 19.9457 2.27391 21.4549 0.191863 23.7111C0.110005 23.8 0.0513086 23.9108 0.0217379 24.0322C-0.00783274 24.1536 -0.00722399 24.2814 0.0235023 24.4025C0.0542287 24.5236 0.113977 24.6337 0.196678 24.7216C0.279379 24.8096 0.382083 24.8722 0.494357 24.9032C3.81745 25.821 6.09821 28.7459 6.78522 29.6705C4.59961 30.7623 3.41548 32.3201 3.41548 32.3201C3.34152 32.4256 3.29617 32.5513 3.28456 32.6832C3.27294 32.815 3.29551 32.9478 3.34973 33.0665C3.40395 33.1852 3.48767 33.2851 3.59145 33.3551C3.69523 33.425 3.81496 33.4621 3.93716 33.4623C5.78646 33.4623 7.00786 34.1077 7.60554 34.4641L5.9995 37.3652C5.93733 37.4778 5.90509 37.6069 5.90636 37.7381C5.90763 37.8693 5.94236 37.9976 6.00669 38.1088C6.07103 38.22 6.16248 38.3097 6.27092 38.368C6.37937 38.4263 6.50058 38.451 6.62115 38.4393L13.5209 37.7599C13.8544 38.0361 14.2181 38.305 14.6116 38.5546C15.0901 39.4368 16.0614 40.5018 17.3969 41.4822C18.8268 42.5319 20.6578 43.4219 22.6405 43.4219C24.6351 43.4219 26.4673 42.5324 27.8945 41.4822C29.2275 40.5013 30.1944 39.4344 30.6708 38.5546C31.4286 38.0737 32.0475 37.525 32.587 37.0193H38.0626C38.1814 37.0192 38.298 36.9843 38.3998 36.9181C38.5017 36.8519 38.5851 36.757 38.6412 36.6435C38.6972 36.53 38.7238 36.4021 38.7181 36.2735C38.7123 36.1449 38.6745 36.0204 38.6087 35.9133L37.6602 34.371L41.0517 31.92C41.1416 31.855 41.2153 31.767 41.2662 31.6637C41.3172 31.5605 41.3439 31.4452 41.3439 31.3281C41.3439 31.211 41.3172 31.0957 41.2662 30.9924C41.2153 30.8892 41.1416 30.8011 41.0517 30.7362L37.9178 28.4714C40.6425 26.4869 41.89 24.6087 41.89 24.6087C41.9472 24.5155 41.9833 24.4091 41.9955 24.2979C42.0076 24.1868 41.9954 24.0741 41.9598 23.9691C41.9242 23.864 41.8662 23.7695 41.7906 23.6933C41.715 23.6171 41.6239 23.5613 41.5247 23.5305C41.5247 23.5305 38.6034 22.7601 35.6875 22.3814C36.8426 21.795 38.0524 21.2428 39.0688 20.5473C39.1891 20.465 39.2814 20.3426 39.3319 20.1985C39.3824 20.0544 39.3884 19.8964 39.3489 19.7483C39.3095 19.6002 39.2267 19.47 39.1131 19.3773C38.9994 19.2846 38.8611 19.2344 38.7189 19.2343H34.1776C34.2921 19.1054 34.2999 19.0267 34.4353 18.9022C34.9682 18.4121 35.6421 17.974 36.2695 17.7851C36.4219 17.7386 36.5538 17.634 36.6406 17.4904C36.7275 17.3469 36.7636 17.1741 36.7422 17.004C36.7208 16.8339 36.6434 16.678 36.5242 16.5649C36.4051 16.4518 36.2522 16.3892 36.0939 16.3887C34.3987 16.3887 33.2523 16.617 32.3678 17.0514C31.8239 17.3186 31.4125 17.6674 31.0373 18.038C31.0082 17.9841 31.008 17.955 30.9758 17.8976C30.7089 17.4225 30.3385 16.8701 29.8568 16.3359C29.0029 15.3887 27.7172 14.5933 26.1538 14.4004C26.1037 14.1793 26.037 13.9056 25.9308 13.55C25.6966 12.7656 25.3117 11.6897 24.7106 10.5057C23.5083 8.13774 21.4289 5.32463 17.9878 3.646C17.9079 3.607 17.8216 3.58574 17.734 3.58347ZM18.7876 5.77325C21.0956 7.29849 22.6279 9.35721 23.5596 11.1921C24.1129 12.2818 24.4699 13.2775 24.6824 13.9891C24.7886 14.3449 24.8592 14.6296 24.9003 14.8172C24.9206 14.9097 24.934 14.9788 24.94 15.0145C24.9401 15.015 24.9399 15.0168 24.94 15.0173C24.9516 15.1944 25.0238 15.3604 25.1425 15.4828C25.1427 15.4829 25.4516 15.5707 25.6155 15.6175L25.5937 15.6773C27.0156 15.6773 28.1182 16.4429 28.9186 17.3307C29.3188 17.7746 29.6354 18.2449 29.8556 18.6368C30.0757 19.0287 30.2032 19.3911 30.2068 19.4066C30.2355 19.5309 30.2946 19.6444 30.3779 19.7353C30.4612 19.8262 30.5657 19.891 30.6801 19.9229C30.7946 19.9547 30.9149 19.9525 31.0283 19.9164C31.1417 19.8803 31.244 19.8117 31.3245 19.7178C31.8492 19.1053 32.257 18.6685 32.91 18.3478C33.0067 18.3003 33.1672 18.275 33.2778 18.2325C32.8312 18.7038 32.3904 19.1756 32.2037 19.6817C32.164 19.7896 32.1492 19.9064 32.1607 20.0219C32.1722 20.1374 32.2096 20.2481 32.2696 20.3443C32.3297 20.4405 32.4106 20.5194 32.5052 20.5739C32.5999 20.6284 32.7054 20.657 32.8126 20.6571H35.9439C35.0466 21.1438 34.2515 21.6665 33.2163 22.1341C33.076 22.1972 32.9603 22.3111 32.8888 22.4563C32.8173 22.6016 32.7945 22.7693 32.8243 22.9307C32.8541 23.0922 32.9346 23.2375 33.0521 23.3417C33.1697 23.446 33.3169 23.5029 33.4688 23.5027C35.9867 23.5027 38.9143 24.2863 40.1468 24.6337C39.5629 25.3691 38.559 26.4767 36.413 27.8725C36.3181 27.9342 36.2391 28.0209 36.1834 28.1246C36.1277 28.2282 36.0971 28.3455 36.0944 28.4654C36.0917 28.5853 36.1171 28.7041 36.1681 28.8105C36.2191 28.917 36.2941 29.0078 36.3861 29.0744L39.5046 31.3281L36.3861 33.5818C36.2413 33.6864 36.1408 33.8492 36.1067 34.0342C36.0725 34.2192 36.1076 34.4113 36.2041 34.5683L36.836 35.5965H33.8892C34.931 34.1373 35.4189 32.362 35.4261 30.5778C35.4486 30.291 35.3949 30.0902 35.3082 29.8872C35.2177 29.6757 35.1224 29.4191 34.7301 29.2731C34.4831 29.1817 34.272 29.1806 34.0559 29.205C33.8397 29.2294 33.628 29.2741 33.3919 29.4426L33.4124 29.4273L33.1638 29.5913C32.1311 30.0881 31.3634 30.4042 30.1875 30.5097V29.7372C30.1967 29.669 30.1967 29.5997 30.1875 29.5315V24.9255C30.1875 24.7848 30.149 24.6473 30.0768 24.5304C30.0047 24.4134 29.9023 24.3223 29.7824 24.2684C29.6625 24.2146 29.5305 24.2005 29.4033 24.2279C29.276 24.2554 29.1591 24.3231 29.0673 24.4225C29.0673 24.4225 27.4948 26.0221 25.9283 27.4084C26.0886 26.3016 26.25 24.8214 26.25 22.7913C26.2499 22.6644 26.2185 22.5399 26.159 22.4306C26.0995 22.3213 26.0142 22.2312 25.9118 22.1697C25.8095 22.1082 25.6938 22.0775 25.5768 22.0807C25.4598 22.084 25.3457 22.1211 25.2464 22.1883C22.5739 23.9989 20.3578 26.191 19.4016 27.1611C19.0649 25.7958 19.0311 24.2417 19.0311 22.7913C19.0312 22.6961 19.0136 22.6018 18.9794 22.5141C18.9452 22.4265 18.8951 22.3471 18.8321 22.2807C18.7692 22.2144 18.6945 22.1625 18.6127 22.1279C18.5308 22.0934 18.4434 22.0771 18.3556 22.0799C18.2204 22.0842 18.0897 22.1337 17.9814 22.2216C17.9814 22.2216 15.0936 24.5461 15.0936 28.4825V29.5218C15.0831 29.5945 15.0831 29.6686 15.0936 29.7413V31.5143L13.7772 30.6848C13.7734 30.6819 13.7695 30.6792 13.7657 30.6764C13.7548 30.6682 13.7437 30.6603 13.7323 30.6528L11.8879 29.4412C11.6518 29.2727 11.4414 29.2294 11.2252 29.205C11.0091 29.1806 10.798 29.1817 10.551 29.2731C10.5502 29.2731 10.5493 29.2731 10.5485 29.2731C10.1557 29.4199 10.0631 29.6748 9.97295 29.8858C9.88626 30.0886 9.83189 30.2885 9.85374 30.575C9.86215 32.7348 10.5686 34.884 12.1212 36.4691L7.79012 36.8956L9.09366 34.5391C9.18025 34.3824 9.20792 34.1956 9.17093 34.0174C9.13395 33.8392 9.03515 33.6832 8.89499 33.5818C8.89499 33.5818 7.44188 32.5876 5.36631 32.2132C5.96784 31.6775 6.87026 31.0313 8.08748 30.5778C8.18443 30.5417 8.27223 30.4815 8.34386 30.4021C8.41549 30.3226 8.46896 30.2261 8.49999 30.1202C8.53101 30.0143 8.53873 29.902 8.52252 29.7923C8.50631 29.6826 8.46662 29.5785 8.40664 29.4884C8.40664 29.4884 5.77217 25.6571 1.8825 24.0265C3.65468 22.4202 5.8831 21.3685 8.53097 21.3685C9.791 21.3685 10.9027 21.3862 12.1994 22.0173C12.3148 22.0735 12.4428 22.0923 12.5678 22.0714C12.6929 22.0505 12.8097 21.9909 12.9043 21.8998C12.9988 21.8086 13.067 21.6897 13.1007 21.5575C13.1343 21.4253 13.132 21.2853 13.094 21.1545C11.7337 16.4714 9.1477 13.0388 5.80468 10.157C6.57005 9.77111 7.83416 9.27467 10.1716 9.27467C15.3895 9.27467 18.4966 13.9571 18.4966 13.9571C18.5774 14.08 18.6922 14.1718 18.8243 14.2194C18.9564 14.2669 19.099 14.2677 19.2315 14.2216C19.3641 14.1755 19.4797 14.0849 19.5616 13.963C19.6435 13.841 19.6876 13.694 19.6874 13.5431C19.6874 9.69705 19.1903 7.30957 18.7876 5.77325ZM27.5305 6.55829C27.4052 6.55949 27.2829 6.59951 27.178 6.67362L26.0667 7.43365C25.9938 7.48355 25.9307 7.54853 25.881 7.62487C25.8313 7.70121 25.7959 7.78742 25.7769 7.87857C25.7579 7.96973 25.7557 8.06404 25.7703 8.15613C25.785 8.24823 25.8162 8.33629 25.8622 8.4153C25.9083 8.4943 25.9682 8.56271 26.0386 8.6166C26.1091 8.6705 26.1886 8.70883 26.2727 8.72941C26.3568 8.74999 26.4438 8.75241 26.5287 8.73654C26.6137 8.72067 26.6949 8.68682 26.7678 8.63691L27.8778 7.87688C28.0003 7.79577 28.0949 7.67337 28.1471 7.52843C28.1992 7.38348 28.2062 7.22399 28.1667 7.07438C28.1273 6.92477 28.0438 6.79329 27.9288 6.70008C27.8139 6.60686 27.674 6.55706 27.5305 6.55829ZM29.2057 10.1445C29.1245 10.1451 29.0441 10.1621 28.9686 10.1945L27.7432 10.7058C27.5807 10.7736 27.4497 10.9086 27.3791 11.0811C27.3084 11.2536 27.3038 11.4495 27.3664 11.6256C27.4289 11.8018 27.5535 11.9438 27.7126 12.0204C27.8717 12.097 28.0524 12.1019 28.2149 12.0341L29.4403 11.5228C29.585 11.4645 29.7062 11.3527 29.7824 11.2071C29.8586 11.0615 29.8851 10.8915 29.857 10.7268C29.829 10.5622 29.7484 10.4136 29.6292 10.3071C29.5101 10.2005 29.3601 10.143 29.2057 10.1445ZM24.8375 24.2961C24.6961 27.2178 24.3145 28.9688 24.3145 28.9688C24.2712 29.1095 24.2695 29.2613 24.3097 29.4031C24.3499 29.5449 24.43 29.6695 24.5388 29.7595C24.6475 29.8495 24.7795 29.9004 24.9162 29.9051C25.053 29.9099 25.1877 29.8681 25.3015 29.7858C26.6382 28.8198 27.9328 27.5488 28.875 26.5831V29.2175C27.7698 29.862 26.0634 31.0283 24.5606 32.1687C24.4875 32.2211 24.4247 32.289 24.3762 32.3681C24.3276 32.4473 24.2941 32.5362 24.2778 32.6296C24.2615 32.7231 24.2626 32.8191 24.281 32.912C24.2995 33.005 24.335 33.093 24.3854 33.1708C24.4358 33.2486 24.5 33.3147 24.5744 33.3652C24.6487 33.4156 24.7316 33.4494 24.8182 33.4646C24.9048 33.4797 24.9933 33.4758 25.0785 33.4533C25.1637 33.4307 25.2439 33.3898 25.3143 33.3331C25.4144 33.2571 25.5232 33.1804 25.6258 33.1038C25.6799 33.4095 25.8029 33.6806 25.9753 33.8743C26.1477 34.0679 26.3598 34.1733 26.5781 34.1737C26.8392 34.1737 27.0896 34.0238 27.2742 33.7569C27.4588 33.4901 27.5625 33.1282 27.5625 32.7509C27.5622 32.4298 27.4867 32.1184 27.3484 31.8672C27.8969 31.4879 28.4231 31.1344 28.875 30.8473V31.3281C28.875 31.5167 28.9442 31.6977 29.0672 31.8311C29.1903 31.9645 29.3572 32.0395 29.5313 32.0395C30.028 32.0395 30.457 32 30.8528 31.938C30.8514 31.9716 30.8438 32.0066 30.8438 32.0395C30.8438 32.8033 30.7794 35.5187 29.6197 37.6848C29.6144 37.6949 29.6092 37.7051 29.6043 37.7154C29.3822 38.1817 28.4341 39.3645 27.1575 40.3039C25.8808 41.2434 24.2685 41.9991 22.6405 41.9991C21.027 41.9991 19.4131 41.2439 18.1326 40.3039C16.8522 39.364 15.8972 38.1783 15.6768 37.7154H15.6755C15.671 37.7051 15.6663 37.6949 15.6614 37.6848C14.7339 35.9524 14.5141 33.9163 14.4604 32.7606L15.4204 33.3664C15.5202 33.4291 15.6334 33.4623 15.7488 33.4625C15.8641 33.4627 15.9774 33.4299 16.0774 33.3675C16.1773 33.3051 16.2603 33.2152 16.318 33.107C16.3757 32.9987 16.4061 32.8759 16.4061 32.7509V30.8473C16.8575 31.1341 17.3835 31.4869 17.9314 31.8658C17.7933 32.1176 17.7184 32.4296 17.7186 32.7509C17.7186 33.1282 17.8223 33.4901 18.0069 33.7569C18.1915 34.0238 18.4419 34.1737 18.703 34.1737C18.9213 34.1733 19.1334 34.0679 19.3058 33.8743C19.4782 33.6806 19.6012 33.4095 19.6553 33.1038C19.7579 33.1804 19.8667 33.2571 19.9668 33.3331C20.0372 33.3898 20.1174 33.4307 20.2026 33.4533C20.2878 33.4758 20.3763 33.4797 20.4629 33.4646C20.5495 33.4494 20.6324 33.4156 20.7067 33.3652C20.7811 33.3147 20.8453 33.2486 20.8957 33.1708C20.9461 33.093 20.9816 33.005 21.0001 32.912C21.0185 32.8191 21.0196 32.7231 21.0033 32.6296C20.987 32.5362 20.9535 32.4473 20.9049 32.3681C20.8564 32.289 20.7936 32.2211 20.7205 32.1687C19.2176 31.0283 17.5113 29.862 16.4061 29.2175V28.4825C16.4061 26.7036 17.077 25.4468 17.7289 24.5656C17.731 25.9449 17.8045 27.4141 18.4441 28.8007C18.4903 28.9007 18.5575 28.9876 18.6405 29.0542C18.7235 29.1208 18.8197 29.1652 18.9215 29.1839C19.0233 29.2026 19.1277 29.195 19.2262 29.1617C19.3248 29.1284 19.4147 29.0704 19.4887 28.9924C19.4887 28.9924 22.0984 26.3869 24.8375 24.2961ZM11.1791 30.6917L13.0107 31.8463C13.0747 31.9118 13.1234 31.9624 13.1248 31.9575C13.1247 31.968 13.1248 31.9792 13.1248 32.0395C13.1248 32.6017 13.1659 34.1926 13.6195 35.9591C13.4798 35.8292 13.2915 35.71 13.1607 35.5854C11.8159 34.3054 11.2123 32.5483 11.1791 30.6917ZM34.0995 30.7014C34.0645 32.5542 33.462 34.308 32.1191 35.5868C31.9887 35.7109 31.8008 35.8296 31.6616 35.9591C32.1152 34.1926 32.1563 32.6017 32.1563 32.0395C32.1563 31.9792 32.1564 31.968 32.1563 31.9575C32.1577 31.9628 32.209 31.9081 32.2794 31.8366L33.6995 30.9029C33.8303 30.8365 33.9625 30.7701 34.0995 30.7014ZM24.3056 37.0109C24.1988 37.0076 24.0929 37.0326 23.9971 37.0837C23.9013 37.1348 23.8184 37.2104 23.7557 37.3041C23.7557 37.3041 23.7251 37.3625 23.548 37.4806C23.371 37.5987 23.0898 37.7307 22.6405 37.7307C22.1913 37.7307 21.9101 37.5987 21.7331 37.4806C21.556 37.3625 21.5254 37.3041 21.5254 37.3041C21.4737 37.2293 21.409 37.1663 21.3348 37.1186C21.2607 37.0709 21.1786 37.0395 21.0933 37.0262C21.0079 37.0129 20.921 37.018 20.8375 37.0411C20.7539 37.0643 20.6754 37.105 20.6064 37.161C20.5374 37.217 20.4792 37.2872 20.4352 37.3676C20.3913 37.448 20.3623 37.537 20.3501 37.6295C20.3378 37.722 20.3425 37.8162 20.3638 37.9068C20.3851 37.9973 20.4227 38.0824 20.4744 38.1572C20.4744 38.1572 20.6899 38.4546 21.046 38.6922C21.4022 38.9298 21.9413 39.1535 22.6405 39.1535C23.3398 39.1535 23.8789 38.9298 24.2351 38.6922C24.5912 38.4546 24.8067 38.1572 24.8067 38.1572C24.8808 38.0533 24.9269 37.9292 24.94 37.7986C24.953 37.6681 24.9324 37.5361 24.8805 37.4174C24.8286 37.2988 24.7474 37.198 24.646 37.1262C24.5445 37.0545 24.4267 37.0146 24.3056 37.0109Z" fill="white"/>
</svg>
