<svg width="50" height="50" viewBox="0 0 50 50" fill="none" xmlns="http://www.w3.org/2000/svg">
<path d="M25 40.625C32.8125 40.625 39.9146 33.5854 39.1 32.0312C38.2812 30.4687 34.375 35.9375 25 35.9375C15.625 35.9375 12.5 30.4687 11.7187 32.0312C10.9375 33.5937 17.1875 40.625 25 40.625ZM33.5937 15.625C34.8917 15.625 35.9375 16.6708 35.9375 17.9687V21.0937C35.9375 22.3917 34.8917 23.4375 33.5937 23.4375C33.2858 23.438 32.9808 23.3778 32.6962 23.2602C32.4116 23.1426 32.153 22.97 31.9352 22.7523C31.7175 22.5345 31.5449 22.2759 31.4273 21.9913C31.3097 21.7067 31.2494 21.4017 31.25 21.0937V17.9687C31.25 16.6708 32.2958 15.625 33.5937 15.625ZM16.4062 15.625C17.7042 15.625 18.75 16.6708 18.75 17.9687V21.0937C18.75 22.3917 17.7042 23.4375 16.4062 23.4375C16.0983 23.438 15.7933 23.3778 15.5087 23.2602C15.2241 23.1426 14.9655 22.97 14.7477 22.7523C14.53 22.5345 14.3574 22.2759 14.2398 21.9913C14.1222 21.7067 14.062 21.4017 14.0625 21.0937V17.9687C14.0625 16.6708 15.1083 15.625 16.4062 15.625ZM25 0C11.2104 0 0 11.2104 0 25C0 38.7896 11.2104 50 25 50C38.7896 50 50 38.7896 50 25C50 11.2104 38.7896 0 25 0ZM25 3.125C37.1 3.125 46.875 12.9 46.875 25C46.875 37.1 37.1 46.875 25 46.875C12.9 46.875 3.125 37.1 3.125 25C3.125 12.9 12.9 3.125 25 3.125Z" fill="black"/>
</svg>
