<svg width="33" height="36" viewBox="0 0 33 36" fill="none" xmlns="http://www.w3.org/2000/svg">
<mask id="path-1-inside-1_634_6756" fill="white">
<path d="M13.8683 21.5906C13.8542 21.6304 13.7658 21.6271 13.6032 21.5807C13.4407 21.5343 13.218 21.458 12.9353 21.3519L12.5112 21.1729C11.8891 20.9077 11.2742 20.5829 10.6663 20.1984C10.5673 20.1321 10.2775 19.9232 9.79688 19.5718C9.31622 19.2205 9.04762 19.0315 8.99107 19.005C8.0439 20.3707 7.09673 21.5707 6.14955 22.605C5.00446 23.8646 4.26228 24.5939 3.92299 24.7928C3.86644 24.8193 3.72861 24.8459 3.50949 24.8724C3.29036 24.8989 3.1596 24.8989 3.11719 24.8724C3.20201 24.8193 3.78162 24.2094 4.85603 23.0426C5.1529 22.7243 5.75725 21.9619 6.66908 20.7553C7.58091 19.5486 8.13579 18.7663 8.3337 18.4083C8.57403 18.0105 8.93452 17.3575 9.41518 16.4492C9.89583 15.5409 10.1503 15.0271 10.1786 14.9078C10.0655 14.8945 9.28795 15.1133 7.84598 15.5641C7.73289 15.5906 7.5385 15.6404 7.26283 15.7133C6.98716 15.7862 6.7433 15.8492 6.53125 15.9022C6.3192 15.9553 6.19903 15.9884 6.17076 16.0017C6.14248 16.0282 6.12835 16.0978 6.12835 16.2105C6.12835 16.3232 6.12128 16.3862 6.10714 16.3995C6.03646 16.5321 5.81734 16.6315 5.44978 16.6978C5.12463 16.7906 4.79241 16.7906 4.45312 16.6978C4.19866 16.6448 4.00074 16.5055 3.85937 16.2801C3.80283 16.2006 3.76749 16.0481 3.75335 15.8227C3.83817 15.7962 4.01135 15.763 4.27288 15.7232C4.53441 15.6834 4.74293 15.6437 4.89844 15.6039C5.71838 15.3917 6.46057 15.1796 7.125 14.9674C8.53869 14.5033 9.25967 14.2713 9.28795 14.2713C9.42931 14.2448 9.73326 14.1155 10.1998 13.8835C10.6663 13.6514 10.9773 13.5089 11.1328 13.4558C11.26 13.4161 11.412 13.363 11.5887 13.2967C11.7654 13.2304 11.8679 13.194 11.8962 13.1873C11.9245 13.1807 11.9669 13.184 12.0234 13.1973C12.0517 13.3564 12.0446 13.5752 12.0022 13.8536C12.0022 13.8801 11.9139 14.0591 11.7372 14.3906C11.5605 14.7221 11.3731 15.0768 11.1752 15.4547C10.9773 15.8326 10.8571 16.0547 10.8147 16.121C10.4613 16.784 9.91704 17.6525 9.18192 18.7265L10.5391 19.2834C10.7087 19.363 11.2353 19.5752 12.1189 19.9199C13.0024 20.2647 13.4795 20.4503 13.5502 20.4768C13.6068 20.4901 13.681 20.6591 13.7729 20.984C13.8648 21.3089 13.8966 21.5111 13.8683 21.5906ZM9.5212 11.9243C9.56362 12.1232 9.53534 12.3089 9.43638 12.4812C9.26674 12.7862 8.91332 13.0382 8.37612 13.237C7.95201 13.3962 7.5279 13.4757 7.10379 13.4757C6.73624 13.4359 6.38988 13.2636 6.06473 12.9586C5.86682 12.7597 5.73958 12.4879 5.68304 12.1431L5.70424 12.0835C5.74665 12.1232 5.88449 12.1564 6.11775 12.1829C6.351 12.2094 6.53832 12.2094 6.67969 12.1829C6.82106 12.1564 7.23103 12.0503 7.9096 11.8647C8.41853 11.7056 8.80729 11.6127 9.07589 11.5862C9.31622 11.5862 9.46466 11.6989 9.5212 11.9243ZM24.3225 14.4901L25.6585 19.005L22.7109 18.1696L24.3225 14.4901ZM0.827009 30.4016L15.5435 25.7873V5.26137L0.827009 9.89562V30.4016ZM27.1429 24.0967L29.3058 24.7133L25.4676 11.6459L23.3471 11.0293L18.7667 21.6901L20.9297 22.3066L21.8839 20.1188L26.3583 21.4116L27.1429 24.0967ZM16.4766 4.96303L28.6272 8.62269V1.0647L16.4766 4.96303ZM23.0714 31.2768L26.4219 31.5353L25.2768 34.7177L24.4286 33.405C22.5908 34.5055 20.6399 35.2215 18.5759 35.553C17.756 35.7121 17.1127 35.7917 16.6462 35.7917H14.865C13.7481 35.7917 12.338 35.5331 10.6345 35.016C8.93099 34.4989 7.63393 33.9353 6.7433 33.3254C6.63021 33.2326 6.57366 33.1265 6.57366 33.0072C6.57366 32.9011 6.609 32.8116 6.67969 32.7387C6.75037 32.6657 6.84226 32.6293 6.95536 32.6293C7.0119 32.6293 7.13914 32.679 7.33705 32.7784C7.53497 32.8779 7.75056 32.9873 7.98382 33.1066C8.21708 33.226 8.36198 33.2989 8.41853 33.3254C9.45052 33.816 10.5779 34.2237 11.8008 34.5486C13.0236 34.8735 14.1369 35.0359 15.1406 35.0359C16.4836 35.0359 17.6641 34.9398 18.6819 34.7475C19.6998 34.5552 20.8095 34.2204 22.0112 33.7431C22.2232 33.6503 22.4388 33.5475 22.6579 33.4348C22.877 33.3221 23.1174 33.1961 23.3789 33.0569C23.6404 32.9177 23.8419 32.8083 23.9833 32.7287L23.0714 31.2768ZM32.5714 9.81606V31.2768L16.1585 26.384C15.9606 26.4635 13.3099 27.3088 8.20647 28.9199C3.10305 30.5309 0.50186 31.3365 0.402902 31.3365C0.219122 31.3365 0.0918899 31.2503 0.0212054 31.0779C0.0212054 31.0646 0.0141369 31.0447 0 31.0182V9.57738C0.0424107 9.45805 0.0706845 9.39175 0.0848214 9.37849C0.155506 9.29893 0.296875 9.226 0.508929 9.15971C2.02158 8.68236 3.07478 8.35087 3.66853 8.16523V0.52768L15.5011 4.46579C15.5294 4.46579 16.6639 4.10115 18.9046 3.37187C21.1453 2.64259 23.3789 1.92326 25.6055 1.21387C27.832 0.504476 28.9736 0.14978 29.0301 0.14978C29.3129 0.14978 29.4542 0.289006 29.4542 0.567459V8.88125L32.5714 9.81606Z"/>
</mask>
<path d="M13.8683 21.5906C13.8542 21.6304 13.7658 21.6271 13.6032 21.5807C13.4407 21.5343 13.218 21.458 12.9353 21.3519L12.5112 21.1729C11.8891 20.9077 11.2742 20.5829 10.6663 20.1984C10.5673 20.1321 10.2775 19.9232 9.79688 19.5718C9.31622 19.2205 9.04762 19.0315 8.99107 19.005C8.0439 20.3707 7.09673 21.5707 6.14955 22.605C5.00446 23.8646 4.26228 24.5939 3.92299 24.7928C3.86644 24.8193 3.72861 24.8459 3.50949 24.8724C3.29036 24.8989 3.1596 24.8989 3.11719 24.8724C3.20201 24.8193 3.78162 24.2094 4.85603 23.0426C5.1529 22.7243 5.75725 21.9619 6.66908 20.7553C7.58091 19.5486 8.13579 18.7663 8.3337 18.4083C8.57403 18.0105 8.93452 17.3575 9.41518 16.4492C9.89583 15.5409 10.1503 15.0271 10.1786 14.9078C10.0655 14.8945 9.28795 15.1133 7.84598 15.5641C7.73289 15.5906 7.5385 15.6404 7.26283 15.7133C6.98716 15.7862 6.7433 15.8492 6.53125 15.9022C6.3192 15.9553 6.19903 15.9884 6.17076 16.0017C6.14248 16.0282 6.12835 16.0978 6.12835 16.2105C6.12835 16.3232 6.12128 16.3862 6.10714 16.3995C6.03646 16.5321 5.81734 16.6315 5.44978 16.6978C5.12463 16.7906 4.79241 16.7906 4.45312 16.6978C4.19866 16.6448 4.00074 16.5055 3.85937 16.2801C3.80283 16.2006 3.76749 16.0481 3.75335 15.8227C3.83817 15.7962 4.01135 15.763 4.27288 15.7232C4.53441 15.6834 4.74293 15.6437 4.89844 15.6039C5.71838 15.3917 6.46057 15.1796 7.125 14.9674C8.53869 14.5033 9.25967 14.2713 9.28795 14.2713C9.42931 14.2448 9.73326 14.1155 10.1998 13.8835C10.6663 13.6514 10.9773 13.5089 11.1328 13.4558C11.26 13.4161 11.412 13.363 11.5887 13.2967C11.7654 13.2304 11.8679 13.194 11.8962 13.1873C11.9245 13.1807 11.9669 13.184 12.0234 13.1973C12.0517 13.3564 12.0446 13.5752 12.0022 13.8536C12.0022 13.8801 11.9139 14.0591 11.7372 14.3906C11.5605 14.7221 11.3731 15.0768 11.1752 15.4547C10.9773 15.8326 10.8571 16.0547 10.8147 16.121C10.4613 16.784 9.91704 17.6525 9.18192 18.7265L10.5391 19.2834C10.7087 19.363 11.2353 19.5752 12.1189 19.9199C13.0024 20.2647 13.4795 20.4503 13.5502 20.4768C13.6068 20.4901 13.681 20.6591 13.7729 20.984C13.8648 21.3089 13.8966 21.5111 13.8683 21.5906ZM9.5212 11.9243C9.56362 12.1232 9.53534 12.3089 9.43638 12.4812C9.26674 12.7862 8.91332 13.0382 8.37612 13.237C7.95201 13.3962 7.5279 13.4757 7.10379 13.4757C6.73624 13.4359 6.38988 13.2636 6.06473 12.9586C5.86682 12.7597 5.73958 12.4879 5.68304 12.1431L5.70424 12.0835C5.74665 12.1232 5.88449 12.1564 6.11775 12.1829C6.351 12.2094 6.53832 12.2094 6.67969 12.1829C6.82106 12.1564 7.23103 12.0503 7.9096 11.8647C8.41853 11.7056 8.80729 11.6127 9.07589 11.5862C9.31622 11.5862 9.46466 11.6989 9.5212 11.9243ZM24.3225 14.4901L25.6585 19.005L22.7109 18.1696L24.3225 14.4901ZM0.827009 30.4016L15.5435 25.7873V5.26137L0.827009 9.89562V30.4016ZM27.1429 24.0967L29.3058 24.7133L25.4676 11.6459L23.3471 11.0293L18.7667 21.6901L20.9297 22.3066L21.8839 20.1188L26.3583 21.4116L27.1429 24.0967ZM16.4766 4.96303L28.6272 8.62269V1.0647L16.4766 4.96303ZM23.0714 31.2768L26.4219 31.5353L25.2768 34.7177L24.4286 33.405C22.5908 34.5055 20.6399 35.2215 18.5759 35.553C17.756 35.7121 17.1127 35.7917 16.6462 35.7917H14.865C13.7481 35.7917 12.338 35.5331 10.6345 35.016C8.93099 34.4989 7.63393 33.9353 6.7433 33.3254C6.63021 33.2326 6.57366 33.1265 6.57366 33.0072C6.57366 32.9011 6.609 32.8116 6.67969 32.7387C6.75037 32.6657 6.84226 32.6293 6.95536 32.6293C7.0119 32.6293 7.13914 32.679 7.33705 32.7784C7.53497 32.8779 7.75056 32.9873 7.98382 33.1066C8.21708 33.226 8.36198 33.2989 8.41853 33.3254C9.45052 33.816 10.5779 34.2237 11.8008 34.5486C13.0236 34.8735 14.1369 35.0359 15.1406 35.0359C16.4836 35.0359 17.6641 34.9398 18.6819 34.7475C19.6998 34.5552 20.8095 34.2204 22.0112 33.7431C22.2232 33.6503 22.4388 33.5475 22.6579 33.4348C22.877 33.3221 23.1174 33.1961 23.3789 33.0569C23.6404 32.9177 23.8419 32.8083 23.9833 32.7287L23.0714 31.2768ZM32.5714 9.81606V31.2768L16.1585 26.384C15.9606 26.4635 13.3099 27.3088 8.20647 28.9199C3.10305 30.5309 0.50186 31.3365 0.402902 31.3365C0.219122 31.3365 0.0918899 31.2503 0.0212054 31.0779C0.0212054 31.0646 0.0141369 31.0447 0 31.0182V9.57738C0.0424107 9.45805 0.0706845 9.39175 0.0848214 9.37849C0.155506 9.29893 0.296875 9.226 0.508929 9.15971C2.02158 8.68236 3.07478 8.35087 3.66853 8.16523V0.52768L15.5011 4.46579C15.5294 4.46579 16.6639 4.10115 18.9046 3.37187C21.1453 2.64259 23.3789 1.92326 25.6055 1.21387C27.832 0.504476 28.9736 0.14978 29.0301 0.14978C29.3129 0.14978 29.4542 0.289006 29.4542 0.567459V8.88125L32.5714 9.81606Z" fill="white" stroke="white" stroke-width="0.0424107" mask="url(#path-1-inside-1_634_6756)"/>
</svg>
