<svg width="44" height="32" viewBox="0 0 44 32" fill="none" xmlns="http://www.w3.org/2000/svg">
<g clip-path="url(#clip0_605_970)">
<path fill-rule="evenodd" clip-rule="evenodd" d="M12.5 28.125C12.5 27.7106 12.6646 27.3132 12.9576 27.0201C13.2507 26.7271 13.6481 26.5625 14.0625 26.5625H42.1875C42.6019 26.5625 42.9993 26.7271 43.2924 27.0201C43.5854 27.3132 43.75 27.7106 43.75 28.125C43.75 28.5394 43.5854 28.9368 43.2924 29.2299C42.9993 29.5229 42.6019 29.6875 42.1875 29.6875H14.0625C13.6481 29.6875 13.2507 29.5229 12.9576 29.2299C12.6646 28.9368 12.5 28.5394 12.5 28.125ZM12.5 15.625C12.5 15.2106 12.6646 14.8132 12.9576 14.5201C13.2507 14.2271 13.6481 14.0625 14.0625 14.0625H42.1875C42.6019 14.0625 42.9993 14.2271 43.2924 14.5201C43.5854 14.8132 43.75 15.2106 43.75 15.625C43.75 16.0394 43.5854 16.4368 43.2924 16.7299C42.9993 17.0229 42.6019 17.1875 42.1875 17.1875H14.0625C13.6481 17.1875 13.2507 17.0229 12.9576 16.7299C12.6646 16.4368 12.5 16.0394 12.5 15.625ZM12.5 3.125C12.5 2.7106 12.6646 2.31317 12.9576 2.02015C13.2507 1.72712 13.6481 1.5625 14.0625 1.5625H42.1875C42.6019 1.5625 42.9993 1.72712 43.2924 2.02015C43.5854 2.31317 43.75 2.7106 43.75 3.125C43.75 3.5394 43.5854 3.93683 43.2924 4.22985C42.9993 4.52288 42.6019 4.6875 42.1875 4.6875H14.0625C13.6481 4.6875 13.2507 4.52288 12.9576 4.22985C12.6646 3.93683 12.5 3.5394 12.5 3.125ZM3.125 6.25C3.9538 6.25 4.74866 5.92076 5.33471 5.33471C5.92076 4.74866 6.25 3.9538 6.25 3.125C6.25 2.2962 5.92076 1.50134 5.33471 0.915291C4.74866 0.32924 3.9538 0 3.125 0C2.2962 0 1.50134 0.32924 0.915291 0.915291C0.32924 1.50134 0 2.2962 0 3.125C0 3.9538 0.32924 4.74866 0.915291 5.33471C1.50134 5.92076 2.2962 6.25 3.125 6.25V6.25ZM3.125 18.75C3.9538 18.75 4.74866 18.4208 5.33471 17.8347C5.92076 17.2487 6.25 16.4538 6.25 15.625C6.25 14.7962 5.92076 14.0013 5.33471 13.4153C4.74866 12.8292 3.9538 12.5 3.125 12.5C2.2962 12.5 1.50134 12.8292 0.915291 13.4153C0.32924 14.0013 0 14.7962 0 15.625C0 16.4538 0.32924 17.2487 0.915291 17.8347C1.50134 18.4208 2.2962 18.75 3.125 18.75V18.75ZM3.125 31.25C3.9538 31.25 4.74866 30.9208 5.33471 30.3347C5.92076 29.7487 6.25 28.9538 6.25 28.125C6.25 27.2962 5.92076 26.5013 5.33471 25.9153C4.74866 25.3292 3.9538 25 3.125 25C2.2962 25 1.50134 25.3292 0.915291 25.9153C0.32924 26.5013 0 27.2962 0 28.125C0 28.9538 0.32924 29.7487 0.915291 30.3347C1.50134 30.9208 2.2962 31.25 3.125 31.25V31.25Z" fill="black"/>
</g>
<defs>
<clipPath id="clip0_605_970">
<rect width="43.75" height="31.25" fill="white"/>
</clipPath>
</defs>
</svg>
