<svg width="42" height="42" viewBox="0 0 42 42" fill="none" xmlns="http://www.w3.org/2000/svg">
<g clip-path="url(#clip0_634_5808)">
<path d="M22.3676 1.47721C22.3676 1.26421 22.3249 1.05373 22.2429 0.860214C22.1608 0.666697 22.0413 0.494712 21.8922 0.35604C21.7432 0.21737 21.5684 0.115292 21.3795 0.0568027C21.1907 -0.001687 20.9925 -0.0152063 20.7984 0.0171711L1.72857 3.17962C1.40706 3.23325 1.11386 3.40995 0.902001 3.67775C0.690141 3.94554 0.573611 4.28675 0.573486 4.63966V36.7369C0.573611 37.0899 0.690141 37.4312 0.902001 37.6989C1.11386 37.9668 1.40706 38.1435 1.72857 38.197L20.7984 41.3624C20.9925 41.3949 21.1907 41.3814 21.3795 41.3229C21.5684 41.2644 21.7432 41.1622 21.8922 41.0236C22.0413 40.8848 22.1608 40.7129 22.2429 40.5194C22.3249 40.3259 22.3676 40.1154 22.3676 39.9023V20.6883H36.4575L33.7415 23.2714C33.4857 23.534 33.3338 23.8938 33.3173 24.2752C33.3006 24.6568 33.4209 25.0304 33.6527 25.3178C33.8846 25.6052 34.2099 25.7841 34.5606 25.8169C34.9113 25.8499 35.2602 25.7342 35.534 25.494L40.9716 20.3218C41.1174 20.1832 41.2343 20.0122 41.3144 19.8206C41.3945 19.6289 41.4358 19.421 41.4358 19.2105C41.4358 19.0002 41.3945 18.7922 41.3144 18.6006C41.2343 18.4089 41.1174 18.238 40.9716 18.0992L35.534 12.927C35.2623 12.6691 34.9074 12.5389 34.5471 12.565C34.187 12.591 33.8511 12.7712 33.6133 13.066C33.3756 13.3607 33.2556 13.7458 33.2796 14.1365C33.3036 14.5273 33.4698 14.8917 33.7415 15.1496L36.4575 17.7327H22.3676V1.47721ZM15.5569 24.3827C15.015 24.3827 14.4954 24.1492 14.1122 23.7336C13.729 23.3178 13.5137 22.754 13.5137 22.166C13.5137 21.5782 13.729 21.0145 14.1122 20.5987C14.4954 20.183 15.015 19.9494 15.5569 19.9494C16.0989 19.9494 16.6185 20.183 17.0018 20.5987C17.3849 21.0145 17.6001 21.5782 17.6001 22.166C17.6001 22.754 17.3849 23.3178 17.0018 23.7336C16.6185 24.1492 16.0989 24.3827 15.5569 24.3827ZM26.454 38.4216H25.0918V23.6438H27.8161V36.9438C27.8161 37.3358 27.6726 37.7116 27.4171 37.9888C27.1617 38.266 26.8152 38.4216 26.454 38.4216ZM25.0918 14.7772V2.955H26.454C26.8152 2.955 27.1617 3.11069 27.4171 3.38783C27.6726 3.66497 27.8161 4.04084 27.8161 4.43277V14.7772H25.0918Z" fill="black"/>
</g>
<defs>
<clipPath id="clip0_634_5808">
<rect width="42" height="42" fill="white"/>
</clipPath>
</defs>
</svg>
