<svg width="42" height="43" viewBox="0 0 42 43" fill="none" xmlns="http://www.w3.org/2000/svg">
<path d="M3.5 8.53125H0V19.1953H0.0175L0 38.3906C0 40.7367 1.575 42.6562 3.5 42.6562H35V38.3906H3.5V8.53125ZM12.25 27.7266H36.75L30.625 18.1289L26.25 24.5487L20.125 14.9297L12.25 27.7266ZM38.5 4.26562H24.5L21 0H10.5C8.575 0 7.0175 1.91953 7.0175 4.26562L7 29.8594C7 32.2055 8.575 34.125 10.5 34.125H38.5C40.425 34.125 42 32.2055 42 29.8594V8.53125C42 6.18516 40.425 4.26562 38.5 4.26562ZM38.5 29.8594H10.5V4.26562H19.5475L22.015 7.27289L23.0475 8.53125H38.5V29.8594Z" fill="white"/>
</svg>
