<svg width="100" height="100" viewBox="0 0 100 100" fill="none" xmlns="http://www.w3.org/2000/svg">
<rect width="100" height="100" fill="#FF66C4"/>
<path d="M57.9117 41.1307C57.7753 39.7557 57.1901 38.6875 56.156 37.9261C55.1219 37.1648 53.7185 36.7841 51.9458 36.7841C50.7412 36.7841 49.7242 36.9545 48.8946 37.2955C48.0651 37.625 47.4287 38.0852 46.9856 38.6761C46.5537 39.267 46.3378 39.9375 46.3378 40.6875C46.3151 41.3125 46.4458 41.858 46.7299 42.3239C47.0253 42.7898 47.4287 43.1932 47.9401 43.5341C48.4515 43.8636 49.0424 44.1534 49.7128 44.4034C50.3833 44.642 51.0992 44.8466 51.8606 45.017L54.9969 45.767C56.5196 46.108 57.9174 46.5625 59.1901 47.1307C60.4628 47.6989 61.5651 48.3977 62.4969 49.2273C63.4287 50.0568 64.1503 51.0341 64.6617 52.1591C65.1844 53.2841 65.4515 54.5739 65.4628 56.0284C65.4515 58.1648 64.906 60.017 63.8265 61.5852C62.7583 63.142 61.2128 64.3523 59.1901 65.2159C57.1787 66.0682 54.7526 66.4943 51.9117 66.4943C49.0935 66.4943 46.639 66.0625 44.5481 65.1989C42.4685 64.3352 40.8435 63.0568 39.6731 61.3636C38.514 59.6591 37.906 57.5511 37.8492 55.0398H44.9912C45.0708 56.2102 45.406 57.1875 45.9969 57.9716C46.5992 58.7443 47.4003 59.3295 48.4003 59.7273C49.4117 60.1136 50.5537 60.3068 51.8265 60.3068C53.0765 60.3068 54.1617 60.125 55.0821 59.7614C56.014 59.3977 56.7356 58.892 57.2469 58.2443C57.7583 57.5966 58.014 56.8523 58.014 56.0114C58.014 55.2273 57.781 54.5682 57.3151 54.0341C56.8606 53.5 56.1901 53.0455 55.3037 52.6705C54.4287 52.2955 53.3549 51.9545 52.0821 51.6477L48.281 50.6932C45.3378 49.9773 43.014 48.858 41.3094 47.3352C39.6049 45.8125 38.7583 43.7614 38.7696 41.1818C38.7583 39.0682 39.3208 37.2216 40.4571 35.642C41.6049 34.0625 43.1787 32.8295 45.1787 31.9432C47.1787 31.0568 49.4515 30.6136 51.9969 30.6136C54.5878 30.6136 56.8492 31.0568 58.781 31.9432C60.7242 32.8295 62.2356 34.0625 63.3151 35.642C64.3946 37.2216 64.9515 39.0511 64.9856 41.1307H57.9117Z" fill="white"/>
</svg>
