<svg width="32" height="32" viewBox="0 0 32 32" fill="none" xmlns="http://www.w3.org/2000/svg">
<path d="M5.89332 27.4389C5.70833 27.4385 5.52544 27.3997 5.35626 27.3249C5.18709 27.2501 5.03533 27.1409 4.91065 27.0042C4.78372 26.8687 4.68686 26.7079 4.62642 26.5324C4.56599 26.3568 4.54335 26.1705 4.55999 25.9855L4.88665 22.3935L19.9773 7.3082L24.6933 12.0229L9.60665 27.1069L6.01465 27.4335C5.97432 27.4373 5.93383 27.439 5.89332 27.4389V27.4389ZM25.6347 11.0802L20.92 6.36553L23.748 3.53753C23.8718 3.41356 24.0189 3.31522 24.1807 3.24812C24.3426 3.18102 24.5161 3.14648 24.6913 3.14648C24.8665 3.14648 25.04 3.18102 25.2019 3.24812C25.3638 3.31522 25.5108 3.41356 25.6347 3.53753L28.4627 6.36553C28.5866 6.48936 28.685 6.63642 28.7521 6.79828C28.8192 6.96014 28.8537 7.13365 28.8537 7.30887C28.8537 7.48409 28.8192 7.65759 28.7521 7.81945C28.685 7.98132 28.5866 8.12837 28.4627 8.2522L25.636 11.0789L25.6347 11.0802V11.0802Z" fill="white"/>
</svg>
