<svg width="35" height="35" viewBox="0 0 35 35" fill="none" xmlns="http://www.w3.org/2000/svg">
<path d="M31.0797 17.3053L26.7184 13.8634C26.6819 13.8347 26.638 13.8168 26.5919 13.8119C26.5457 13.807 26.4991 13.8151 26.4574 13.8355C26.4156 13.8558 26.3805 13.8875 26.3559 13.9269C26.3313 13.9663 26.3184 14.0118 26.3185 14.0582V16.2696H18.7306V8.68175H20.9454C21.1505 8.68175 21.2667 8.44249 21.1402 8.28185L17.6949 3.92052C17.6721 3.891 17.6429 3.86711 17.6094 3.85067C17.5759 3.83423 17.5391 3.82568 17.5018 3.82568C17.4645 3.82568 17.4277 3.83423 17.3942 3.85067C17.3608 3.86711 17.3315 3.891 17.3087 3.92052L13.8634 8.28185C13.8347 8.31834 13.8168 8.36217 13.8119 8.40834C13.807 8.4545 13.8151 8.50112 13.8355 8.54286C13.8558 8.5846 13.8875 8.61976 13.9269 8.64433C13.9663 8.66889 14.0118 8.68186 14.0582 8.68175H16.2696V16.2696H8.68175V14.0548C8.68175 13.8497 8.44249 13.7335 8.28185 13.86L3.92052 17.3053C3.891 17.3281 3.86711 17.3573 3.85067 17.3908C3.83423 17.4243 3.82568 17.4611 3.82568 17.4984C3.82568 17.5357 3.83423 17.5725 3.85067 17.606C3.86711 17.6394 3.891 17.6687 3.92052 17.6915L8.27843 21.1368C8.43907 21.2633 8.67833 21.1505 8.67833 20.942V18.7306H16.2662V26.3185H14.0514C13.8463 26.3185 13.7301 26.5577 13.8566 26.7184L17.3019 31.0763C17.401 31.2027 17.5924 31.2027 17.6881 31.0763L21.1334 26.7184C21.2599 26.5577 21.1471 26.3185 20.9386 26.3185H18.7306V18.7306H26.3185V20.9454C26.3185 21.1505 26.5577 21.2667 26.7184 21.1402L31.0763 17.6949C31.1057 17.6718 31.1295 17.6424 31.1461 17.6088C31.1626 17.5752 31.1713 17.5383 31.1716 17.5009C31.1719 17.4635 31.1639 17.4265 31.1479 17.3926C31.132 17.3588 31.1087 17.3289 31.0797 17.3053V17.3053Z" fill="black"/>
</svg>
