<svg width="28" height="29" viewBox="0 0 28 29" fill="none" xmlns="http://www.w3.org/2000/svg">
<path d="M27.005 22.9615C26.121 22.2223 25.3472 21.375 24.7042 20.4423C24.0022 19.1548 23.5815 17.7488 23.4667 16.3067V12.0594C23.4727 9.79441 22.5968 7.60529 21.0033 5.90334C19.4099 4.2014 17.2087 3.10379 14.8133 2.81674V1.70762C14.8133 1.40321 14.6844 1.11126 14.4549 0.896C14.2254 0.680744 13.9141 0.559814 13.5896 0.559814C13.265 0.559814 12.9538 0.680744 12.7243 0.896C12.4948 1.11126 12.3658 1.40321 12.3658 1.70762V2.83394C9.9919 3.14168 7.81731 4.24592 6.24482 5.94215C4.67233 7.63837 3.8085 9.81163 3.81333 12.0594V16.3067C3.69852 17.7488 3.2778 19.1548 2.57583 20.4423C1.94414 21.3729 1.18268 22.2201 0.311667 22.9615C0.213887 23.042 0.135521 23.1412 0.0817826 23.2524C0.028044 23.3636 0.000164813 23.4842 0 23.6063V24.7756C0 25.0036 0.0965771 25.2223 0.268485 25.3836C0.440394 25.5448 0.673552 25.6354 0.916667 25.6354H26.4C26.6431 25.6354 26.8763 25.5448 27.0482 25.3836C27.2201 25.2223 27.3167 25.0036 27.3167 24.7756V23.6063C27.3165 23.4842 27.2886 23.3636 27.2349 23.2524C27.1811 23.1412 27.1028 23.042 27.005 22.9615ZM1.90667 23.9158C2.75954 23.1431 3.51047 22.2771 4.14333 21.3365C5.02756 19.7815 5.54348 18.0659 5.65583 16.3067V12.0594C5.61948 11.0518 5.79968 10.0476 6.18571 9.10663C6.57173 8.16568 7.15569 7.30721 7.90281 6.58234C8.64993 5.85747 9.54492 5.28103 10.5345 4.88734C11.5241 4.49365 12.588 4.29076 13.6629 4.29076C14.7378 4.29076 15.8018 4.49365 16.7913 4.88734C17.7809 5.28103 18.6759 5.85747 19.423 6.58234C20.1701 7.30721 20.7541 8.16568 21.1401 9.10663C21.5262 10.0476 21.7064 11.0518 21.67 12.0594V16.3067C21.7824 18.0659 22.2983 19.7815 23.1825 21.3365C23.8154 22.2771 24.5663 23.1431 25.4192 23.9158H1.90667Z" fill="white"/>
<path d="M13.7047 28.5068C14.2822 28.4943 14.8363 28.2907 15.2691 27.932C15.7019 27.5732 15.9855 27.0825 16.0697 26.5465H11.248C11.3346 27.097 11.6315 27.5993 12.0834 27.9599C12.5353 28.3205 13.1115 28.5149 13.7047 28.5068V28.5068Z" fill="white"/>
</svg>
