<svg width="44" height="44" viewBox="0 0 44 44" fill="none" xmlns="http://www.w3.org/2000/svg">
<path d="M10.3333 1H32.4999L42.9999 10.45V36.7" stroke="black" stroke-width="1.5" stroke-linecap="round" stroke-linejoin="round"/>
<path d="M1 39.8501V10.45C1 9.61462 1.36875 8.8134 2.02513 8.22266C2.6815 7.63192 3.57174 7.30005 4.5 7.30005H27.2547C27.6258 7.30034 27.9817 7.43329 28.244 7.66965L35.5893 14.2805C35.7199 14.3978 35.8234 14.5373 35.8939 14.6908C35.9644 14.8444 36.0005 15.0089 36 15.175V39.8501C36 40.6855 35.6312 41.4867 34.9749 42.0774C34.3185 42.6682 33.4283 43.0001 32.5 43.0001H4.5C3.57174 43.0001 2.6815 42.6682 2.02513 42.0774C1.36875 41.4867 1 40.6855 1 39.8501Z" stroke="black" stroke-width="1.5" stroke-linecap="round" stroke-linejoin="round"/>
<path d="M26.6667 14.4399V8.04335C26.667 7.89651 26.7156 7.75304 26.8064 7.63103C26.8972 7.50902 27.0261 7.41394 27.1768 7.35778C27.3276 7.30163 27.4935 7.28691 27.6535 7.31548C27.8135 7.34406 27.9606 7.41465 28.0761 7.51835L35.7574 14.4315C35.8738 14.5351 35.9532 14.6675 35.9856 14.8119C36.018 14.9563 36.0019 15.1061 35.9393 15.2422C35.8767 15.3783 35.7705 15.4945 35.6342 15.576C35.4979 15.6575 35.3377 15.7007 35.1741 15.6999H28.0667C27.6954 15.6999 27.3393 15.5672 27.0768 15.3309C26.8142 15.0946 26.6667 14.7741 26.6667 14.4399V14.4399Z" fill="black" stroke="black" stroke-width="1.5" stroke-linecap="round" stroke-linejoin="round"/>
</svg>
