<svg width="43" height="43" viewBox="0 0 43 43" fill="none" xmlns="http://www.w3.org/2000/svg">
<g clip-path="url(#clip0_634_5703)">
<path d="M0 21.3334V41.3334H4C6.26667 41.3334 8 40.6667 8 40C8 39.2 13.3333 38.6667 21.3333 38.6667C29.3333 38.6667 34.6667 39.2 34.6667 40C34.6667 40.6667 36.5333 41.3334 38.6667 41.3334H42.6667V21.3334V1.33337H38.6667C36.5333 1.33337 34.6667 1.86671 34.6667 2.66671C34.6667 3.46671 29.3333 4.00004 21.3333 4.00004C13.3333 4.00004 8 3.46671 8 2.66671C8 1.86671 6.26667 1.33337 4 1.33337H0V21.3334ZM34.6667 8.00004C34.6667 8.80004 29.3333 9.33337 21.3333 9.33337C13.3333 9.33337 8 8.80004 8 8.00004C8 7.20004 13.3333 6.66671 21.3333 6.66671C29.3333 6.66671 34.6667 7.20004 34.6667 8.00004ZM5.33333 21.3334C5.33333 27.8667 4.66667 33.6 4 34C3.2 34.5334 2.66667 30 2.66667 21.3334C2.66667 12.6667 3.2 8.13337 4 8.66671C4.8 9.06671 5.33333 14.8 5.33333 21.3334ZM40 21.4667C40 30 39.4667 34.5334 38.6667 34C37.2 33.0667 36.8 10.2667 38.2667 8.93337C39.8667 7.20004 40 8.00004 40 21.4667ZM34.6667 21.3334V30.6667H21.3333H8V21.3334V12H21.3333H34.6667V21.3334ZM34.6667 34.6667C34.6667 35.4667 29.3333 36 21.3333 36C13.3333 36 8 35.4667 8 34.6667C8 33.8667 13.3333 33.3334 21.3333 33.3334C29.3333 33.3334 34.6667 33.8667 34.6667 34.6667Z" fill="white"/>
<path d="M15.2001 14.5333C14.9334 14.8 14.6668 16 14.6668 16.9333C14.6668 18.2667 15.4668 18.5333 17.3334 18C18.8001 17.4667 20.0001 17.7333 20.0001 18.5333C20.0001 19.3333 19.0668 20 18.0001 20C15.8668 20 13.2001 25.2 14.2668 26.9333C15.0668 28.5333 27.7334 28.2667 28.6668 26.6667C29.2001 25.8667 28.0001 25.3333 26.1334 25.3333C24.2668 25.3333 22.6668 24.6667 22.6668 24C22.6668 23.2 23.6001 22.6667 24.6668 22.6667C25.7334 22.6667 26.6668 22 26.6668 21.3333C26.6668 20.5333 25.7334 20 24.6668 20C23.6001 20 22.6668 19.3333 22.6668 18.6667C22.6668 17.8667 23.8668 17.3333 25.4668 17.3333C26.9334 17.3333 27.8668 16.8 27.4668 16.1333C26.6668 14.9333 16.2668 13.4667 15.2001 14.5333ZM20.0001 24C20.0001 24.6667 19.4668 25.3333 18.6668 25.3333C18.0001 25.3333 17.3334 24.6667 17.3334 24C17.3334 23.2 18.0001 22.6667 18.6668 22.6667C19.4668 22.6667 20.0001 23.2 20.0001 24Z" fill="white"/>
</g>
<defs>
<clipPath id="clip0_634_5703">
<rect width="42.6667" height="42.6667" fill="white"/>
</clipPath>
</defs>
</svg>
