<svg width="35" height="39" viewBox="0 0 35 39" fill="none" xmlns="http://www.w3.org/2000/svg">
<path d="M17.4423 15.6791L8.75 24.8781H14V36.3601H21V24.8781H26.25L17.4423 15.6791ZM31.5 1.91406H3.5C1.575 1.91406 0 3.63636 0 5.7414V28.7054C0 30.8105 1.575 32.5328 3.5 32.5328H10.5V28.7054H3.5V11.4824H31.5V28.7054H24.5V32.5328H31.5C33.425 32.5328 35 30.8105 35 28.7054V5.7414C35 3.63636 33.425 1.91406 31.5 1.91406ZM4.375 8.13349C4.20264 8.13349 4.03197 8.09636 3.87273 8.02423C3.71349 7.95211 3.5688 7.84639 3.44692 7.71311C3.32505 7.57984 3.22837 7.42161 3.16241 7.24748C3.09645 7.07335 3.0625 6.88671 3.0625 6.69823C3.0625 6.50976 3.09645 6.32312 3.16241 6.14899C3.22837 5.97486 3.32505 5.81663 3.44692 5.68336C3.5688 5.55008 3.71349 5.44436 3.87273 5.37224C4.03197 5.30011 4.20264 5.26298 4.375 5.26298C4.7231 5.26298 5.05694 5.4142 5.30308 5.68336C5.54922 5.95252 5.6875 6.31758 5.6875 6.69823C5.6875 7.07889 5.54922 7.44395 5.30308 7.71311C5.05694 7.98227 4.7231 8.13349 4.375 8.13349V8.13349ZM7.875 8.13349C7.70264 8.13349 7.53197 8.09636 7.37273 8.02423C7.21349 7.95211 7.0688 7.84639 6.94692 7.71311C6.82505 7.57984 6.72837 7.42161 6.66241 7.24748C6.59645 7.07335 6.5625 6.88671 6.5625 6.69823C6.5625 6.50976 6.59645 6.32312 6.66241 6.14899C6.72837 5.97486 6.82505 5.81663 6.94692 5.68336C7.0688 5.55008 7.21349 5.44436 7.37273 5.37224C7.53197 5.30011 7.70264 5.26298 7.875 5.26298C8.2231 5.26298 8.55694 5.4142 8.80308 5.68336C9.04922 5.95252 9.1875 6.31758 9.1875 6.69823C9.1875 7.07889 9.04922 7.44395 8.80308 7.71311C8.55694 7.98227 8.2231 8.13349 7.875 8.13349V8.13349ZM31.5 7.65507H10.5V5.7414H31.5332L31.5 7.65507Z" fill="black"/>
</svg>
