<svg width="32" height="34" viewBox="0 0 32 34" fill="none" xmlns="http://www.w3.org/2000/svg">
<path d="M6.76085 1.93939C-6.57248 9.99976 1.42752 31.1582 16.7609 27.9917C20.8942 27.272 22.2275 27.7038 25.4275 31.0143C28.4942 34.1809 29.6942 34.6127 30.8942 33.3173C32.0942 32.0219 31.6942 30.7264 28.7609 27.4159C25.6942 23.9615 25.2942 22.5221 25.9609 18.0601C28.2275 5.2499 17.0275 -4.24982 6.76085 1.93939ZM19.5609 7.40893C23.4275 11.2952 23.4275 16.7647 19.6942 21.0828C16.0942 25.2569 11.0275 25.2569 7.02752 21.2267C3.16085 17.3405 3.16085 11.8709 6.89419 7.55287C10.4942 3.37874 15.5609 3.37874 19.5609 7.40893Z" fill="black"/>
</svg>
