<svg width="29" height="31" viewBox="0 0 29 31" fill="none" xmlns="http://www.w3.org/2000/svg">
<path d="M27.3292 7.49584L27.3301 7.49626C27.4531 7.55379 27.5528 7.63696 27.6236 7.73324C27.6941 7.82915 27.7344 7.93578 27.7457 8.04273L28.533 7.95972L27.7459 8.04518L27.746 8.04601C27.7475 8.06226 27.7703 8.30375 27.7825 8.72794C27.7952 9.16831 27.7964 9.80144 27.7515 10.5787C27.6615 12.1349 27.387 14.2581 26.6556 16.5638C25.1976 21.1598 21.9286 26.4812 14.6289 29.526L14.6251 29.5277C14.5217 29.5714 14.4076 29.5948 14.2909 29.5948C14.1741 29.5948 14.06 29.5714 13.9567 29.5276L13.9528 29.526C6.65316 26.4812 3.38423 21.1595 1.92619 16.5632C1.19473 14.2574 0.920289 12.1342 0.830316 10.578C0.740828 9.03024 0.834613 8.05781 0.835744 8.04608L0.835757 8.04597L0.835954 8.04413C0.847472 7.93673 0.888028 7.82971 0.95866 7.73343C1.02944 7.63694 1.12898 7.5535 1.25182 7.49547C1.25203 7.49537 1.25224 7.49527 1.25246 7.49517L13.9177 1.55552L13.9179 1.55542C14.0313 1.5022 14.1589 1.47343 14.2901 1.47343C14.4213 1.47343 14.5489 1.50219 14.6623 1.55542L14.6625 1.55552L27.3292 7.49584ZM13.4992 27.2613V28.4902L14.6182 27.9821C21.1509 25.0159 24.0291 19.9882 25.2785 15.7579L25.5785 14.742H24.5192H15.0826V3.82823V2.58255L13.9547 3.11146L2.81758 8.33449L2.37199 8.54346L2.36221 9.03552C2.31712 11.3043 2.61787 13.5671 3.25495 15.755L3.42103 16.3253H4.01505H13.4992V27.2613Z" fill="black" stroke="black" stroke-width="1.58333"/>
</svg>
