<svg width="50" height="50" viewBox="0 0 50 50" fill="none" xmlns="http://www.w3.org/2000/svg">
<path d="M25 3.125C19.22 3.19473 13.6965 5.5218 9.60914 9.60914C5.5218 13.6965 3.19473 19.22 3.125 25C3.19473 30.78 5.5218 36.3035 9.60914 40.3909C13.6965 44.4782 19.22 46.8053 25 46.875C30.78 46.8053 36.3035 44.4782 40.3909 40.3909C44.4782 36.3035 46.8053 30.78 46.875 25C46.8053 19.22 44.4782 13.6965 40.3909 9.60914C36.3035 5.5218 30.78 3.19473 25 3.125V3.125ZM37.5 26.5625H26.5625V37.5H23.4375V26.5625H12.5V23.4375H23.4375V12.5H26.5625V23.4375H37.5V26.5625Z" fill="black"/>
</svg>
