<svg width="34" height="35" viewBox="0 0 34 35" fill="none" xmlns="http://www.w3.org/2000/svg">
<path d="M20.1644 35H13.7944C13.3953 35.0001 13.0081 34.8637 12.6972 34.6135C12.3862 34.3633 12.1701 34.0144 12.0847 33.6245L11.3724 30.3275C10.4223 29.9112 9.52132 29.3906 8.68616 28.7752L5.47141 29.799C5.0909 29.9203 4.68032 29.9079 4.30787 29.7637C3.93542 29.6195 3.6235 29.3522 3.42391 29.0062L0.231912 23.492C0.0344162 23.1457 -0.0397188 22.7427 0.021636 22.3488C0.0829908 21.9549 0.276202 21.5935 0.569662 21.3237L3.06341 19.0487C2.95001 18.0182 2.95001 16.9783 3.06341 15.9477L0.569662 13.678C0.275787 13.4081 0.0823123 13.0464 0.0209476 12.6521C-0.0404172 12.2579 0.0339682 11.8544 0.231912 11.508L3.41691 5.99025C3.6165 5.6443 3.92842 5.37703 4.30087 5.23283C4.67332 5.08862 5.0839 5.07616 5.46441 5.1975L8.67916 6.22125C9.10616 5.90625 9.55066 5.61225 10.0092 5.34625C10.4519 5.09775 10.9069 4.872 11.3724 4.67075L12.0864 1.37725C12.1714 0.987346 12.3871 0.638203 12.6978 0.38771C13.0084 0.137217 13.3954 0.00041994 13.7944 0H20.1644C20.5635 0.00041994 20.9504 0.137217 21.2611 0.38771C21.5717 0.638203 21.7874 0.987346 21.8724 1.37725L22.5934 4.6725C23.543 5.08882 24.4434 5.60944 25.2779 6.22475L28.4944 5.201C28.8747 5.0801 29.2849 5.0928 29.6569 5.23698C30.029 5.38116 30.3406 5.64818 30.5402 5.99375L33.7252 11.5115C34.1312 12.2237 33.9912 13.125 33.3874 13.6797L30.8937 15.9547C31.0071 16.9853 31.0071 18.0252 30.8937 19.0557L33.3874 21.3307C33.9912 21.8872 34.1312 22.7867 33.7252 23.499L30.5402 29.0167C30.3406 29.3627 30.0287 29.63 29.6562 29.7742C29.2837 29.9184 28.8732 29.9308 28.4927 29.8095L25.2779 28.7857C24.4434 29.4006 23.543 29.9206 22.5934 30.3362L21.8724 33.6245C21.7871 34.0141 21.5712 34.3628 21.2606 34.613C20.95 34.8631 20.5632 34.9997 20.1644 35ZM9.31441 24.9007L10.7494 25.9507C11.0732 26.1887 11.4092 26.4075 11.7592 26.607C12.0882 26.7977 12.4242 26.9692 12.7724 27.125L14.4052 27.8407L15.2049 31.5H18.7574L19.5572 27.839L21.1899 27.1232C21.9022 26.8082 22.5794 26.418 23.2077 25.9577L24.6427 24.9077L28.2162 26.0452L29.9924 22.9687L27.2222 20.4435L27.4182 18.6725C27.5057 17.8972 27.5057 17.115 27.4182 16.3415L27.2222 14.5705L29.9942 12.04L28.2162 8.96175L24.6444 10.0992L23.2077 9.04925C22.5791 8.58671 21.9026 8.19303 21.1899 7.875L19.5572 7.15925L18.7574 3.5H15.2049L14.3999 7.161L12.7724 7.875C12.0587 8.18756 11.382 8.57846 10.7547 9.0405L9.31791 10.0905L5.74791 8.953L3.96816 12.04L6.73841 14.5617L6.54241 16.3345C6.45491 17.1097 6.45491 17.892 6.54241 18.6655L6.73841 20.4365L3.96816 22.9617L5.74441 26.0382L9.31441 24.9007V24.9007ZM16.9724 24.5C15.1159 24.5 13.3354 23.7625 12.0227 22.4497C10.7099 21.137 9.97241 19.3565 9.97241 17.5C9.97241 15.6435 10.7099 13.863 12.0227 12.5503C13.3354 11.2375 15.1159 10.5 16.9724 10.5C18.8289 10.5 20.6094 11.2375 21.9222 12.5503C23.2349 13.863 23.9724 15.6435 23.9724 17.5C23.9724 19.3565 23.2349 21.137 21.9222 22.4497C20.6094 23.7625 18.8289 24.5 16.9724 24.5ZM16.9724 14C16.287 14.0007 15.6169 14.2026 15.0453 14.5807C14.4736 14.9587 14.0255 15.4963 13.7566 16.1267C13.4877 16.7572 13.4098 17.4527 13.5326 18.1269C13.6553 18.8012 13.9734 19.4246 14.4472 19.9198C14.9211 20.415 15.5299 20.7602 16.1981 20.9125C16.8664 21.0648 17.5646 21.0176 18.2063 20.7766C18.8479 20.5357 19.4047 20.1117 19.8075 19.5572C20.2104 19.0027 20.4416 18.3422 20.4724 17.6575V18.3575V17.5C20.4724 16.5717 20.1037 15.6815 19.4473 15.0251C18.7909 14.3687 17.9007 14 16.9724 14Z" fill="black"/>
</svg>
