<svg width="42" height="42" viewBox="0 0 42 42" fill="none" xmlns="http://www.w3.org/2000/svg">
<path d="M18.1439 3.02394C17.3879 3.69594 16.7999 5.20794 16.7999 6.38394C16.7999 8.73594 15.4559 8.98794 12.7679 7.05594C8.90393 4.36794 4.28393 8.81994 7.05593 12.6839C8.98793 15.4559 8.73593 16.7999 6.38393 16.7999C3.94793 16.7999 1.67993 18.8159 1.67993 20.9999C1.67993 23.1839 3.94793 25.1999 6.38393 25.1999C8.73593 25.1999 8.98793 26.5439 7.05593 29.3159C4.28393 33.1799 8.90393 37.6319 12.7679 34.9439C15.4559 33.0119 16.7999 33.2639 16.7999 35.6159C16.7999 38.0519 18.8159 40.3199 20.9999 40.3199C23.1839 40.3199 25.1999 38.0519 25.1999 35.6159C25.1999 33.2639 26.5439 33.0119 29.2319 34.9439C33.0959 37.6319 37.7159 33.1799 34.9439 29.3159C33.0119 26.5439 33.2639 25.1999 35.6159 25.1999C38.0519 25.1999 40.3199 23.1839 40.3199 20.9999C40.3199 18.8159 38.0519 16.7999 35.6159 16.7999C33.2639 16.7999 33.0119 15.4559 34.9439 12.6839C37.7159 8.81994 33.0959 4.36794 29.2319 7.05594C26.5439 8.98794 25.1999 8.73594 25.1999 6.38394C25.1999 3.94794 23.1839 1.67994 20.9999 1.67994C20.1599 1.67994 18.8159 2.26794 18.1439 3.02394ZM26.1239 15.8759C27.4679 17.2199 28.5599 18.7319 28.5599 19.2359C28.5599 20.7479 25.5359 20.2439 23.9399 18.4799C23.0999 17.5559 21.7559 16.7999 20.9999 16.7999C20.2439 16.7999 18.8999 17.5559 18.0599 18.4799C16.4639 20.2439 13.4399 20.7479 13.4399 19.2359C13.4399 17.2199 18.3959 13.4399 20.9999 13.4399C22.8479 13.4399 24.4439 14.1959 26.1239 15.8759ZM23.0999 20.9999C23.0999 22.5119 22.5959 23.1839 21.1679 23.3519C20.0759 23.5199 19.0679 23.0999 18.8159 22.3439C17.9759 20.1599 19.1519 18.3119 21.1679 18.6479C22.5959 18.8159 23.0999 19.4879 23.0999 20.9999ZM18.0599 23.5199C18.8999 24.4439 20.2439 25.1999 20.9999 25.1999C21.7559 25.1999 23.0999 24.4439 23.9399 23.5199C25.5359 21.7559 28.5599 21.2519 28.5599 22.7639C28.5599 24.7799 23.6039 28.5599 20.9999 28.5599C18.3959 28.5599 13.4399 24.7799 13.4399 22.7639C13.4399 21.2519 16.4639 21.7559 18.0599 23.5199Z" fill="white"/>
</svg>
