<svg width="34" height="32" viewBox="0 0 34 32" fill="none" xmlns="http://www.w3.org/2000/svg">
<path d="M5.51926 26.0479C2.58567 23.2964 0.95 19.578 0.95 15.7147C0.95 11.8514 2.58567 8.13297 5.51926 5.38143C8.45491 2.62795 12.4488 1.07134 16.625 1.07134C20.8012 1.07134 24.7951 2.62795 27.7307 5.38143C30.6643 8.13297 32.3 11.8514 32.3 15.7147C32.3 19.578 30.6643 23.2964 27.7307 26.0479C24.7951 28.8014 20.8012 30.358 16.625 30.358C12.4488 30.358 8.45491 28.8014 5.51926 26.0479ZM27.0153 25.5435C29.7828 22.9478 31.35 19.4136 31.35 15.7147C31.35 12.0157 29.7828 8.48159 27.0153 5.88581C24.2498 3.29197 20.5114 1.84448 16.625 1.84448C12.7386 1.84448 9.00015 3.29197 6.2347 5.88581C3.46718 8.48159 1.9 12.0157 1.9 15.7147C1.9 19.4136 3.46718 22.9478 6.2347 25.5435C9.00015 28.1374 12.7386 29.5849 16.625 29.5849C20.5114 29.5849 24.2498 28.1374 27.0153 25.5435Z" fill="black" stroke="black" stroke-width="1.9"/>
<path d="M16.625 29.4671C15.0392 29.4671 13.504 28.2374 12.3139 25.6864C11.1437 23.1778 10.45 19.6485 10.45 15.7149C10.45 11.7812 11.1437 8.2519 12.3139 5.74335C13.504 3.19228 15.0392 1.96257 16.625 1.96257C18.2108 1.96257 19.746 3.19228 20.9361 5.74335C22.1063 8.2519 22.8 11.7812 22.8 15.7149C22.8 19.6485 22.1063 23.1778 20.9361 25.6864C19.746 28.2374 18.2108 29.4671 16.625 29.4671ZM16.625 28.694C17.5536 28.694 18.3141 28.0921 18.8735 27.4092C19.4563 26.6978 19.9726 25.72 20.4031 24.5788C21.2672 22.2877 21.85 19.1647 21.85 15.7149C21.85 12.265 21.2672 9.142 20.4031 6.85094C19.9726 5.70969 19.4563 4.73189 18.8735 4.02048C18.3141 3.33758 17.5536 2.73572 16.625 2.73572C15.6964 2.73572 14.9359 3.33758 14.3765 4.02048C13.7937 4.73189 13.2774 5.70969 12.8469 6.85094C11.9828 9.142 11.4 12.265 11.4 15.7149C11.4 19.1647 11.9828 22.2877 12.8469 24.5788C13.2774 25.72 13.7937 26.6978 14.3765 27.4092C14.9359 28.0921 15.6964 28.694 16.625 28.694Z" fill="black" stroke="black" stroke-width="1.9"/>
<path d="M5.89045 7.53106L6.47553 6.92446C9.09892 8.75679 13.1534 9.82491 17.4764 9.82491C21.1881 9.82491 24.6961 9.04124 27.2941 7.64852C27.6384 7.46402 27.9649 7.2693 28.2722 7.06486L28.8362 7.68464C28.508 7.90225 28.1677 8.10431 27.8167 8.28995L27.8167 8.28993L27.8113 8.2928C25.0968 9.7506 21.424 10.5963 17.4764 10.5963C12.851 10.5963 8.63364 9.43382 5.89045 7.53106ZM28.8356 23.7737L28.2722 24.3928C27.9649 24.1884 27.6384 23.9937 27.2941 23.8092C24.6961 22.4165 21.1881 21.6328 17.4764 21.6328C13.1534 21.6328 9.09892 22.7009 6.47553 24.5332L5.89045 23.9266C8.63364 22.0239 12.851 20.8614 17.4764 20.8614C21.424 20.8614 25.0968 21.7071 27.8113 23.1649L27.8154 23.1671C28.1665 23.3534 28.507 23.5559 28.8356 23.7737ZM1.9002 16.1012V15.328H31.3502V16.1012H1.9002Z" fill="black" stroke="black" stroke-width="1.9"/>
</svg>
