<svg width="50" height="50" viewBox="0 0 50 50" fill="none" xmlns="http://www.w3.org/2000/svg">
<path d="M43.75 3.125H15.625C14.7965 3.12583 14.0021 3.45533 13.4162 4.0412C12.8303 4.62708 12.5008 5.42145 12.5 6.25V10.9375H6.25C5.42145 10.9383 4.62708 11.2678 4.0412 11.8537C3.45533 12.4396 3.12583 13.234 3.125 14.0625V43.75C3.12583 44.5785 3.45533 45.3729 4.0412 45.9588C4.62708 46.5447 5.42145 46.8742 6.25 46.875H43.75C44.5785 46.8742 45.3729 46.5447 45.9588 45.9588C46.5447 45.3729 46.8742 44.5785 46.875 43.75V6.25C46.8742 5.42145 46.5447 4.62708 45.9588 4.0412C45.3729 3.45533 44.5785 3.12583 43.75 3.125ZM15.625 6.25H43.75V10.9375H15.625V6.25ZM43.75 21.875H31.25V14.0625H43.75V21.875ZM15.625 32.8125V25H28.125V32.8125H15.625ZM28.125 35.9375V43.75H15.625V35.9375H28.125ZM12.5 32.8125H6.25V25H12.5V32.8125ZM28.125 14.0625V21.875H15.625V14.0625H28.125ZM31.25 25H43.75V32.8125H31.25V25ZM12.5 14.0625V21.875H6.25V14.0625H12.5ZM6.25 35.9375H12.5V43.75H6.25V35.9375ZM31.25 43.75V35.9375H43.75V43.75H31.25Z" fill="black"/>
</svg>
