<svg width="59" height="58" viewBox="0 0 59 58" fill="none" xmlns="http://www.w3.org/2000/svg">
<path d="M29.5273 19.7433C24.2627 19.7433 19.9665 24.0374 19.9665 29.2993C19.9665 34.5611 24.2627 38.8552 29.5273 38.8552C34.7918 38.8552 39.0881 34.5611 39.0881 29.2993C39.0881 24.0374 34.7918 19.7433 29.5273 19.7433ZM58.2025 29.2993C58.2025 25.3421 58.2384 21.4208 58.016 17.4708C57.7937 12.8828 56.7465 8.81091 53.3899 5.45593C50.026 2.09378 45.9592 1.05431 41.3689 0.832075C37.4097 0.609843 33.4864 0.645687 29.5345 0.645687C25.5753 0.645687 21.652 0.609843 17.7 0.832075C13.1097 1.05431 9.03575 2.10095 5.67907 5.45593C2.31522 8.81808 1.27522 12.8828 1.05287 17.4708C0.830529 21.4279 0.866391 25.3493 0.866391 29.2993C0.866391 33.2492 0.830529 37.1777 1.05287 41.1277C1.27522 45.7157 2.32239 49.7876 5.67907 53.1426C9.04292 56.5047 13.1097 57.5442 17.7 57.7664C21.6592 57.9887 25.5825 57.9528 29.5345 57.9528C33.4936 57.9528 37.4169 57.9887 41.3689 57.7664C45.9592 57.5442 50.0332 56.4976 53.3899 53.1426C56.7537 49.7804 57.7937 45.7157 58.016 41.1277C58.2456 37.1777 58.2025 33.2564 58.2025 29.2993ZM29.5273 44.0024C21.3866 44.0024 14.8167 37.4358 14.8167 29.2993C14.8167 21.1627 21.3866 14.5961 29.5273 14.5961C37.668 14.5961 44.2379 21.1627 44.2379 29.2993C44.2379 37.4358 37.668 44.0024 29.5273 44.0024ZM44.8404 17.4278C42.9397 17.4278 41.4048 15.8937 41.4048 13.9939C41.4048 12.0942 42.9397 10.5601 44.8404 10.5601C46.741 10.5601 48.2759 12.0942 48.2759 13.9939C48.2765 14.445 48.188 14.8918 48.0156 15.3087C47.8431 15.7255 47.5901 16.1043 47.2709 16.4233C46.9518 16.7423 46.5728 16.9952 46.1558 17.1675C45.7387 17.3399 45.2917 17.4283 44.8404 17.4278Z" fill="#000000"/>
</svg>
