<svg width="58" height="49" viewBox="0 0 58 49" fill="none" xmlns="http://www.w3.org/2000/svg">
<path d="M57.6012 5.80406C55.4925 6.77613 53.2273 7.43293 50.8458 7.7298C53.303 6.20022 55.1414 3.79285 56.0178 0.956877C53.7092 2.38342 51.1826 3.38755 48.5477 3.92561C46.7759 1.95749 44.429 0.652978 41.8714 0.214624C39.3139 -0.22373 36.6887 0.228594 34.4036 1.50137C32.1185 2.77415 30.3012 4.79617 29.2339 7.2535C28.1667 9.71083 27.9091 12.466 28.5012 15.0912C23.8234 14.8469 19.2472 13.582 15.0697 11.3787C10.8922 9.17545 7.20671 6.08297 4.2524 2.302C3.24225 4.11477 2.66141 6.21653 2.66141 8.45491C2.66028 10.47 3.13728 12.4541 4.05007 14.2314C4.96286 16.0087 6.28322 17.5241 7.89401 18.6432C6.02593 18.5814 4.19905 18.0562 2.56545 17.1115V17.2692C2.56526 20.0954 3.50497 22.8346 5.22514 25.022C6.94531 27.2095 9.33998 28.7104 12.0028 29.2702C10.2699 29.7581 8.45298 29.83 6.6894 29.4804C7.4407 31.9122 8.90416 34.0387 10.8749 35.5622C12.8456 37.0857 15.225 37.93 17.6799 37.9768C13.5126 41.3801 8.36598 43.2262 3.068 43.218C2.12952 43.2183 1.19183 43.1613 0.259766 43.0473C5.63752 46.6444 11.8976 48.5534 18.291 48.546C39.9336 48.546 51.7651 29.8981 51.7651 13.7251C51.7651 13.1996 51.7524 12.6689 51.7297 12.1435C54.0311 10.4121 56.0176 8.2681 57.5962 5.81194L57.6012 5.80406Z" fill="#000000"/>
</svg>
