<?xml version="1.0" encoding="UTF-8"?>
<svg xmlns="http://www.w3.org/2000/svg" xmlns:xlink="http://www.w3.org/1999/xlink" viewBox="0 0 100 100">
<g id="surface59425256">
<path style=" stroke:none;fill-rule:nonzero;fill:rgb(50.588238%,12.941177%,100%);fill-opacity:1;" d="M 18 13 C 15.242188 13 13 15.242188 13 18 L 13 69 C 13 71.757812 15.242188 74 18 74 L 49.316406 74 L 54.058594 87.335938 C 54.199219 87.734375 54.578125 88 55 88 L 84 88 C 86.757812 88 89 85.757812 89 83 L 89 32 C 89 29.242188 86.757812 27 84 27 L 51.464844 27 L 46.949219 13.679688 C 46.808594 13.273438 46.429688 13 46 13 Z M 18 15 L 45.144531 15 L 51.660156 33.902344 C 51.734375 34.109375 51.925781 34.242188 52.132812 34.242188 C 52.1875 34.242188 52.246094 34.234375 52.296875 34.214844 C 52.558594 34.125 52.699219 33.839844 52.605469 33.578125 L 51.027344 29 L 84 29 C 85.652344 29 87 30.347656 87 32 L 87 83 C 87 84.652344 85.652344 86 84 86 L 56.339844 86 L 59.5 81.640625 C 59.660156 81.414062 59.613281 81.101562 59.390625 80.941406 C 59.164062 80.777344 58.851562 80.828125 58.691406 81.050781 L 55.507812 85.445312 L 51.082031 73 L 64.523438 73 L 61.398438 77.308594 C 61.238281 77.535156 61.285156 77.847656 61.511719 78.007812 C 61.734375 78.167969 62.046875 78.121094 62.207031 77.894531 L 65.90625 72.792969 C 65.910156 72.785156 65.910156 72.773438 65.914062 72.765625 C 65.992188 72.640625 66.023438 72.488281 65.972656 72.335938 L 63.984375 66.574219 C 65.46875 65.511719 66.898438 64.316406 68.238281 62.988281 C 70.8125 65.726562 73.855469 68.449219 77.285156 71.085938 C 77.375 71.152344 77.480469 71.1875 77.589844 71.1875 C 77.613281 71.1875 77.632812 71.1875 77.65625 71.183594 C 77.785156 71.167969 77.90625 71.097656 77.988281 70.992188 L 79.808594 68.613281 C 79.976562 68.394531 79.933594 68.082031 79.714844 67.914062 C 76.402344 65.367188 73.453125 62.703125 70.941406 59.996094 C 73.320312 57.011719 75.898438 52.292969 77.5 48 L 82 48 C 82.277344 48 82.5 47.777344 82.5 47.5 L 82.5 44.5 C 82.5 44.222656 82.277344 44 82 44 L 70.5 44 L 70.5 41.5 C 70.5 41.222656 70.277344 41 70 41 L 67 41 C 66.722656 41 66.5 41.222656 66.5 41.5 L 66.5 44 L 56.199219 44 L 53.964844 37.515625 C 53.871094 37.257812 53.585938 37.117188 53.328125 37.207031 C 53.066406 37.296875 52.925781 37.582031 53.019531 37.84375 L 55.367188 44.652344 C 55.367188 44.65625 55.367188 44.660156 55.367188 44.660156 L 55.898438 46.195312 L 61.886719 63.550781 C 61.886719 63.554688 61.886719 63.558594 61.886719 63.5625 L 62.917969 66.550781 C 62.917969 66.554688 62.921875 66.558594 62.921875 66.558594 L 64.800781 72 L 18 72 C 16.347656 72 15 70.652344 15 69 L 15 18 C 15 16.347656 16.347656 15 18 15 Z M 34.050781 30.148438 C 33.839844 30.148438 33.660156 30.28125 33.578125 30.460938 L 24.039062 54.089844 C 23.980469 54.238281 24 54.410156 24.089844 54.550781 C 24.179688 54.691406 24.339844 54.769531 24.511719 54.769531 L 27.890625 54.769531 C 28.101562 54.769531 28.28125 54.640625 28.359375 54.449219 L 30.402344 49.058594 L 40.902344 49.058594 L 42.980469 54.449219 C 43.050781 54.648438 43.238281 54.769531 43.441406 54.769531 L 46.832031 54.769531 C 46.988281 54.769531 47.148438 54.691406 47.242188 54.550781 C 47.332031 54.410156 47.347656 54.238281 47.289062 54.089844 L 37.75 30.460938 C 37.671875 30.28125 37.488281 30.148438 37.289062 30.148438 Z M 34.382812 31.148438 L 36.949219 31.148438 L 46.089844 53.769531 L 43.789062 53.769531 L 41.710938 48.378906 C 41.640625 48.191406 41.449219 48.058594 41.25 48.058594 L 30.050781 48.058594 C 29.839844 48.058594 29.660156 48.191406 29.578125 48.378906 L 27.539062 53.769531 L 25.25 53.769531 Z M 35.671875 33.160156 C 35.570312 33.160156 35.46875 33.1875 35.386719 33.234375 C 35.304688 33.28125 35.234375 33.355469 35.199219 33.449219 L 30.589844 45.761719 C 30.558594 45.839844 30.550781 45.921875 30.558594 46.003906 C 30.570312 46.082031 30.601562 46.15625 30.648438 46.222656 C 30.695312 46.289062 30.753906 46.34375 30.824219 46.382812 C 30.894531 46.421875 30.976562 46.441406 31.058594 46.441406 L 40.277344 46.441406 C 40.4375 46.441406 40.589844 46.359375 40.6875 46.222656 C 40.78125 46.089844 40.800781 45.917969 40.738281 45.761719 L 36.128906 33.449219 C 36.0625 33.257812 35.859375 33.160156 35.667969 33.160156 Z M 35.671875 35.058594 L 39.550781 45.441406 L 31.78125 45.441406 Z M 67.5 42 L 69.5 42 L 69.5 44.5 C 69.5 44.777344 69.722656 45 70 45 L 81.5 45 L 81.5 47 L 77.148438 47 C 76.9375 47 76.75 47.132812 76.679688 47.328125 C 75.066406 51.777344 72.339844 56.75 69.894531 59.699219 C 69.734375 59.894531 69.742188 60.171875 69.910156 60.355469 C 72.425781 63.105469 75.382812 65.8125 78.710938 68.402344 L 77.5 69.984375 C 74.117188 67.355469 71.128906 64.648438 68.617188 61.929688 C 68.523438 61.832031 68.394531 61.773438 68.257812 61.769531 L 68.25 61.769531 C 68.117188 61.769531 67.988281 61.824219 67.894531 61.917969 C 66.558594 63.277344 65.132812 64.511719 63.644531 65.59375 L 62.949219 63.578125 C 64.214844 62.609375 65.445312 61.519531 66.609375 60.328125 C 66.789062 60.148438 66.800781 59.855469 66.636719 59.660156 C 63.574219 55.984375 62.214844 53.320312 61.761719 52.3125 L 63.636719 51.601562 C 64.101562 52.574219 65.339844 54.886719 67.882812 58.015625 C 67.976562 58.132812 68.121094 58.199219 68.269531 58.199219 C 68.421875 58.199219 68.5625 58.132812 68.660156 58.015625 C 71.117188 54.980469 73.046875 51.5 74.394531 47.664062 C 74.445312 47.511719 74.421875 47.34375 74.328125 47.210938 C 74.234375 47.078125 74.082031 47 73.921875 47 L 57.234375 47 L 56.542969 45 L 67 45 C 67.277344 45 67.5 44.777344 67.5 44.5 Z M 57.578125 47.996094 L 73.207031 47.996094 C 71.988281 51.257812 70.332031 54.25 68.269531 56.898438 C 65.582031 53.507812 64.554688 51.226562 64.347656 50.742188 C 64.234375 50.515625 63.960938 50.414062 63.722656 50.503906 L 60.921875 51.5625 C 60.671875 51.65625 60.539062 51.933594 60.625 52.1875 C 60.636719 52.21875 61.695312 55.207031 65.578125 59.949219 C 64.621094 60.898438 63.621094 61.765625 62.601562 62.566406 Z M 57.578125 47.996094 "/>
</g>
</svg>
