<svg width="36" height="36" viewBox="0 0 36 36" fill="none" xmlns="http://www.w3.org/2000/svg">
<path d="M18 0.5C8.34 0.5 0.5 8.34 0.5 18C0.5 27.66 8.34 35.5 18 35.5C27.66 35.5 35.5 27.66 35.5 18C35.5 8.34 27.66 0.5 18 0.5ZM18 7.5C21.3775 7.5 24.125 10.2475 24.125 13.625C24.125 17.0025 21.3775 19.75 18 19.75C14.6225 19.75 11.875 17.0025 11.875 13.625C11.875 10.2475 14.6225 7.5 18 7.5ZM18 32C14.4475 32 10.2475 30.565 7.255 26.96C10.3203 24.555 14.1038 23.2479 18 23.2479C21.8962 23.2479 25.6797 24.555 28.745 26.96C25.7525 30.565 21.5525 32 18 32Z" fill="black"/>
</svg>
