<svg width="33" height="33" viewBox="0 0 33 33" fill="none" xmlns="http://www.w3.org/2000/svg">
<path d="M16.5 33C14.3332 33 12.1876 32.5732 10.1857 31.744C8.18385 30.9148 6.3649 29.6994 4.83274 28.1673C1.73839 25.0729 0 20.8761 0 16.5C0 12.1239 1.73839 7.92709 4.83274 4.83274C7.92709 1.73839 12.1239 0 16.5 0C25.575 0 33 6.6 33 14.85C33 17.4756 31.957 19.9937 30.1004 21.8504C28.2437 23.707 25.7256 24.75 23.1 24.75H20.13C19.635 24.75 19.305 25.08 19.305 25.575C19.305 25.74 19.47 25.905 19.47 26.07C20.13 26.895 20.46 27.885 20.46 28.875C20.625 31.185 18.81 33 16.5 33M16.5 3.3C12.9991 3.3 9.64167 4.69071 7.16619 7.16619C4.69071 9.64167 3.3 12.9991 3.3 16.5C3.3 20.0009 4.69071 23.3583 7.16619 25.8338C9.64167 28.3093 12.9991 29.7 16.5 29.7C16.995 29.7 17.325 29.37 17.325 28.875C17.325 28.545 17.16 28.38 17.16 28.215C16.5 27.39 16.17 26.565 16.17 25.575C16.17 23.265 17.985 21.45 20.295 21.45H23.1C24.8504 21.45 26.5292 20.7546 27.7669 19.5169C29.0046 18.2792 29.7 16.6004 29.7 14.85C29.7 8.415 23.76 3.3 16.5 3.3M7.425 13.2C8.745 13.2 9.9 14.355 9.9 15.675C9.9 16.995 8.745 18.15 7.425 18.15C6.105 18.15 4.95 16.995 4.95 15.675C4.95 14.355 6.105 13.2 7.425 13.2ZM12.375 6.6C13.695 6.6 14.85 7.755 14.85 9.075C14.85 10.395 13.695 11.55 12.375 11.55C11.055 11.55 9.9 10.395 9.9 9.075C9.9 7.755 11.055 6.6 12.375 6.6ZM20.625 6.6C21.945 6.6 23.1 7.755 23.1 9.075C23.1 10.395 21.945 11.55 20.625 11.55C19.305 11.55 18.15 10.395 18.15 9.075C18.15 7.755 19.305 6.6 20.625 6.6ZM25.575 13.2C26.895 13.2 28.05 14.355 28.05 15.675C28.05 16.995 26.895 18.15 25.575 18.15C24.255 18.15 23.1 16.995 23.1 15.675C23.1 14.355 24.255 13.2 25.575 13.2Z" fill="black"/>
</svg>
