<svg width="29" height="38" viewBox="0 0 29 38" fill="none" xmlns="http://www.w3.org/2000/svg">
<path d="M1.78125 38H26.7188C27.7008 38 28.5 37.2008 28.5 36.2188V11.2812C28.5 11.2611 28.4905 11.2444 28.4893 11.2254C28.4869 11.1981 28.4798 11.1744 28.4739 11.1482C28.4552 11.0658 28.4188 10.9883 28.367 10.9214C28.3587 10.9107 28.3599 10.8977 28.3516 10.887L18.8516 0.1995C18.848 0.195937 18.8433 0.195937 18.8397 0.192375C18.7672 0.116625 18.6758 0.0616776 18.5749 0.03325C18.5523 0.026125 18.5321 0.02375 18.5084 0.0201875C18.4739 0.01425 18.4419 0 18.4062 0H1.78125C0.799187 0 0 0.799187 0 1.78125V36.2188C0 37.2008 0.799187 38 1.78125 38ZM19 2.15531L26.5846 10.6875H19.5938C19.3325 10.6875 19 10.1888 19 9.79688V2.15531ZM1.1875 1.78125C1.1875 1.62378 1.25006 1.47276 1.36141 1.36141C1.47276 1.25006 1.62378 1.1875 1.78125 1.1875H17.8125V9.79688C17.8125 10.7576 18.5903 11.875 19.5938 11.875H27.3125V36.2188C27.3125 36.3762 27.2499 36.5272 27.1386 36.6386C27.0272 36.7499 26.8762 36.8125 26.7188 36.8125H1.78125C1.44875 36.8125 1.1875 36.5513 1.1875 36.2188V1.78125Z" fill="black"/>
<path d="M6.53125 16.625H21.9688C22.1262 16.625 22.2772 16.5624 22.3886 16.4511C22.4999 16.3397 22.5625 16.1887 22.5625 16.0312C22.5625 15.8738 22.4999 15.7228 22.3886 15.6114C22.2772 15.5001 22.1262 15.4375 21.9688 15.4375H6.53125C6.37378 15.4375 6.22276 15.5001 6.11141 15.6114C6.00006 15.7228 5.9375 15.8738 5.9375 16.0312C5.9375 16.1887 6.00006 16.3397 6.11141 16.4511C6.22276 16.5624 6.37378 16.625 6.53125 16.625ZM6.53125 21.375H21.9688C22.1262 21.375 22.2772 21.3124 22.3886 21.2011C22.4999 21.0897 22.5625 20.9387 22.5625 20.7812C22.5625 20.6238 22.4999 20.4728 22.3886 20.3614C22.2772 20.2501 22.1262 20.1875 21.9688 20.1875H6.53125C6.37378 20.1875 6.22276 20.2501 6.11141 20.3614C6.00006 20.4728 5.9375 20.6238 5.9375 20.7812C5.9375 20.9387 6.00006 21.0897 6.11141 21.2011C6.22276 21.3124 6.37378 21.375 6.53125 21.375ZM6.53125 11.875H13.6562C13.8137 11.875 13.9647 11.8124 14.0761 11.7011C14.1874 11.5897 14.25 11.4387 14.25 11.2812C14.25 11.1238 14.1874 10.9728 14.0761 10.8614C13.9647 10.7501 13.8137 10.6875 13.6562 10.6875H6.53125C6.37378 10.6875 6.22276 10.7501 6.11141 10.8614C6.00006 10.9728 5.9375 11.1238 5.9375 11.2812C5.9375 11.4387 6.00006 11.5897 6.11141 11.7011C6.22276 11.8124 6.37378 11.875 6.53125 11.875ZM6.53125 26.125H21.9688C22.1262 26.125 22.2772 26.0624 22.3886 25.9511C22.4999 25.8397 22.5625 25.6887 22.5625 25.5312C22.5625 25.3738 22.4999 25.2228 22.3886 25.1114C22.2772 25.0001 22.1262 24.9375 21.9688 24.9375H6.53125C6.37378 24.9375 6.22276 25.0001 6.11141 25.1114C6.00006 25.2228 5.9375 25.3738 5.9375 25.5312C5.9375 25.6887 6.00006 25.8397 6.11141 25.9511C6.22276 26.0624 6.37378 26.125 6.53125 26.125ZM6.53125 30.875H21.9688C22.1262 30.875 22.2772 30.8124 22.3886 30.7011C22.4999 30.5897 22.5625 30.4387 22.5625 30.2812C22.5625 30.1238 22.4999 29.9728 22.3886 29.8614C22.2772 29.7501 22.1262 29.6875 21.9688 29.6875H6.53125C6.37378 29.6875 6.22276 29.7501 6.11141 29.8614C6.00006 29.9728 5.9375 30.1238 5.9375 30.2812C5.9375 30.4387 6.00006 30.5897 6.11141 30.7011C6.22276 30.8124 6.37378 30.875 6.53125 30.875Z" fill="black"/>
</svg>
