<svg width="33" height="38" viewBox="0 0 33 38" fill="none" xmlns="http://www.w3.org/2000/svg">
<mask id="path-1-inside-1_630_4847" fill="white">
<path d="M13.8683 22.8594C13.8542 22.9018 13.7658 22.8983 13.6032 22.8488C13.4407 22.7993 13.218 22.718 12.9353 22.6049L12.5112 22.4141C11.8891 22.1313 11.2742 21.785 10.6663 21.375C10.5673 21.3043 10.2775 21.0817 9.79688 20.707C9.31622 20.3324 9.04762 20.131 8.99107 20.1027C8.0439 21.5588 7.09673 22.8382 6.14955 23.9408C5.00446 25.2839 4.26228 26.0614 3.92299 26.2734C3.86644 26.3017 3.72861 26.33 3.50949 26.3583C3.29036 26.3865 3.1596 26.3865 3.11719 26.3583C3.20201 26.3017 3.78162 25.6514 4.85603 24.4074C5.1529 24.0681 5.75725 23.2552 6.66908 21.9688C7.58091 20.6823 8.13579 19.8482 8.3337 19.4665C8.57403 19.0424 8.93452 18.3462 9.41518 17.3778C9.89583 16.4094 10.1503 15.8616 10.1786 15.7344C10.0655 15.7202 9.28795 15.9535 7.84598 16.4342C7.73289 16.4624 7.5385 16.5154 7.26283 16.5932C6.98716 16.6709 6.7433 16.7381 6.53125 16.7946C6.3192 16.8512 6.19903 16.8865 6.17076 16.9007C6.14249 16.9289 6.12835 17.0032 6.12835 17.1233C6.12835 17.2435 6.12128 17.3106 6.10714 17.3248C6.03646 17.4661 5.81734 17.5722 5.44978 17.6429C5.12463 17.7418 4.79241 17.7418 4.45312 17.6429C4.19866 17.5863 4.00074 17.4379 3.85937 17.1975C3.80283 17.1127 3.76748 16.9501 3.75335 16.7098C3.83817 16.6815 4.01135 16.6462 4.27288 16.6038C4.53441 16.5614 4.74293 16.519 4.89844 16.4766C5.71838 16.2504 6.46057 16.0242 7.125 15.798C8.53869 15.3032 9.25967 15.0558 9.28795 15.0558C9.42931 15.0275 9.73326 14.8897 10.1998 14.6423C10.6663 14.3949 10.9773 14.2429 11.1328 14.1864C11.26 14.144 11.412 14.0874 11.5887 14.0167C11.7654 13.9461 11.8679 13.9072 11.8962 13.9001C11.9245 13.893 11.9669 13.8966 12.0234 13.9107C12.0517 14.0804 12.0446 14.3136 12.0022 14.6105C12.0022 14.6388 11.9139 14.8296 11.7372 15.183C11.5605 15.5365 11.3731 15.9146 11.1752 16.3175C10.9773 16.7204 10.8571 16.9572 10.8147 17.0279C10.4613 17.7347 9.91704 18.6607 9.18192 19.8058L10.5391 20.3996C10.7087 20.4844 11.2353 20.7106 12.1189 21.0781C13.0024 21.4457 13.4795 21.6436 13.5502 21.6719C13.6068 21.686 13.681 21.8663 13.7729 22.2126C13.8648 22.559 13.8966 22.7746 13.8683 22.8594ZM9.5212 12.5536C9.56362 12.7656 9.53534 12.9635 9.43638 13.1473C9.26674 13.4725 8.91332 13.7411 8.37612 13.9531C7.95201 14.1228 7.5279 14.2076 7.10379 14.2076C6.73624 14.1652 6.38988 13.9814 6.06473 13.6562C5.86682 13.4442 5.73958 13.1544 5.68304 12.7868L5.70424 12.7232C5.74665 12.7656 5.88449 12.801 6.11775 12.8292C6.351 12.8575 6.53832 12.8575 6.67969 12.8292C6.82106 12.801 7.23103 12.6879 7.9096 12.49C8.41853 12.3203 8.80729 12.2214 9.07589 12.1931C9.31622 12.1931 9.46466 12.3132 9.5212 12.5536ZM24.3225 15.2891L25.6585 20.1027L22.7109 19.2121L24.3225 15.2891ZM0.827009 32.2533L15.5435 27.3337V5.44978L0.827009 10.3906V32.2533ZM27.1429 25.5312L29.3058 26.1886L25.4676 12.2567L23.3471 11.5993L18.7667 22.9654L20.9297 23.6228L21.8839 21.2902L26.3583 22.6685L27.1429 25.5312ZM16.4766 5.1317L28.6272 9.03348V0.975446L16.4766 5.1317ZM23.0714 33.1864L26.4219 33.4621L25.2768 36.8549L24.4286 35.4554C22.5908 36.6287 20.6399 37.3921 18.5759 37.7455C17.756 37.9152 17.1127 38 16.6462 38H14.865C13.7481 38 12.338 37.7243 10.6345 37.173C8.93099 36.6217 7.63393 36.0208 6.7433 35.3705C6.63021 35.2716 6.57366 35.1585 6.57366 35.0312C6.57366 34.9182 6.609 34.8227 6.67969 34.745C6.75037 34.6672 6.84226 34.6283 6.95536 34.6283C7.0119 34.6283 7.13914 34.6814 7.33705 34.7874C7.53497 34.8934 7.75056 35.01 7.98382 35.1373C8.21708 35.2645 8.36198 35.3423 8.41853 35.3705C9.45052 35.8936 10.5779 36.3283 11.8008 36.6747C13.0236 37.021 14.1369 37.1942 15.1406 37.1942C16.4836 37.1942 17.6641 37.0917 18.6819 36.8867C19.6998 36.6817 20.8095 36.3248 22.0112 35.8158C22.2232 35.7169 22.4388 35.6073 22.6579 35.4872C22.877 35.367 23.1174 35.2327 23.3789 35.0843C23.6404 34.9358 23.8419 34.8192 23.9833 34.7344L23.0714 33.1864ZM32.5714 10.3058V33.1864L16.1585 27.9699C15.9606 28.0547 13.3099 28.9559 8.20647 30.6735C3.10305 32.3912 0.50186 33.25 0.402902 33.25C0.219122 33.25 0.0918899 33.1581 0.0212054 32.9743C0.0212054 32.9602 0.0141369 32.939 0 32.9107V10.0513C0.0424107 9.92411 0.0706845 9.85342 0.0848214 9.83928C0.155506 9.75446 0.296875 9.67671 0.508929 9.60603C2.02158 9.0971 3.07478 8.74368 3.66853 8.54576V0.402902L15.5011 4.60156C15.5294 4.60156 16.6639 4.2128 18.9046 3.43527C21.1453 2.65774 23.3789 1.89081 25.6055 1.13449C27.832 0.378162 28.9736 0 29.0301 0C29.3129 0 29.4542 0.148437 29.4542 0.445312V9.30915L32.5714 10.3058Z"/>
</mask>
<path d="M13.8683 22.8594C13.8542 22.9018 13.7658 22.8983 13.6032 22.8488C13.4407 22.7993 13.218 22.718 12.9353 22.6049L12.5112 22.4141C11.8891 22.1313 11.2742 21.785 10.6663 21.375C10.5673 21.3043 10.2775 21.0817 9.79688 20.707C9.31622 20.3324 9.04762 20.131 8.99107 20.1027C8.0439 21.5588 7.09673 22.8382 6.14955 23.9408C5.00446 25.2839 4.26228 26.0614 3.92299 26.2734C3.86644 26.3017 3.72861 26.33 3.50949 26.3583C3.29036 26.3865 3.1596 26.3865 3.11719 26.3583C3.20201 26.3017 3.78162 25.6514 4.85603 24.4074C5.1529 24.0681 5.75725 23.2552 6.66908 21.9688C7.58091 20.6823 8.13579 19.8482 8.3337 19.4665C8.57403 19.0424 8.93452 18.3462 9.41518 17.3778C9.89583 16.4094 10.1503 15.8616 10.1786 15.7344C10.0655 15.7202 9.28795 15.9535 7.84598 16.4342C7.73289 16.4624 7.5385 16.5154 7.26283 16.5932C6.98716 16.6709 6.7433 16.7381 6.53125 16.7946C6.3192 16.8512 6.19903 16.8865 6.17076 16.9007C6.14249 16.9289 6.12835 17.0032 6.12835 17.1233C6.12835 17.2435 6.12128 17.3106 6.10714 17.3248C6.03646 17.4661 5.81734 17.5722 5.44978 17.6429C5.12463 17.7418 4.79241 17.7418 4.45312 17.6429C4.19866 17.5863 4.00074 17.4379 3.85937 17.1975C3.80283 17.1127 3.76748 16.9501 3.75335 16.7098C3.83817 16.6815 4.01135 16.6462 4.27288 16.6038C4.53441 16.5614 4.74293 16.519 4.89844 16.4766C5.71838 16.2504 6.46057 16.0242 7.125 15.798C8.53869 15.3032 9.25967 15.0558 9.28795 15.0558C9.42931 15.0275 9.73326 14.8897 10.1998 14.6423C10.6663 14.3949 10.9773 14.2429 11.1328 14.1864C11.26 14.144 11.412 14.0874 11.5887 14.0167C11.7654 13.9461 11.8679 13.9072 11.8962 13.9001C11.9245 13.893 11.9669 13.8966 12.0234 13.9107C12.0517 14.0804 12.0446 14.3136 12.0022 14.6105C12.0022 14.6388 11.9139 14.8296 11.7372 15.183C11.5605 15.5365 11.3731 15.9146 11.1752 16.3175C10.9773 16.7204 10.8571 16.9572 10.8147 17.0279C10.4613 17.7347 9.91704 18.6607 9.18192 19.8058L10.5391 20.3996C10.7087 20.4844 11.2353 20.7106 12.1189 21.0781C13.0024 21.4457 13.4795 21.6436 13.5502 21.6719C13.6068 21.686 13.681 21.8663 13.7729 22.2126C13.8648 22.559 13.8966 22.7746 13.8683 22.8594ZM9.5212 12.5536C9.56362 12.7656 9.53534 12.9635 9.43638 13.1473C9.26674 13.4725 8.91332 13.7411 8.37612 13.9531C7.95201 14.1228 7.5279 14.2076 7.10379 14.2076C6.73624 14.1652 6.38988 13.9814 6.06473 13.6562C5.86682 13.4442 5.73958 13.1544 5.68304 12.7868L5.70424 12.7232C5.74665 12.7656 5.88449 12.801 6.11775 12.8292C6.351 12.8575 6.53832 12.8575 6.67969 12.8292C6.82106 12.801 7.23103 12.6879 7.9096 12.49C8.41853 12.3203 8.80729 12.2214 9.07589 12.1931C9.31622 12.1931 9.46466 12.3132 9.5212 12.5536ZM24.3225 15.2891L25.6585 20.1027L22.7109 19.2121L24.3225 15.2891ZM0.827009 32.2533L15.5435 27.3337V5.44978L0.827009 10.3906V32.2533ZM27.1429 25.5312L29.3058 26.1886L25.4676 12.2567L23.3471 11.5993L18.7667 22.9654L20.9297 23.6228L21.8839 21.2902L26.3583 22.6685L27.1429 25.5312ZM16.4766 5.1317L28.6272 9.03348V0.975446L16.4766 5.1317ZM23.0714 33.1864L26.4219 33.4621L25.2768 36.8549L24.4286 35.4554C22.5908 36.6287 20.6399 37.3921 18.5759 37.7455C17.756 37.9152 17.1127 38 16.6462 38H14.865C13.7481 38 12.338 37.7243 10.6345 37.173C8.93099 36.6217 7.63393 36.0208 6.7433 35.3705C6.63021 35.2716 6.57366 35.1585 6.57366 35.0312C6.57366 34.9182 6.609 34.8227 6.67969 34.745C6.75037 34.6672 6.84226 34.6283 6.95536 34.6283C7.0119 34.6283 7.13914 34.6814 7.33705 34.7874C7.53497 34.8934 7.75056 35.01 7.98382 35.1373C8.21708 35.2645 8.36198 35.3423 8.41853 35.3705C9.45052 35.8936 10.5779 36.3283 11.8008 36.6747C13.0236 37.021 14.1369 37.1942 15.1406 37.1942C16.4836 37.1942 17.6641 37.0917 18.6819 36.8867C19.6998 36.6817 20.8095 36.3248 22.0112 35.8158C22.2232 35.7169 22.4388 35.6073 22.6579 35.4872C22.877 35.367 23.1174 35.2327 23.3789 35.0843C23.6404 34.9358 23.8419 34.8192 23.9833 34.7344L23.0714 33.1864ZM32.5714 10.3058V33.1864L16.1585 27.9699C15.9606 28.0547 13.3099 28.9559 8.20647 30.6735C3.10305 32.3912 0.50186 33.25 0.402902 33.25C0.219122 33.25 0.0918899 33.1581 0.0212054 32.9743C0.0212054 32.9602 0.0141369 32.939 0 32.9107V10.0513C0.0424107 9.92411 0.0706845 9.85342 0.0848214 9.83928C0.155506 9.75446 0.296875 9.67671 0.508929 9.60603C2.02158 9.0971 3.07478 8.74368 3.66853 8.54576V0.402902L15.5011 4.60156C15.5294 4.60156 16.6639 4.2128 18.9046 3.43527C21.1453 2.65774 23.3789 1.89081 25.6055 1.13449C27.832 0.378162 28.9736 0 29.0301 0C29.3129 0 29.4542 0.148437 29.4542 0.445312V9.30915L32.5714 10.3058Z" fill="black" stroke="black" stroke-width="0.0424107" mask="url(#path-1-inside-1_630_4847)"/>
</svg>
