<svg width="141" height="141" viewBox="0 0 141 141" fill="none" xmlns="http://www.w3.org/2000/svg">
<path fill-rule="evenodd" clip-rule="evenodd" d="M119.85 24.6758H21.1496C19.2798 24.6758 17.4866 25.4185 16.1645 26.7407C14.8424 28.0628 14.0996 29.856 14.0996 31.7258V109.276C14.0996 111.146 14.8424 112.939 16.1645 114.261C17.4866 115.583 19.2798 116.326 21.1496 116.326H119.85C121.719 116.326 123.513 115.583 124.835 114.261C126.157 112.939 126.9 111.146 126.9 109.276V31.7258C126.9 29.856 126.157 28.0628 124.835 26.7407C123.513 25.4185 121.719 24.6758 119.85 24.6758ZM28.1996 102.226V38.7758H112.8V102.226H28.1996Z" fill="black"/>
<path fill-rule="evenodd" clip-rule="evenodd" d="M124.418 37.0908L74.7511 79.3908C73.4703 80.481 71.8419 81.0774 70.1599 81.0722C68.4779 81.0671 66.8532 80.4607 65.5791 79.3626L16.5463 37.0626C11.5972 32.7974 14.6146 24.6758 21.15 24.6758H119.85C126.406 24.6758 129.41 32.8397 124.418 37.0908ZM40.1145 38.7758L70.218 64.7409L100.688 38.7758H40.1145Z" fill="black"/>
</svg>
