<svg width="32" height="32" viewBox="0 0 32 32" fill="none" xmlns="http://www.w3.org/2000/svg">
<path d="M2.52871 13.911L2.3988 14.8153H3.31233H4.75C4.95996 14.8153 5.16133 14.8987 5.30979 15.0471C5.45826 15.1956 5.54167 15.397 5.54167 15.6069V23.75C5.54167 23.96 5.45826 24.1613 5.30979 24.3098C5.16133 24.4583 4.95997 24.5417 4.75 24.5417H3.16667C1.80118 24.5417 0.791667 23.5229 0.791667 22.3931V15.8333C0.791667 7.54006 7.54006 0.791667 15.8333 0.791667C24.1266 0.791667 30.875 7.54006 30.875 15.8333V22.3931C30.875 23.5229 29.8655 24.5417 28.5 24.5417H27.7083V25.3333C27.7083 28.3889 25.2223 30.875 22.1667 30.875H13.4583V27.7083H18.2083V28.5V29.2917H19H22.1667C24.3503 29.2917 26.125 27.517 26.125 25.3333V15.6069C26.125 15.397 26.2084 15.1956 26.3569 15.0471C26.5053 14.8987 26.7067 14.8153 26.9167 14.8153H28.3543H29.2679L29.138 13.911C28.2027 7.40115 22.6026 2.375 15.8333 2.375C9.06402 2.375 3.46398 7.40115 2.52871 13.911Z" fill="black" stroke="black" stroke-width="1.58333"/>
</svg>
