<svg width="33" height="33" viewBox="0 0 33 33" fill="none" xmlns="http://www.w3.org/2000/svg">
<g clip-path="url(#clip0_630_4860)">
<path d="M29.8009 25.5107C28.9169 24.7227 28.1431 23.8193 27.5001 22.8249C26.7981 21.4522 26.3774 19.9532 26.2626 18.4157V13.8874C26.2686 11.4725 25.3927 9.13856 23.7992 7.32401C22.2058 5.50947 20.0046 4.33924 17.6092 4.0332V2.8507C17.6092 2.52614 17.4803 2.21488 17.2508 1.98538C17.0213 1.75588 16.71 1.62695 16.3855 1.62695C16.0609 1.62695 15.7497 1.75588 15.5202 1.98538C15.2907 2.21488 15.1617 2.52614 15.1617 2.8507V4.05154C12.7878 4.37964 10.6132 5.55694 9.04072 7.36538C7.46823 9.17383 6.6044 11.4909 6.60923 13.8874V18.4157C6.49442 19.9532 6.07369 21.4522 5.37173 22.8249C4.74004 23.817 3.97858 24.7203 3.10757 25.5107C3.00979 25.5966 2.93142 25.7023 2.87768 25.8209C2.82394 25.9394 2.79606 26.0681 2.7959 26.1982V27.4449C2.7959 27.688 2.89248 27.9211 3.06438 28.0931C3.23629 28.265 3.46945 28.3615 3.71257 28.3615H29.1959C29.439 28.3615 29.6722 28.265 29.8441 28.0931C30.016 27.9211 30.1126 27.688 30.1126 27.4449V26.1982C30.1124 26.0681 30.0845 25.9394 30.0308 25.8209C29.977 25.7023 29.8987 25.5966 29.8009 25.5107ZM4.70257 26.5282C5.55544 25.7043 6.30636 24.781 6.93923 23.7782C7.82346 22.1204 8.33938 20.2912 8.45173 18.4157V13.8874C8.41538 12.8131 8.59558 11.7424 8.98161 10.7392C9.36763 9.73602 9.95159 8.82076 10.6987 8.04793C11.4458 7.2751 12.3408 6.66052 13.3304 6.24079C14.32 5.82105 15.3839 5.60474 16.4588 5.60474C17.5337 5.60474 18.5977 5.82105 19.5872 6.24079C20.5768 6.66052 21.4718 7.2751 22.2189 8.04793C22.966 8.82076 23.55 9.73602 23.936 10.7392C24.322 11.7424 24.5023 12.8131 24.4659 13.8874V18.4157C24.5783 20.2912 25.0942 22.1204 25.9784 23.7782C26.6113 24.781 27.3622 25.7043 28.2151 26.5282H4.70257Z" fill="black"/>
<path d="M16.5001 31.423C17.0776 31.4097 17.6317 31.1926 18.0645 30.8101C18.4973 30.4277 18.7809 29.9044 18.8651 29.333H14.0435C14.1301 29.92 14.4269 30.4555 14.8788 30.8399C15.3307 31.2244 15.9069 31.4316 16.5001 31.423Z" fill="black"/>
</g>
<defs>
<clipPath id="clip0_630_4860">
<rect width="33" height="33" fill="white"/>
</clipPath>
</defs>
</svg>
