<svg width="29" height="32" viewBox="0 0 29 32" fill="none" xmlns="http://www.w3.org/2000/svg">
<path d="M27.7451 7.83738L27.7454 7.83968L27.7454 7.83995C27.7463 7.84957 27.7699 8.11097 27.7824 8.5756C27.7952 9.04768 27.7964 9.72565 27.7513 10.5575C27.661 12.2231 27.3855 14.495 26.6514 16.9622C25.186 21.8872 21.9056 27.5647 14.612 30.8083L14.6081 30.81C14.5084 30.855 14.4003 30.8783 14.2909 30.8783C14.1815 30.8783 14.0734 30.855 13.9737 30.81L13.9697 30.8083C6.67618 27.5647 3.3958 21.8868 1.93037 16.9617C1.19626 14.4944 0.920795 12.2224 0.830474 10.5569C0.785365 9.72501 0.786578 9.04712 0.799331 8.57515C0.811792 8.11398 0.835147 7.85348 0.836276 7.8409L0.836319 7.84043L0.836493 7.8387C0.849885 7.70556 0.896676 7.57795 0.972527 7.46771C1.04824 7.35767 1.15045 7.2685 1.26973 7.20841C1.26995 7.20829 1.27017 7.20818 1.2704 7.20807L13.9356 0.875472L13.9358 0.875359C14.0458 0.820321 14.1671 0.791667 14.2901 0.791667C14.4131 0.791667 14.5344 0.820321 14.6444 0.875359L14.6446 0.875472L27.3113 7.20881L27.3122 7.20927C27.4316 7.26878 27.534 7.35762 27.6097 7.46748C27.6854 7.57733 27.732 7.7046 27.7451 7.83738ZM13.4992 28.338V29.6008L14.6358 29.0506C21.1727 25.8861 24.0396 20.5316 25.2822 16.0458L25.56 15.0428H24.5192H15.0826V3.35463V2.07369L13.9368 2.64655L2.79967 8.21513L2.37112 8.42941L2.36219 8.90846C2.3173 11.3169 2.61671 13.7193 3.25136 16.043L3.41061 16.6261H4.01505H13.4992V28.338Z" fill="black" stroke="black" stroke-width="1.58333"/>
</svg>
