<svg width="34" height="34" viewBox="0 0 34 34" fill="none" xmlns="http://www.w3.org/2000/svg">
<path d="M5.5411 27.7089C2.60147 24.7693 0.95 20.7823 0.95 16.625C0.95 12.4677 2.60147 8.48073 5.5411 5.5411C8.48073 2.60147 12.4677 0.95 16.625 0.95C20.7823 0.95 24.7693 2.60147 27.7089 5.5411C30.6485 8.48073 32.3 12.4677 32.3 16.625C32.3 20.7823 30.6485 24.7693 27.7089 27.7089C24.7693 30.6485 20.7823 32.3 16.625 32.3C12.4677 32.3 8.48073 30.6485 5.5411 27.7089ZM27.0371 27.0371C29.7986 24.2757 31.35 20.5303 31.35 16.625C31.35 12.7197 29.7986 8.97433 27.0371 6.21285C24.2757 3.45138 20.5303 1.9 16.625 1.9C12.7197 1.9 8.97433 3.45138 6.21285 6.21285C3.45138 8.97433 1.9 12.7197 1.9 16.625C1.9 20.5303 3.45138 24.2757 6.21285 27.0371C8.97433 29.7986 12.7197 31.35 16.625 31.35C20.5303 31.35 24.2757 29.7986 27.0371 27.0371Z" fill="black" stroke="black" stroke-width="1.9"/>
<path d="M16.625 31.3502C15.0721 31.3502 13.5281 30.0572 12.3233 27.3038C11.1457 24.6125 10.45 20.8322 10.45 16.6252C10.45 12.4182 11.1457 8.63787 12.3233 5.94659C13.5281 3.19317 15.0721 1.9002 16.625 1.9002C18.1779 1.9002 19.7219 3.19317 20.9267 5.94659C22.1043 8.63787 22.8 12.4182 22.8 16.6252C22.8 20.8322 22.1043 24.6125 20.9267 27.3038C19.7219 30.0572 18.1779 31.3502 16.625 31.3502ZM16.625 30.4002C17.5801 30.4002 18.3436 29.744 18.8919 29.0302C19.4694 28.2787 19.9818 27.2447 20.4098 26.035C21.2691 23.6058 21.85 20.2904 21.85 16.6252C21.85 12.96 21.2691 9.64456 20.4098 7.21543C19.9818 6.0057 19.4694 4.97168 18.8919 4.22014C18.3436 3.50644 17.5801 2.8502 16.625 2.8502C15.6699 2.8502 14.9064 3.50644 14.3581 4.22014C13.7806 4.97168 13.2682 6.0057 12.8402 7.21543C11.9809 9.64456 11.4 12.96 11.4 16.6252C11.4 20.2904 11.9809 23.6058 12.8402 26.035C13.2682 27.2447 13.7806 28.2787 14.3581 29.0302C14.9064 29.744 15.6699 30.4002 16.625 30.4002Z" fill="black" stroke="black" stroke-width="1.9"/>
<path d="M6.47993 7.20545L5.83974 7.91309C5.84565 7.91753 5.85156 7.92197 5.85747 7.9264C8.59646 9.97799 12.831 11.2308 17.4764 11.2308C21.4146 11.2308 25.0789 10.3315 27.7888 8.77998L27.7942 8.77686L27.7942 8.77688C28.1707 8.56461 28.5351 8.33199 28.8858 8.08014L28.2667 7.35493C27.9678 7.56547 27.6507 7.76645 27.3167 7.95731L6.47993 7.20545ZM6.47993 7.20545C9.107 9.14852 13.1573 10.2827 17.4764 10.2827C21.1974 10.2827 24.7138 9.44496 27.3166 7.95735L6.47993 7.20545ZM5.85745 25.3538C5.85154 25.3583 5.84564 25.3627 5.83974 25.3671L6.47993 26.0748C9.107 24.1317 13.1573 22.9975 17.4764 22.9975C21.1974 22.9975 24.7138 23.8353 27.3166 25.3229C27.6507 25.5138 27.9678 25.7147 28.2667 25.9253L28.8852 25.2008C28.5341 24.9488 28.1695 24.7157 27.7929 24.5026L27.7888 24.5003C25.0789 22.9487 21.4146 22.0494 17.4764 22.0494C12.831 22.0494 8.59644 23.3023 5.85745 25.3538ZM5.85745 25.3538L5.2879 24.5935L5.85745 25.3538ZM1.9002 17.0999V16.1499H31.3502V17.0999H1.9002Z" fill="black" stroke="black" stroke-width="1.9"/>
</svg>
