<svg width="32" height="32" viewBox="0 0 32 32" fill="none" xmlns="http://www.w3.org/2000/svg">
<path d="M17.4167 26.125H18.2083V25.3333V22.1667V21.375H17.4167H14.25H13.4583V22.1667V25.3333V26.125H14.25H17.4167ZM19.4588 18.2151L19.4603 18.2139C19.4798 18.1981 19.4997 18.1821 19.5197 18.1658C20.7268 17.1889 22.8538 15.4674 22.8538 12.5622C22.8538 8.69069 19.7048 5.54167 15.8333 5.54167C11.9619 5.54167 8.81283 8.69069 8.81283 12.5622V13.3538H9.6045H12.7712H13.5452L13.5626 12.58C13.576 11.9869 13.8209 11.4226 14.245 11.0078C14.6691 10.593 15.2387 10.3607 15.832 10.3605C16.4252 10.3603 16.9949 10.5924 17.4193 11.007C17.8413 11.4193 18.0861 11.9795 18.1022 12.569C18.1002 12.7989 18.0146 13.0332 17.7561 13.347C17.4783 13.6841 17.0591 14.0442 16.4701 14.5217L16.4699 14.5218C16.0737 14.8432 15.6576 15.1824 15.3147 15.5253C13.5311 17.3089 13.4583 19.2269 13.4583 19.5273V19.7917V20.5833H14.25H17.4167H18.2083V19.7917V19.6363C18.2244 19.5619 18.3088 19.2503 18.674 18.886L18.6747 18.8853C18.8713 18.6887 19.1257 18.4837 19.4387 18.2314L19.4588 18.2151ZM0.791667 15.8333C0.791667 7.54006 7.54006 0.791667 15.8333 0.791667C24.1266 0.791667 30.875 7.54006 30.875 15.8333C30.875 24.1266 24.1266 30.875 15.8333 30.875C7.54006 30.875 0.791667 24.1266 0.791667 15.8333Z" fill="black" stroke="black" stroke-width="1.58333"/>
</svg>
